%TF.GenerationSoftware,KiCad,Pcbnew,10.0.6*%
%TF.CreationDate,2026-09-15T20:38:37+08:00*%
%TF.ProjectId,blare,626c6172-652e-46b6-9963-61645f706362,rev?*%
%TF.SameCoordinates,Original*%
%TF.FileFunction,Profile,NP*%
%FSLAX46Y46*%
G04 Gerber Fmt 4.6, Leading zero omitted, Abs format (unit mm)*
G04 Created by KiCad (PCBNEW 10.0.6) date 2026-09-15 20:38:37*
%MOMM*%
%LPD*%
G01*
G04 APERTURE LIST*
%TA.AperFunction,Profile*%
%ADD10C,0.050000*%
%TD*%
%ADD11C,0.300000*%
G04 APERTURE END LIST*
D10*
X22000000Y-120000000D02*
G75*
G02*
X25000000Y-117000000I3000000J0D01*
G01*
X22000000Y-185000000D02*
X22000000Y-120000000D01*
X25000000Y-117000000D02*
X110000000Y-117000000D01*
X25000000Y-188000000D02*
G75*
G02*
X22000000Y-185000000I0J3000000D01*
G01*
X110000000Y-117000000D02*
G75*
G02*
X113000000Y-120000000I0J-3000000D01*
G01*
X110000000Y-188000000D02*
X25000000Y-188000000D01*
X113000000Y-120000000D02*
X113000000Y-185000000D01*
X113000000Y-185000000D02*
G75*
G02*
X110000000Y-188000000I-3000000J0D01*
G01*
D11*
X40911653Y-179545828D02*
X41340225Y-179688685D01*
X41340225Y-179688685D02*
X41483082Y-179831542D01*
X41483082Y-179831542D02*
X41625939Y-180117257D01*
X41625939Y-180117257D02*
X41625939Y-180545828D01*
X41625939Y-180545828D02*
X41483082Y-180831542D01*
X41483082Y-180831542D02*
X41340225Y-180974400D01*
X41340225Y-180974400D02*
X41054510Y-181117257D01*
X41054510Y-181117257D02*
X39911653Y-181117257D01*
X39911653Y-181117257D02*
X39911653Y-178117257D01*
X39911653Y-178117257D02*
X40911653Y-178117257D01*
X40911653Y-178117257D02*
X41197368Y-178260114D01*
X41197368Y-178260114D02*
X41340225Y-178402971D01*
X41340225Y-178402971D02*
X41483082Y-178688685D01*
X41483082Y-178688685D02*
X41483082Y-178974400D01*
X41483082Y-178974400D02*
X41340225Y-179260114D01*
X41340225Y-179260114D02*
X41197368Y-179402971D01*
X41197368Y-179402971D02*
X40911653Y-179545828D01*
X40911653Y-179545828D02*
X39911653Y-179545828D01*
X44340225Y-181117257D02*
X42911653Y-181117257D01*
X42911653Y-181117257D02*
X42911653Y-178117257D01*
X45197367Y-180260114D02*
X46625939Y-180260114D01*
X44911653Y-181117257D02*
X45911653Y-178117257D01*
X45911653Y-178117257D02*
X46911653Y-181117257D01*
X49625939Y-181117257D02*
X48625939Y-179688685D01*
X47911653Y-181117257D02*
X47911653Y-178117257D01*
X47911653Y-178117257D02*
X49054510Y-178117257D01*
X49054510Y-178117257D02*
X49340225Y-178260114D01*
X49340225Y-178260114D02*
X49483082Y-178402971D01*
X49483082Y-178402971D02*
X49625939Y-178688685D01*
X49625939Y-178688685D02*
X49625939Y-179117257D01*
X49625939Y-179117257D02*
X49483082Y-179402971D01*
X49483082Y-179402971D02*
X49340225Y-179545828D01*
X49340225Y-179545828D02*
X49054510Y-179688685D01*
X49054510Y-179688685D02*
X47911653Y-179688685D01*
X50911653Y-179545828D02*
X51911653Y-179545828D01*
X52340225Y-181117257D02*
X50911653Y-181117257D01*
X50911653Y-181117257D02*
X50911653Y-178117257D01*
X50911653Y-178117257D02*
X52340225Y-178117257D01*
X55911653Y-181117257D02*
X55911653Y-178117257D01*
X55911653Y-178117257D02*
X57054510Y-178117257D01*
X57054510Y-178117257D02*
X57340225Y-178260114D01*
X57340225Y-178260114D02*
X57483082Y-178402971D01*
X57483082Y-178402971D02*
X57625939Y-178688685D01*
X57625939Y-178688685D02*
X57625939Y-179117257D01*
X57625939Y-179117257D02*
X57483082Y-179402971D01*
X57483082Y-179402971D02*
X57340225Y-179545828D01*
X57340225Y-179545828D02*
X57054510Y-179688685D01*
X57054510Y-179688685D02*
X55911653Y-179688685D01*
X58911653Y-181117257D02*
X58911653Y-178117257D01*
X58911653Y-179545828D02*
X60625939Y-179545828D01*
X60625939Y-181117257D02*
X60625939Y-178117257D01*
X62625939Y-178117257D02*
X63197367Y-178117257D01*
X63197367Y-178117257D02*
X63483082Y-178260114D01*
X63483082Y-178260114D02*
X63768796Y-178545828D01*
X63768796Y-178545828D02*
X63911653Y-179117257D01*
X63911653Y-179117257D02*
X63911653Y-180117257D01*
X63911653Y-180117257D02*
X63768796Y-180688685D01*
X63768796Y-180688685D02*
X63483082Y-180974400D01*
X63483082Y-180974400D02*
X63197367Y-181117257D01*
X63197367Y-181117257D02*
X62625939Y-181117257D01*
X62625939Y-181117257D02*
X62340225Y-180974400D01*
X62340225Y-180974400D02*
X62054510Y-180688685D01*
X62054510Y-180688685D02*
X61911653Y-180117257D01*
X61911653Y-180117257D02*
X61911653Y-179117257D01*
X61911653Y-179117257D02*
X62054510Y-178545828D01*
X62054510Y-178545828D02*
X62340225Y-178260114D01*
X62340225Y-178260114D02*
X62625939Y-178117257D01*
X65197367Y-181117257D02*
X65197367Y-178117257D01*
X65197367Y-178117257D02*
X66911653Y-181117257D01*
X66911653Y-181117257D02*
X66911653Y-178117257D01*
X68340224Y-179545828D02*
X69340224Y-179545828D01*
X69768796Y-181117257D02*
X68340224Y-181117257D01*
X68340224Y-181117257D02*
X68340224Y-178117257D01*
X68340224Y-178117257D02*
X69768796Y-178117257D01*
X74768796Y-181117257D02*
X73340224Y-181117257D01*
X73340224Y-181117257D02*
X73340224Y-178117257D01*
X76340224Y-178117257D02*
X76911652Y-178117257D01*
X76911652Y-178117257D02*
X77197367Y-178260114D01*
X77197367Y-178260114D02*
X77483081Y-178545828D01*
X77483081Y-178545828D02*
X77625938Y-179117257D01*
X77625938Y-179117257D02*
X77625938Y-180117257D01*
X77625938Y-180117257D02*
X77483081Y-180688685D01*
X77483081Y-180688685D02*
X77197367Y-180974400D01*
X77197367Y-180974400D02*
X76911652Y-181117257D01*
X76911652Y-181117257D02*
X76340224Y-181117257D01*
X76340224Y-181117257D02*
X76054510Y-180974400D01*
X76054510Y-180974400D02*
X75768795Y-180688685D01*
X75768795Y-180688685D02*
X75625938Y-180117257D01*
X75625938Y-180117257D02*
X75625938Y-179117257D01*
X75625938Y-179117257D02*
X75768795Y-178545828D01*
X75768795Y-178545828D02*
X76054510Y-178260114D01*
X76054510Y-178260114D02*
X76340224Y-178117257D01*
X80625938Y-180831542D02*
X80483081Y-180974400D01*
X80483081Y-180974400D02*
X80054509Y-181117257D01*
X80054509Y-181117257D02*
X79768795Y-181117257D01*
X79768795Y-181117257D02*
X79340224Y-180974400D01*
X79340224Y-180974400D02*
X79054509Y-180688685D01*
X79054509Y-180688685D02*
X78911652Y-180402971D01*
X78911652Y-180402971D02*
X78768795Y-179831542D01*
X78768795Y-179831542D02*
X78768795Y-179402971D01*
X78768795Y-179402971D02*
X78911652Y-178831542D01*
X78911652Y-178831542D02*
X79054509Y-178545828D01*
X79054509Y-178545828D02*
X79340224Y-178260114D01*
X79340224Y-178260114D02*
X79768795Y-178117257D01*
X79768795Y-178117257D02*
X80054509Y-178117257D01*
X80054509Y-178117257D02*
X80483081Y-178260114D01*
X80483081Y-178260114D02*
X80625938Y-178402971D01*
X81911652Y-181117257D02*
X81911652Y-178117257D01*
X83625938Y-181117257D02*
X82340224Y-179402971D01*
X83625938Y-178117257D02*
X81911652Y-179831542D01*
X84911652Y-179545828D02*
X85911652Y-179545828D01*
X86340224Y-181117257D02*
X84911652Y-181117257D01*
X84911652Y-181117257D02*
X84911652Y-178117257D01*
X84911652Y-178117257D02*
X86340224Y-178117257D01*
X89340224Y-181117257D02*
X88340224Y-179688685D01*
X87625938Y-181117257D02*
X87625938Y-178117257D01*
X87625938Y-178117257D02*
X88768795Y-178117257D01*
X88768795Y-178117257D02*
X89054510Y-178260114D01*
X89054510Y-178260114D02*
X89197367Y-178402971D01*
X89197367Y-178402971D02*
X89340224Y-178688685D01*
X89340224Y-178688685D02*
X89340224Y-179117257D01*
X89340224Y-179117257D02*
X89197367Y-179402971D01*
X89197367Y-179402971D02*
X89054510Y-179545828D01*
X89054510Y-179545828D02*
X88768795Y-179688685D01*
X88768795Y-179688685D02*
X87625938Y-179688685D01*
M02*
