%TF.GenerationSoftware,KiCad,Pcbnew,10.0.6*%
%TF.CreationDate,2026-09-15T20:38:41+08:00*%
%TF.ProjectId,blare,626c6172-652e-46b6-9963-61645f706362,rev?*%
%TF.SameCoordinates,Original*%
%TF.FileFunction,Drillmap*%
%TF.FilePolarity,Positive*%
%FSLAX45Y45*%
G04 Gerber Fmt 4.5, Leading zero omitted, Abs format (unit mm)*
G04 Created by KiCad (PCBNEW 10.0.6) date 2026-09-15 20:38:41*
%MOMM*%
%LPD*%
G01*
G04 APERTURE LIST*
%ADD10C,0.050000*%
%ADD11C,0.200000*%
%ADD12C,0.100000*%
%ADD13C,0.150000*%
G04 APERTURE END LIST*
D10*
X2200000Y-12000000D02*
G75*
G02*
X2500000Y-11700000I300000J0D01*
G01*
X2200000Y-18500000D02*
X2200000Y-12000000D01*
X2500000Y-11700000D02*
X11000000Y-11700000D01*
X2500000Y-18800000D02*
G75*
G02*
X2200000Y-18500000I0J300000D01*
G01*
X11000000Y-11700000D02*
G75*
G02*
X11300000Y-12000000I0J-300000D01*
G01*
X11000000Y-18800000D02*
X2500000Y-18800000D01*
X11300000Y-12000000D02*
X11300000Y-18500000D01*
X11300000Y-18500000D02*
G75*
G02*
X11000000Y-18800000I-300000J0D01*
G01*
D11*
D12*
X5185000Y-15085000D02*
X5215000Y-15115000D01*
X5215000Y-15085000D02*
X5185000Y-15115000D01*
X5285000Y-15185000D02*
X5315000Y-15215000D01*
X5315000Y-15185000D02*
X5285000Y-15215000D01*
X5385000Y-15085000D02*
X5415000Y-15115000D01*
X5415000Y-15085000D02*
X5385000Y-15115000D01*
X5445200Y-12924800D02*
X5475200Y-12954800D01*
X5475200Y-12924800D02*
X5445200Y-12954800D01*
X5585000Y-13985000D02*
X5615000Y-14015000D01*
X5615000Y-13985000D02*
X5585000Y-14015000D01*
X5685000Y-13735000D02*
X5715000Y-13765000D01*
X5715000Y-13735000D02*
X5685000Y-13765000D01*
X5685000Y-14085000D02*
X5715000Y-14115000D01*
X5715000Y-14085000D02*
X5685000Y-14115000D01*
X5785000Y-13885000D02*
X5815000Y-13915000D01*
X5815000Y-13885000D02*
X5785000Y-13915000D01*
X5885000Y-13535000D02*
X5915000Y-13565000D01*
X5915000Y-13535000D02*
X5885000Y-13565000D01*
X8590000Y-12800000D02*
G75*
G02*
X8510000Y-12800000I-40000J0D01*
G01*
X8510000Y-12800000D02*
G75*
G02*
X8590000Y-12800000I40000J0D01*
G01*
X8590000Y-13000000D02*
G75*
G02*
X8510000Y-13000000I-40000J0D01*
G01*
X8510000Y-13000000D02*
G75*
G02*
X8590000Y-13000000I40000J0D01*
G01*
X6238000Y-12493550D02*
X6238000Y-12582450D01*
X6193550Y-12538000D02*
X6282450Y-12538000D01*
X6238000Y-12747550D02*
X6238000Y-12836450D01*
X6193550Y-12792000D02*
X6282450Y-12792000D01*
X6238000Y-13001550D02*
X6238000Y-13090450D01*
X6193550Y-13046000D02*
X6282450Y-13046000D01*
X6238000Y-13255550D02*
X6238000Y-13344450D01*
X6193550Y-13300000D02*
X6282450Y-13300000D01*
X6238000Y-13509550D02*
X6238000Y-13598450D01*
X6193550Y-13554000D02*
X6282450Y-13554000D01*
X6238000Y-13763550D02*
X6238000Y-13852450D01*
X6193550Y-13808000D02*
X6282450Y-13808000D01*
X6238000Y-14017550D02*
X6238000Y-14106450D01*
X6193550Y-14062000D02*
X6282450Y-14062000D01*
X7762000Y-12493550D02*
X7762000Y-12582450D01*
X7717550Y-12538000D02*
X7806450Y-12538000D01*
X7762000Y-12747550D02*
X7762000Y-12836450D01*
X7717550Y-12792000D02*
X7806450Y-12792000D01*
X7762000Y-13001550D02*
X7762000Y-13090450D01*
X7717550Y-13046000D02*
X7806450Y-13046000D01*
X7762000Y-13255550D02*
X7762000Y-13344450D01*
X7717550Y-13300000D02*
X7806450Y-13300000D01*
X7762000Y-13509550D02*
X7762000Y-13598450D01*
X7717550Y-13554000D02*
X7806450Y-13554000D01*
X7762000Y-13763550D02*
X7762000Y-13852450D01*
X7717550Y-13808000D02*
X7806450Y-13808000D01*
X7762000Y-14017550D02*
X7762000Y-14106450D01*
X7717550Y-14062000D02*
X7806450Y-14062000D01*
X3707356Y-13735356D02*
X3707356Y-13664644D01*
X3636644Y-13664644D01*
X3636644Y-13735356D01*
X3707356Y-13735356D01*
X3961356Y-13735356D02*
X3961356Y-13664644D01*
X3890644Y-13664644D01*
X3890644Y-13735356D01*
X3961356Y-13735356D01*
X4215356Y-13735356D02*
X4215356Y-13664644D01*
X4144644Y-13664644D01*
X4144644Y-13735356D01*
X4215356Y-13735356D01*
X4469356Y-13735356D02*
X4469356Y-13664644D01*
X4398644Y-13664644D01*
X4398644Y-13735356D01*
X4469356Y-13735356D01*
X4723356Y-13735356D02*
X4723356Y-13664644D01*
X4652644Y-13664644D01*
X4652644Y-13735356D01*
X4723356Y-13735356D01*
X4927356Y-14885356D02*
X4927356Y-14814644D01*
X4856644Y-14814644D01*
X4856644Y-14885356D01*
X4927356Y-14885356D01*
X4977356Y-13735356D02*
X4977356Y-13664644D01*
X4906644Y-13664644D01*
X4906644Y-13735356D01*
X4977356Y-13735356D01*
X5181356Y-14885356D02*
X5181356Y-14814644D01*
X5110644Y-14814644D01*
X5110644Y-14885356D01*
X5181356Y-14885356D01*
X5231356Y-13735356D02*
X5231356Y-13664644D01*
X5160644Y-13664644D01*
X5160644Y-13735356D01*
X5231356Y-13735356D01*
X5435356Y-14885356D02*
X5435356Y-14814644D01*
X5364644Y-14814644D01*
X5364644Y-14885356D01*
X5435356Y-14885356D01*
X5485356Y-13735356D02*
X5485356Y-13664644D01*
X5414644Y-13664644D01*
X5414644Y-13735356D01*
X5485356Y-13735356D01*
X8605356Y-14385356D02*
X8605356Y-14314644D01*
X8534644Y-14314644D01*
X8534644Y-14385356D01*
X8605356Y-14385356D01*
X9365356Y-14385356D02*
X9365356Y-14314644D01*
X9294644Y-14314644D01*
X9294644Y-14385356D01*
X9365356Y-14385356D01*
D13*
X4569000Y-16371000D02*
X4644000Y-16296000D01*
X4569000Y-16221000D01*
X4494000Y-16296000D01*
X4569000Y-16371000D01*
X5204000Y-16117000D02*
X5279000Y-16042000D01*
X5204000Y-15967000D01*
X5129000Y-16042000D01*
X5204000Y-16117000D01*
X6569000Y-16371000D02*
X6644000Y-16296000D01*
X6569000Y-16221000D01*
X6494000Y-16296000D01*
X6569000Y-16371000D01*
X7204000Y-16117000D02*
X7279000Y-16042000D01*
X7204000Y-15967000D01*
X7129000Y-16042000D01*
X7204000Y-16117000D01*
X8569000Y-16371000D02*
X8644000Y-16296000D01*
X8569000Y-16221000D01*
X8494000Y-16296000D01*
X8569000Y-16371000D01*
X9204000Y-16117000D02*
X9279000Y-16042000D01*
X9204000Y-15967000D01*
X9129000Y-16042000D01*
X9204000Y-16117000D01*
D11*
X2458277Y-19113984D02*
X2458277Y-18913984D01*
X2458277Y-18913984D02*
X2505896Y-18913984D01*
X2505896Y-18913984D02*
X2534467Y-18923508D01*
X2534467Y-18923508D02*
X2553515Y-18942555D01*
X2553515Y-18942555D02*
X2563039Y-18961603D01*
X2563039Y-18961603D02*
X2572563Y-18999698D01*
X2572563Y-18999698D02*
X2572563Y-19028270D01*
X2572563Y-19028270D02*
X2563039Y-19066365D01*
X2563039Y-19066365D02*
X2553515Y-19085412D01*
X2553515Y-19085412D02*
X2534467Y-19104460D01*
X2534467Y-19104460D02*
X2505896Y-19113984D01*
X2505896Y-19113984D02*
X2458277Y-19113984D01*
X2658277Y-19113984D02*
X2658277Y-18980650D01*
X2658277Y-19018746D02*
X2667801Y-18999698D01*
X2667801Y-18999698D02*
X2677324Y-18990174D01*
X2677324Y-18990174D02*
X2696372Y-18980650D01*
X2696372Y-18980650D02*
X2715420Y-18980650D01*
X2782086Y-19113984D02*
X2782086Y-18980650D01*
X2782086Y-18913984D02*
X2772563Y-18923508D01*
X2772563Y-18923508D02*
X2782086Y-18933031D01*
X2782086Y-18933031D02*
X2791610Y-18923508D01*
X2791610Y-18923508D02*
X2782086Y-18913984D01*
X2782086Y-18913984D02*
X2782086Y-18933031D01*
X2905896Y-19113984D02*
X2886848Y-19104460D01*
X2886848Y-19104460D02*
X2877324Y-19085412D01*
X2877324Y-19085412D02*
X2877324Y-18913984D01*
X3010658Y-19113984D02*
X2991610Y-19104460D01*
X2991610Y-19104460D02*
X2982086Y-19085412D01*
X2982086Y-19085412D02*
X2982086Y-18913984D01*
X3239229Y-19113984D02*
X3239229Y-18913984D01*
X3239229Y-18913984D02*
X3305896Y-19056841D01*
X3305896Y-19056841D02*
X3372562Y-18913984D01*
X3372562Y-18913984D02*
X3372562Y-19113984D01*
X3553515Y-19113984D02*
X3553515Y-19009222D01*
X3553515Y-19009222D02*
X3543991Y-18990174D01*
X3543991Y-18990174D02*
X3524943Y-18980650D01*
X3524943Y-18980650D02*
X3486848Y-18980650D01*
X3486848Y-18980650D02*
X3467801Y-18990174D01*
X3553515Y-19104460D02*
X3534467Y-19113984D01*
X3534467Y-19113984D02*
X3486848Y-19113984D01*
X3486848Y-19113984D02*
X3467801Y-19104460D01*
X3467801Y-19104460D02*
X3458277Y-19085412D01*
X3458277Y-19085412D02*
X3458277Y-19066365D01*
X3458277Y-19066365D02*
X3467801Y-19047317D01*
X3467801Y-19047317D02*
X3486848Y-19037793D01*
X3486848Y-19037793D02*
X3534467Y-19037793D01*
X3534467Y-19037793D02*
X3553515Y-19028270D01*
X3648753Y-18980650D02*
X3648753Y-19180650D01*
X3648753Y-18990174D02*
X3667801Y-18980650D01*
X3667801Y-18980650D02*
X3705896Y-18980650D01*
X3705896Y-18980650D02*
X3724943Y-18990174D01*
X3724943Y-18990174D02*
X3734467Y-18999698D01*
X3734467Y-18999698D02*
X3743991Y-19018746D01*
X3743991Y-19018746D02*
X3743991Y-19075889D01*
X3743991Y-19075889D02*
X3734467Y-19094936D01*
X3734467Y-19094936D02*
X3724943Y-19104460D01*
X3724943Y-19104460D02*
X3705896Y-19113984D01*
X3705896Y-19113984D02*
X3667801Y-19113984D01*
X3667801Y-19113984D02*
X3648753Y-19104460D01*
X3829705Y-19094936D02*
X3839229Y-19104460D01*
X3839229Y-19104460D02*
X3829705Y-19113984D01*
X3829705Y-19113984D02*
X3820182Y-19104460D01*
X3820182Y-19104460D02*
X3829705Y-19094936D01*
X3829705Y-19094936D02*
X3829705Y-19113984D01*
X3829705Y-18990174D02*
X3839229Y-18999698D01*
X3839229Y-18999698D02*
X3829705Y-19009222D01*
X3829705Y-19009222D02*
X3820182Y-18999698D01*
X3820182Y-18999698D02*
X3829705Y-18990174D01*
X3829705Y-18990174D02*
X3829705Y-19009222D01*
D12*
X2167500Y-19427500D02*
X2197500Y-19457500D01*
X2197500Y-19427500D02*
X2167500Y-19457500D01*
D11*
X2496372Y-19333984D02*
X2515420Y-19333984D01*
X2515420Y-19333984D02*
X2534467Y-19343508D01*
X2534467Y-19343508D02*
X2543991Y-19353031D01*
X2543991Y-19353031D02*
X2553515Y-19372079D01*
X2553515Y-19372079D02*
X2563039Y-19410174D01*
X2563039Y-19410174D02*
X2563039Y-19457793D01*
X2563039Y-19457793D02*
X2553515Y-19495889D01*
X2553515Y-19495889D02*
X2543991Y-19514936D01*
X2543991Y-19514936D02*
X2534467Y-19524460D01*
X2534467Y-19524460D02*
X2515420Y-19533984D01*
X2515420Y-19533984D02*
X2496372Y-19533984D01*
X2496372Y-19533984D02*
X2477324Y-19524460D01*
X2477324Y-19524460D02*
X2467801Y-19514936D01*
X2467801Y-19514936D02*
X2458277Y-19495889D01*
X2458277Y-19495889D02*
X2448753Y-19457793D01*
X2448753Y-19457793D02*
X2448753Y-19410174D01*
X2448753Y-19410174D02*
X2458277Y-19372079D01*
X2458277Y-19372079D02*
X2467801Y-19353031D01*
X2467801Y-19353031D02*
X2477324Y-19343508D01*
X2477324Y-19343508D02*
X2496372Y-19333984D01*
X2648753Y-19514936D02*
X2658277Y-19524460D01*
X2658277Y-19524460D02*
X2648753Y-19533984D01*
X2648753Y-19533984D02*
X2639229Y-19524460D01*
X2639229Y-19524460D02*
X2648753Y-19514936D01*
X2648753Y-19514936D02*
X2648753Y-19533984D01*
X2724944Y-19333984D02*
X2848753Y-19333984D01*
X2848753Y-19333984D02*
X2782086Y-19410174D01*
X2782086Y-19410174D02*
X2810658Y-19410174D01*
X2810658Y-19410174D02*
X2829705Y-19419698D01*
X2829705Y-19419698D02*
X2839229Y-19429222D01*
X2839229Y-19429222D02*
X2848753Y-19448270D01*
X2848753Y-19448270D02*
X2848753Y-19495889D01*
X2848753Y-19495889D02*
X2839229Y-19514936D01*
X2839229Y-19514936D02*
X2829705Y-19524460D01*
X2829705Y-19524460D02*
X2810658Y-19533984D01*
X2810658Y-19533984D02*
X2753515Y-19533984D01*
X2753515Y-19533984D02*
X2734467Y-19524460D01*
X2734467Y-19524460D02*
X2724944Y-19514936D01*
X2972562Y-19333984D02*
X2991610Y-19333984D01*
X2991610Y-19333984D02*
X3010658Y-19343508D01*
X3010658Y-19343508D02*
X3020182Y-19353031D01*
X3020182Y-19353031D02*
X3029705Y-19372079D01*
X3029705Y-19372079D02*
X3039229Y-19410174D01*
X3039229Y-19410174D02*
X3039229Y-19457793D01*
X3039229Y-19457793D02*
X3029705Y-19495889D01*
X3029705Y-19495889D02*
X3020182Y-19514936D01*
X3020182Y-19514936D02*
X3010658Y-19524460D01*
X3010658Y-19524460D02*
X2991610Y-19533984D01*
X2991610Y-19533984D02*
X2972562Y-19533984D01*
X2972562Y-19533984D02*
X2953515Y-19524460D01*
X2953515Y-19524460D02*
X2943991Y-19514936D01*
X2943991Y-19514936D02*
X2934467Y-19495889D01*
X2934467Y-19495889D02*
X2924943Y-19457793D01*
X2924943Y-19457793D02*
X2924943Y-19410174D01*
X2924943Y-19410174D02*
X2934467Y-19372079D01*
X2934467Y-19372079D02*
X2943991Y-19353031D01*
X2943991Y-19353031D02*
X2953515Y-19343508D01*
X2953515Y-19343508D02*
X2972562Y-19333984D01*
X3163039Y-19333984D02*
X3182086Y-19333984D01*
X3182086Y-19333984D02*
X3201134Y-19343508D01*
X3201134Y-19343508D02*
X3210658Y-19353031D01*
X3210658Y-19353031D02*
X3220182Y-19372079D01*
X3220182Y-19372079D02*
X3229705Y-19410174D01*
X3229705Y-19410174D02*
X3229705Y-19457793D01*
X3229705Y-19457793D02*
X3220182Y-19495889D01*
X3220182Y-19495889D02*
X3210658Y-19514936D01*
X3210658Y-19514936D02*
X3201134Y-19524460D01*
X3201134Y-19524460D02*
X3182086Y-19533984D01*
X3182086Y-19533984D02*
X3163039Y-19533984D01*
X3163039Y-19533984D02*
X3143991Y-19524460D01*
X3143991Y-19524460D02*
X3134467Y-19514936D01*
X3134467Y-19514936D02*
X3124943Y-19495889D01*
X3124943Y-19495889D02*
X3115420Y-19457793D01*
X3115420Y-19457793D02*
X3115420Y-19410174D01*
X3115420Y-19410174D02*
X3124943Y-19372079D01*
X3124943Y-19372079D02*
X3134467Y-19353031D01*
X3134467Y-19353031D02*
X3143991Y-19343508D01*
X3143991Y-19343508D02*
X3163039Y-19333984D01*
X3315420Y-19533984D02*
X3315420Y-19400650D01*
X3315420Y-19419698D02*
X3324943Y-19410174D01*
X3324943Y-19410174D02*
X3343991Y-19400650D01*
X3343991Y-19400650D02*
X3372563Y-19400650D01*
X3372563Y-19400650D02*
X3391610Y-19410174D01*
X3391610Y-19410174D02*
X3401134Y-19429222D01*
X3401134Y-19429222D02*
X3401134Y-19533984D01*
X3401134Y-19429222D02*
X3410658Y-19410174D01*
X3410658Y-19410174D02*
X3429705Y-19400650D01*
X3429705Y-19400650D02*
X3458277Y-19400650D01*
X3458277Y-19400650D02*
X3477324Y-19410174D01*
X3477324Y-19410174D02*
X3486848Y-19429222D01*
X3486848Y-19429222D02*
X3486848Y-19533984D01*
X3582086Y-19533984D02*
X3582086Y-19400650D01*
X3582086Y-19419698D02*
X3591610Y-19410174D01*
X3591610Y-19410174D02*
X3610658Y-19400650D01*
X3610658Y-19400650D02*
X3639229Y-19400650D01*
X3639229Y-19400650D02*
X3658277Y-19410174D01*
X3658277Y-19410174D02*
X3667801Y-19429222D01*
X3667801Y-19429222D02*
X3667801Y-19533984D01*
X3667801Y-19429222D02*
X3677324Y-19410174D01*
X3677324Y-19410174D02*
X3696372Y-19400650D01*
X3696372Y-19400650D02*
X3724943Y-19400650D01*
X3724943Y-19400650D02*
X3743991Y-19410174D01*
X3743991Y-19410174D02*
X3753515Y-19429222D01*
X3753515Y-19429222D02*
X3753515Y-19533984D01*
X4143991Y-19324460D02*
X3972563Y-19581603D01*
X4401134Y-19333984D02*
X4420182Y-19333984D01*
X4420182Y-19333984D02*
X4439229Y-19343508D01*
X4439229Y-19343508D02*
X4448753Y-19353031D01*
X4448753Y-19353031D02*
X4458277Y-19372079D01*
X4458277Y-19372079D02*
X4467801Y-19410174D01*
X4467801Y-19410174D02*
X4467801Y-19457793D01*
X4467801Y-19457793D02*
X4458277Y-19495889D01*
X4458277Y-19495889D02*
X4448753Y-19514936D01*
X4448753Y-19514936D02*
X4439229Y-19524460D01*
X4439229Y-19524460D02*
X4420182Y-19533984D01*
X4420182Y-19533984D02*
X4401134Y-19533984D01*
X4401134Y-19533984D02*
X4382087Y-19524460D01*
X4382087Y-19524460D02*
X4372563Y-19514936D01*
X4372563Y-19514936D02*
X4363039Y-19495889D01*
X4363039Y-19495889D02*
X4353515Y-19457793D01*
X4353515Y-19457793D02*
X4353515Y-19410174D01*
X4353515Y-19410174D02*
X4363039Y-19372079D01*
X4363039Y-19372079D02*
X4372563Y-19353031D01*
X4372563Y-19353031D02*
X4382087Y-19343508D01*
X4382087Y-19343508D02*
X4401134Y-19333984D01*
X4553515Y-19514936D02*
X4563039Y-19524460D01*
X4563039Y-19524460D02*
X4553515Y-19533984D01*
X4553515Y-19533984D02*
X4543991Y-19524460D01*
X4543991Y-19524460D02*
X4553515Y-19514936D01*
X4553515Y-19514936D02*
X4553515Y-19533984D01*
X4686848Y-19333984D02*
X4705896Y-19333984D01*
X4705896Y-19333984D02*
X4724944Y-19343508D01*
X4724944Y-19343508D02*
X4734468Y-19353031D01*
X4734468Y-19353031D02*
X4743991Y-19372079D01*
X4743991Y-19372079D02*
X4753515Y-19410174D01*
X4753515Y-19410174D02*
X4753515Y-19457793D01*
X4753515Y-19457793D02*
X4743991Y-19495889D01*
X4743991Y-19495889D02*
X4734468Y-19514936D01*
X4734468Y-19514936D02*
X4724944Y-19524460D01*
X4724944Y-19524460D02*
X4705896Y-19533984D01*
X4705896Y-19533984D02*
X4686848Y-19533984D01*
X4686848Y-19533984D02*
X4667801Y-19524460D01*
X4667801Y-19524460D02*
X4658277Y-19514936D01*
X4658277Y-19514936D02*
X4648753Y-19495889D01*
X4648753Y-19495889D02*
X4639229Y-19457793D01*
X4639229Y-19457793D02*
X4639229Y-19410174D01*
X4639229Y-19410174D02*
X4648753Y-19372079D01*
X4648753Y-19372079D02*
X4658277Y-19353031D01*
X4658277Y-19353031D02*
X4667801Y-19343508D01*
X4667801Y-19343508D02*
X4686848Y-19333984D01*
X4943991Y-19533984D02*
X4829706Y-19533984D01*
X4886848Y-19533984D02*
X4886848Y-19333984D01*
X4886848Y-19333984D02*
X4867801Y-19362555D01*
X4867801Y-19362555D02*
X4848753Y-19381603D01*
X4848753Y-19381603D02*
X4829706Y-19391127D01*
X5134468Y-19533984D02*
X5020182Y-19533984D01*
X5077325Y-19533984D02*
X5077325Y-19333984D01*
X5077325Y-19333984D02*
X5058277Y-19362555D01*
X5058277Y-19362555D02*
X5039229Y-19381603D01*
X5039229Y-19381603D02*
X5020182Y-19391127D01*
X5248753Y-19419698D02*
X5229706Y-19410174D01*
X5229706Y-19410174D02*
X5220182Y-19400650D01*
X5220182Y-19400650D02*
X5210658Y-19381603D01*
X5210658Y-19381603D02*
X5210658Y-19372079D01*
X5210658Y-19372079D02*
X5220182Y-19353031D01*
X5220182Y-19353031D02*
X5229706Y-19343508D01*
X5229706Y-19343508D02*
X5248753Y-19333984D01*
X5248753Y-19333984D02*
X5286849Y-19333984D01*
X5286849Y-19333984D02*
X5305896Y-19343508D01*
X5305896Y-19343508D02*
X5315420Y-19353031D01*
X5315420Y-19353031D02*
X5324944Y-19372079D01*
X5324944Y-19372079D02*
X5324944Y-19381603D01*
X5324944Y-19381603D02*
X5315420Y-19400650D01*
X5315420Y-19400650D02*
X5305896Y-19410174D01*
X5305896Y-19410174D02*
X5286849Y-19419698D01*
X5286849Y-19419698D02*
X5248753Y-19419698D01*
X5248753Y-19419698D02*
X5229706Y-19429222D01*
X5229706Y-19429222D02*
X5220182Y-19438746D01*
X5220182Y-19438746D02*
X5210658Y-19457793D01*
X5210658Y-19457793D02*
X5210658Y-19495889D01*
X5210658Y-19495889D02*
X5220182Y-19514936D01*
X5220182Y-19514936D02*
X5229706Y-19524460D01*
X5229706Y-19524460D02*
X5248753Y-19533984D01*
X5248753Y-19533984D02*
X5286849Y-19533984D01*
X5286849Y-19533984D02*
X5305896Y-19524460D01*
X5305896Y-19524460D02*
X5315420Y-19514936D01*
X5315420Y-19514936D02*
X5324944Y-19495889D01*
X5324944Y-19495889D02*
X5324944Y-19457793D01*
X5324944Y-19457793D02*
X5315420Y-19438746D01*
X5315420Y-19438746D02*
X5305896Y-19429222D01*
X5305896Y-19429222D02*
X5286849Y-19419698D01*
X5401134Y-19333984D02*
X5401134Y-19372079D01*
X5477325Y-19333984D02*
X5477325Y-19372079D01*
X5772563Y-19610174D02*
X5763039Y-19600650D01*
X5763039Y-19600650D02*
X5743991Y-19572079D01*
X5743991Y-19572079D02*
X5734468Y-19553031D01*
X5734468Y-19553031D02*
X5724944Y-19524460D01*
X5724944Y-19524460D02*
X5715420Y-19476841D01*
X5715420Y-19476841D02*
X5715420Y-19438746D01*
X5715420Y-19438746D02*
X5724944Y-19391127D01*
X5724944Y-19391127D02*
X5734468Y-19362555D01*
X5734468Y-19362555D02*
X5743991Y-19343508D01*
X5743991Y-19343508D02*
X5763039Y-19314936D01*
X5763039Y-19314936D02*
X5772563Y-19305412D01*
X5858277Y-19533984D02*
X5896372Y-19533984D01*
X5896372Y-19533984D02*
X5915420Y-19524460D01*
X5915420Y-19524460D02*
X5924944Y-19514936D01*
X5924944Y-19514936D02*
X5943991Y-19486365D01*
X5943991Y-19486365D02*
X5953515Y-19448270D01*
X5953515Y-19448270D02*
X5953515Y-19372079D01*
X5953515Y-19372079D02*
X5943991Y-19353031D01*
X5943991Y-19353031D02*
X5934468Y-19343508D01*
X5934468Y-19343508D02*
X5915420Y-19333984D01*
X5915420Y-19333984D02*
X5877325Y-19333984D01*
X5877325Y-19333984D02*
X5858277Y-19343508D01*
X5858277Y-19343508D02*
X5848753Y-19353031D01*
X5848753Y-19353031D02*
X5839229Y-19372079D01*
X5839229Y-19372079D02*
X5839229Y-19419698D01*
X5839229Y-19419698D02*
X5848753Y-19438746D01*
X5848753Y-19438746D02*
X5858277Y-19448270D01*
X5858277Y-19448270D02*
X5877325Y-19457793D01*
X5877325Y-19457793D02*
X5915420Y-19457793D01*
X5915420Y-19457793D02*
X5934468Y-19448270D01*
X5934468Y-19448270D02*
X5943991Y-19438746D01*
X5943991Y-19438746D02*
X5953515Y-19419698D01*
X6191610Y-19533984D02*
X6191610Y-19333984D01*
X6277325Y-19533984D02*
X6277325Y-19429222D01*
X6277325Y-19429222D02*
X6267801Y-19410174D01*
X6267801Y-19410174D02*
X6248753Y-19400650D01*
X6248753Y-19400650D02*
X6220182Y-19400650D01*
X6220182Y-19400650D02*
X6201134Y-19410174D01*
X6201134Y-19410174D02*
X6191610Y-19419698D01*
X6401134Y-19533984D02*
X6382087Y-19524460D01*
X6382087Y-19524460D02*
X6372563Y-19514936D01*
X6372563Y-19514936D02*
X6363039Y-19495889D01*
X6363039Y-19495889D02*
X6363039Y-19438746D01*
X6363039Y-19438746D02*
X6372563Y-19419698D01*
X6372563Y-19419698D02*
X6382087Y-19410174D01*
X6382087Y-19410174D02*
X6401134Y-19400650D01*
X6401134Y-19400650D02*
X6429706Y-19400650D01*
X6429706Y-19400650D02*
X6448753Y-19410174D01*
X6448753Y-19410174D02*
X6458277Y-19419698D01*
X6458277Y-19419698D02*
X6467801Y-19438746D01*
X6467801Y-19438746D02*
X6467801Y-19495889D01*
X6467801Y-19495889D02*
X6458277Y-19514936D01*
X6458277Y-19514936D02*
X6448753Y-19524460D01*
X6448753Y-19524460D02*
X6429706Y-19533984D01*
X6429706Y-19533984D02*
X6401134Y-19533984D01*
X6582087Y-19533984D02*
X6563039Y-19524460D01*
X6563039Y-19524460D02*
X6553515Y-19505412D01*
X6553515Y-19505412D02*
X6553515Y-19333984D01*
X6734468Y-19524460D02*
X6715420Y-19533984D01*
X6715420Y-19533984D02*
X6677325Y-19533984D01*
X6677325Y-19533984D02*
X6658277Y-19524460D01*
X6658277Y-19524460D02*
X6648753Y-19505412D01*
X6648753Y-19505412D02*
X6648753Y-19429222D01*
X6648753Y-19429222D02*
X6658277Y-19410174D01*
X6658277Y-19410174D02*
X6677325Y-19400650D01*
X6677325Y-19400650D02*
X6715420Y-19400650D01*
X6715420Y-19400650D02*
X6734468Y-19410174D01*
X6734468Y-19410174D02*
X6743991Y-19429222D01*
X6743991Y-19429222D02*
X6743991Y-19448270D01*
X6743991Y-19448270D02*
X6648753Y-19467317D01*
X6820182Y-19524460D02*
X6839230Y-19533984D01*
X6839230Y-19533984D02*
X6877325Y-19533984D01*
X6877325Y-19533984D02*
X6896372Y-19524460D01*
X6896372Y-19524460D02*
X6905896Y-19505412D01*
X6905896Y-19505412D02*
X6905896Y-19495889D01*
X6905896Y-19495889D02*
X6896372Y-19476841D01*
X6896372Y-19476841D02*
X6877325Y-19467317D01*
X6877325Y-19467317D02*
X6848753Y-19467317D01*
X6848753Y-19467317D02*
X6829706Y-19457793D01*
X6829706Y-19457793D02*
X6820182Y-19438746D01*
X6820182Y-19438746D02*
X6820182Y-19429222D01*
X6820182Y-19429222D02*
X6829706Y-19410174D01*
X6829706Y-19410174D02*
X6848753Y-19400650D01*
X6848753Y-19400650D02*
X6877325Y-19400650D01*
X6877325Y-19400650D02*
X6896372Y-19410174D01*
X6972563Y-19610174D02*
X6982087Y-19600650D01*
X6982087Y-19600650D02*
X7001134Y-19572079D01*
X7001134Y-19572079D02*
X7010658Y-19553031D01*
X7010658Y-19553031D02*
X7020182Y-19524460D01*
X7020182Y-19524460D02*
X7029706Y-19476841D01*
X7029706Y-19476841D02*
X7029706Y-19438746D01*
X7029706Y-19438746D02*
X7020182Y-19391127D01*
X7020182Y-19391127D02*
X7010658Y-19362555D01*
X7010658Y-19362555D02*
X7001134Y-19343508D01*
X7001134Y-19343508D02*
X6982087Y-19314936D01*
X6982087Y-19314936D02*
X6972563Y-19305412D01*
D12*
X2197500Y-19706500D02*
G75*
G02*
X2117500Y-19706500I-40000J0D01*
G01*
X2117500Y-19706500D02*
G75*
G02*
X2197500Y-19706500I40000J0D01*
G01*
D11*
X2496372Y-19597984D02*
X2515420Y-19597984D01*
X2515420Y-19597984D02*
X2534467Y-19607508D01*
X2534467Y-19607508D02*
X2543991Y-19617031D01*
X2543991Y-19617031D02*
X2553515Y-19636079D01*
X2553515Y-19636079D02*
X2563039Y-19674174D01*
X2563039Y-19674174D02*
X2563039Y-19721793D01*
X2563039Y-19721793D02*
X2553515Y-19759889D01*
X2553515Y-19759889D02*
X2543991Y-19778936D01*
X2543991Y-19778936D02*
X2534467Y-19788460D01*
X2534467Y-19788460D02*
X2515420Y-19797984D01*
X2515420Y-19797984D02*
X2496372Y-19797984D01*
X2496372Y-19797984D02*
X2477324Y-19788460D01*
X2477324Y-19788460D02*
X2467801Y-19778936D01*
X2467801Y-19778936D02*
X2458277Y-19759889D01*
X2458277Y-19759889D02*
X2448753Y-19721793D01*
X2448753Y-19721793D02*
X2448753Y-19674174D01*
X2448753Y-19674174D02*
X2458277Y-19636079D01*
X2458277Y-19636079D02*
X2467801Y-19617031D01*
X2467801Y-19617031D02*
X2477324Y-19607508D01*
X2477324Y-19607508D02*
X2496372Y-19597984D01*
X2648753Y-19778936D02*
X2658277Y-19788460D01*
X2658277Y-19788460D02*
X2648753Y-19797984D01*
X2648753Y-19797984D02*
X2639229Y-19788460D01*
X2639229Y-19788460D02*
X2648753Y-19778936D01*
X2648753Y-19778936D02*
X2648753Y-19797984D01*
X2772563Y-19683698D02*
X2753515Y-19674174D01*
X2753515Y-19674174D02*
X2743991Y-19664650D01*
X2743991Y-19664650D02*
X2734467Y-19645603D01*
X2734467Y-19645603D02*
X2734467Y-19636079D01*
X2734467Y-19636079D02*
X2743991Y-19617031D01*
X2743991Y-19617031D02*
X2753515Y-19607508D01*
X2753515Y-19607508D02*
X2772563Y-19597984D01*
X2772563Y-19597984D02*
X2810658Y-19597984D01*
X2810658Y-19597984D02*
X2829705Y-19607508D01*
X2829705Y-19607508D02*
X2839229Y-19617031D01*
X2839229Y-19617031D02*
X2848753Y-19636079D01*
X2848753Y-19636079D02*
X2848753Y-19645603D01*
X2848753Y-19645603D02*
X2839229Y-19664650D01*
X2839229Y-19664650D02*
X2829705Y-19674174D01*
X2829705Y-19674174D02*
X2810658Y-19683698D01*
X2810658Y-19683698D02*
X2772563Y-19683698D01*
X2772563Y-19683698D02*
X2753515Y-19693222D01*
X2753515Y-19693222D02*
X2743991Y-19702746D01*
X2743991Y-19702746D02*
X2734467Y-19721793D01*
X2734467Y-19721793D02*
X2734467Y-19759889D01*
X2734467Y-19759889D02*
X2743991Y-19778936D01*
X2743991Y-19778936D02*
X2753515Y-19788460D01*
X2753515Y-19788460D02*
X2772563Y-19797984D01*
X2772563Y-19797984D02*
X2810658Y-19797984D01*
X2810658Y-19797984D02*
X2829705Y-19788460D01*
X2829705Y-19788460D02*
X2839229Y-19778936D01*
X2839229Y-19778936D02*
X2848753Y-19759889D01*
X2848753Y-19759889D02*
X2848753Y-19721793D01*
X2848753Y-19721793D02*
X2839229Y-19702746D01*
X2839229Y-19702746D02*
X2829705Y-19693222D01*
X2829705Y-19693222D02*
X2810658Y-19683698D01*
X2972562Y-19597984D02*
X2991610Y-19597984D01*
X2991610Y-19597984D02*
X3010658Y-19607508D01*
X3010658Y-19607508D02*
X3020182Y-19617031D01*
X3020182Y-19617031D02*
X3029705Y-19636079D01*
X3029705Y-19636079D02*
X3039229Y-19674174D01*
X3039229Y-19674174D02*
X3039229Y-19721793D01*
X3039229Y-19721793D02*
X3029705Y-19759889D01*
X3029705Y-19759889D02*
X3020182Y-19778936D01*
X3020182Y-19778936D02*
X3010658Y-19788460D01*
X3010658Y-19788460D02*
X2991610Y-19797984D01*
X2991610Y-19797984D02*
X2972562Y-19797984D01*
X2972562Y-19797984D02*
X2953515Y-19788460D01*
X2953515Y-19788460D02*
X2943991Y-19778936D01*
X2943991Y-19778936D02*
X2934467Y-19759889D01*
X2934467Y-19759889D02*
X2924943Y-19721793D01*
X2924943Y-19721793D02*
X2924943Y-19674174D01*
X2924943Y-19674174D02*
X2934467Y-19636079D01*
X2934467Y-19636079D02*
X2943991Y-19617031D01*
X2943991Y-19617031D02*
X2953515Y-19607508D01*
X2953515Y-19607508D02*
X2972562Y-19597984D01*
X3163039Y-19597984D02*
X3182086Y-19597984D01*
X3182086Y-19597984D02*
X3201134Y-19607508D01*
X3201134Y-19607508D02*
X3210658Y-19617031D01*
X3210658Y-19617031D02*
X3220182Y-19636079D01*
X3220182Y-19636079D02*
X3229705Y-19674174D01*
X3229705Y-19674174D02*
X3229705Y-19721793D01*
X3229705Y-19721793D02*
X3220182Y-19759889D01*
X3220182Y-19759889D02*
X3210658Y-19778936D01*
X3210658Y-19778936D02*
X3201134Y-19788460D01*
X3201134Y-19788460D02*
X3182086Y-19797984D01*
X3182086Y-19797984D02*
X3163039Y-19797984D01*
X3163039Y-19797984D02*
X3143991Y-19788460D01*
X3143991Y-19788460D02*
X3134467Y-19778936D01*
X3134467Y-19778936D02*
X3124943Y-19759889D01*
X3124943Y-19759889D02*
X3115420Y-19721793D01*
X3115420Y-19721793D02*
X3115420Y-19674174D01*
X3115420Y-19674174D02*
X3124943Y-19636079D01*
X3124943Y-19636079D02*
X3134467Y-19617031D01*
X3134467Y-19617031D02*
X3143991Y-19607508D01*
X3143991Y-19607508D02*
X3163039Y-19597984D01*
X3315420Y-19797984D02*
X3315420Y-19664650D01*
X3315420Y-19683698D02*
X3324943Y-19674174D01*
X3324943Y-19674174D02*
X3343991Y-19664650D01*
X3343991Y-19664650D02*
X3372563Y-19664650D01*
X3372563Y-19664650D02*
X3391610Y-19674174D01*
X3391610Y-19674174D02*
X3401134Y-19693222D01*
X3401134Y-19693222D02*
X3401134Y-19797984D01*
X3401134Y-19693222D02*
X3410658Y-19674174D01*
X3410658Y-19674174D02*
X3429705Y-19664650D01*
X3429705Y-19664650D02*
X3458277Y-19664650D01*
X3458277Y-19664650D02*
X3477324Y-19674174D01*
X3477324Y-19674174D02*
X3486848Y-19693222D01*
X3486848Y-19693222D02*
X3486848Y-19797984D01*
X3582086Y-19797984D02*
X3582086Y-19664650D01*
X3582086Y-19683698D02*
X3591610Y-19674174D01*
X3591610Y-19674174D02*
X3610658Y-19664650D01*
X3610658Y-19664650D02*
X3639229Y-19664650D01*
X3639229Y-19664650D02*
X3658277Y-19674174D01*
X3658277Y-19674174D02*
X3667801Y-19693222D01*
X3667801Y-19693222D02*
X3667801Y-19797984D01*
X3667801Y-19693222D02*
X3677324Y-19674174D01*
X3677324Y-19674174D02*
X3696372Y-19664650D01*
X3696372Y-19664650D02*
X3724943Y-19664650D01*
X3724943Y-19664650D02*
X3743991Y-19674174D01*
X3743991Y-19674174D02*
X3753515Y-19693222D01*
X3753515Y-19693222D02*
X3753515Y-19797984D01*
X4143991Y-19588460D02*
X3972563Y-19845603D01*
X4401134Y-19597984D02*
X4420182Y-19597984D01*
X4420182Y-19597984D02*
X4439229Y-19607508D01*
X4439229Y-19607508D02*
X4448753Y-19617031D01*
X4448753Y-19617031D02*
X4458277Y-19636079D01*
X4458277Y-19636079D02*
X4467801Y-19674174D01*
X4467801Y-19674174D02*
X4467801Y-19721793D01*
X4467801Y-19721793D02*
X4458277Y-19759889D01*
X4458277Y-19759889D02*
X4448753Y-19778936D01*
X4448753Y-19778936D02*
X4439229Y-19788460D01*
X4439229Y-19788460D02*
X4420182Y-19797984D01*
X4420182Y-19797984D02*
X4401134Y-19797984D01*
X4401134Y-19797984D02*
X4382087Y-19788460D01*
X4382087Y-19788460D02*
X4372563Y-19778936D01*
X4372563Y-19778936D02*
X4363039Y-19759889D01*
X4363039Y-19759889D02*
X4353515Y-19721793D01*
X4353515Y-19721793D02*
X4353515Y-19674174D01*
X4353515Y-19674174D02*
X4363039Y-19636079D01*
X4363039Y-19636079D02*
X4372563Y-19617031D01*
X4372563Y-19617031D02*
X4382087Y-19607508D01*
X4382087Y-19607508D02*
X4401134Y-19597984D01*
X4553515Y-19778936D02*
X4563039Y-19788460D01*
X4563039Y-19788460D02*
X4553515Y-19797984D01*
X4553515Y-19797984D02*
X4543991Y-19788460D01*
X4543991Y-19788460D02*
X4553515Y-19778936D01*
X4553515Y-19778936D02*
X4553515Y-19797984D01*
X4686848Y-19597984D02*
X4705896Y-19597984D01*
X4705896Y-19597984D02*
X4724944Y-19607508D01*
X4724944Y-19607508D02*
X4734468Y-19617031D01*
X4734468Y-19617031D02*
X4743991Y-19636079D01*
X4743991Y-19636079D02*
X4753515Y-19674174D01*
X4753515Y-19674174D02*
X4753515Y-19721793D01*
X4753515Y-19721793D02*
X4743991Y-19759889D01*
X4743991Y-19759889D02*
X4734468Y-19778936D01*
X4734468Y-19778936D02*
X4724944Y-19788460D01*
X4724944Y-19788460D02*
X4705896Y-19797984D01*
X4705896Y-19797984D02*
X4686848Y-19797984D01*
X4686848Y-19797984D02*
X4667801Y-19788460D01*
X4667801Y-19788460D02*
X4658277Y-19778936D01*
X4658277Y-19778936D02*
X4648753Y-19759889D01*
X4648753Y-19759889D02*
X4639229Y-19721793D01*
X4639229Y-19721793D02*
X4639229Y-19674174D01*
X4639229Y-19674174D02*
X4648753Y-19636079D01*
X4648753Y-19636079D02*
X4658277Y-19617031D01*
X4658277Y-19617031D02*
X4667801Y-19607508D01*
X4667801Y-19607508D02*
X4686848Y-19597984D01*
X4820182Y-19597984D02*
X4943991Y-19597984D01*
X4943991Y-19597984D02*
X4877325Y-19674174D01*
X4877325Y-19674174D02*
X4905896Y-19674174D01*
X4905896Y-19674174D02*
X4924944Y-19683698D01*
X4924944Y-19683698D02*
X4934468Y-19693222D01*
X4934468Y-19693222D02*
X4943991Y-19712270D01*
X4943991Y-19712270D02*
X4943991Y-19759889D01*
X4943991Y-19759889D02*
X4934468Y-19778936D01*
X4934468Y-19778936D02*
X4924944Y-19788460D01*
X4924944Y-19788460D02*
X4905896Y-19797984D01*
X4905896Y-19797984D02*
X4848753Y-19797984D01*
X4848753Y-19797984D02*
X4829706Y-19788460D01*
X4829706Y-19788460D02*
X4820182Y-19778936D01*
X5134468Y-19797984D02*
X5020182Y-19797984D01*
X5077325Y-19797984D02*
X5077325Y-19597984D01*
X5077325Y-19597984D02*
X5058277Y-19626555D01*
X5058277Y-19626555D02*
X5039229Y-19645603D01*
X5039229Y-19645603D02*
X5020182Y-19655127D01*
X5315420Y-19597984D02*
X5220182Y-19597984D01*
X5220182Y-19597984D02*
X5210658Y-19693222D01*
X5210658Y-19693222D02*
X5220182Y-19683698D01*
X5220182Y-19683698D02*
X5239229Y-19674174D01*
X5239229Y-19674174D02*
X5286849Y-19674174D01*
X5286849Y-19674174D02*
X5305896Y-19683698D01*
X5305896Y-19683698D02*
X5315420Y-19693222D01*
X5315420Y-19693222D02*
X5324944Y-19712270D01*
X5324944Y-19712270D02*
X5324944Y-19759889D01*
X5324944Y-19759889D02*
X5315420Y-19778936D01*
X5315420Y-19778936D02*
X5305896Y-19788460D01*
X5305896Y-19788460D02*
X5286849Y-19797984D01*
X5286849Y-19797984D02*
X5239229Y-19797984D01*
X5239229Y-19797984D02*
X5220182Y-19788460D01*
X5220182Y-19788460D02*
X5210658Y-19778936D01*
X5401134Y-19597984D02*
X5401134Y-19636079D01*
X5477325Y-19597984D02*
X5477325Y-19636079D01*
X5772563Y-19874174D02*
X5763039Y-19864650D01*
X5763039Y-19864650D02*
X5743991Y-19836079D01*
X5743991Y-19836079D02*
X5734468Y-19817031D01*
X5734468Y-19817031D02*
X5724944Y-19788460D01*
X5724944Y-19788460D02*
X5715420Y-19740841D01*
X5715420Y-19740841D02*
X5715420Y-19702746D01*
X5715420Y-19702746D02*
X5724944Y-19655127D01*
X5724944Y-19655127D02*
X5734468Y-19626555D01*
X5734468Y-19626555D02*
X5743991Y-19607508D01*
X5743991Y-19607508D02*
X5763039Y-19578936D01*
X5763039Y-19578936D02*
X5772563Y-19569412D01*
X5839229Y-19617031D02*
X5848753Y-19607508D01*
X5848753Y-19607508D02*
X5867801Y-19597984D01*
X5867801Y-19597984D02*
X5915420Y-19597984D01*
X5915420Y-19597984D02*
X5934468Y-19607508D01*
X5934468Y-19607508D02*
X5943991Y-19617031D01*
X5943991Y-19617031D02*
X5953515Y-19636079D01*
X5953515Y-19636079D02*
X5953515Y-19655127D01*
X5953515Y-19655127D02*
X5943991Y-19683698D01*
X5943991Y-19683698D02*
X5829706Y-19797984D01*
X5829706Y-19797984D02*
X5953515Y-19797984D01*
X6191610Y-19797984D02*
X6191610Y-19597984D01*
X6277325Y-19797984D02*
X6277325Y-19693222D01*
X6277325Y-19693222D02*
X6267801Y-19674174D01*
X6267801Y-19674174D02*
X6248753Y-19664650D01*
X6248753Y-19664650D02*
X6220182Y-19664650D01*
X6220182Y-19664650D02*
X6201134Y-19674174D01*
X6201134Y-19674174D02*
X6191610Y-19683698D01*
X6401134Y-19797984D02*
X6382087Y-19788460D01*
X6382087Y-19788460D02*
X6372563Y-19778936D01*
X6372563Y-19778936D02*
X6363039Y-19759889D01*
X6363039Y-19759889D02*
X6363039Y-19702746D01*
X6363039Y-19702746D02*
X6372563Y-19683698D01*
X6372563Y-19683698D02*
X6382087Y-19674174D01*
X6382087Y-19674174D02*
X6401134Y-19664650D01*
X6401134Y-19664650D02*
X6429706Y-19664650D01*
X6429706Y-19664650D02*
X6448753Y-19674174D01*
X6448753Y-19674174D02*
X6458277Y-19683698D01*
X6458277Y-19683698D02*
X6467801Y-19702746D01*
X6467801Y-19702746D02*
X6467801Y-19759889D01*
X6467801Y-19759889D02*
X6458277Y-19778936D01*
X6458277Y-19778936D02*
X6448753Y-19788460D01*
X6448753Y-19788460D02*
X6429706Y-19797984D01*
X6429706Y-19797984D02*
X6401134Y-19797984D01*
X6582087Y-19797984D02*
X6563039Y-19788460D01*
X6563039Y-19788460D02*
X6553515Y-19769412D01*
X6553515Y-19769412D02*
X6553515Y-19597984D01*
X6734468Y-19788460D02*
X6715420Y-19797984D01*
X6715420Y-19797984D02*
X6677325Y-19797984D01*
X6677325Y-19797984D02*
X6658277Y-19788460D01*
X6658277Y-19788460D02*
X6648753Y-19769412D01*
X6648753Y-19769412D02*
X6648753Y-19693222D01*
X6648753Y-19693222D02*
X6658277Y-19674174D01*
X6658277Y-19674174D02*
X6677325Y-19664650D01*
X6677325Y-19664650D02*
X6715420Y-19664650D01*
X6715420Y-19664650D02*
X6734468Y-19674174D01*
X6734468Y-19674174D02*
X6743991Y-19693222D01*
X6743991Y-19693222D02*
X6743991Y-19712270D01*
X6743991Y-19712270D02*
X6648753Y-19731317D01*
X6820182Y-19788460D02*
X6839230Y-19797984D01*
X6839230Y-19797984D02*
X6877325Y-19797984D01*
X6877325Y-19797984D02*
X6896372Y-19788460D01*
X6896372Y-19788460D02*
X6905896Y-19769412D01*
X6905896Y-19769412D02*
X6905896Y-19759889D01*
X6905896Y-19759889D02*
X6896372Y-19740841D01*
X6896372Y-19740841D02*
X6877325Y-19731317D01*
X6877325Y-19731317D02*
X6848753Y-19731317D01*
X6848753Y-19731317D02*
X6829706Y-19721793D01*
X6829706Y-19721793D02*
X6820182Y-19702746D01*
X6820182Y-19702746D02*
X6820182Y-19693222D01*
X6820182Y-19693222D02*
X6829706Y-19674174D01*
X6829706Y-19674174D02*
X6848753Y-19664650D01*
X6848753Y-19664650D02*
X6877325Y-19664650D01*
X6877325Y-19664650D02*
X6896372Y-19674174D01*
X6972563Y-19874174D02*
X6982087Y-19864650D01*
X6982087Y-19864650D02*
X7001134Y-19836079D01*
X7001134Y-19836079D02*
X7010658Y-19817031D01*
X7010658Y-19817031D02*
X7020182Y-19788460D01*
X7020182Y-19788460D02*
X7029706Y-19740841D01*
X7029706Y-19740841D02*
X7029706Y-19702746D01*
X7029706Y-19702746D02*
X7020182Y-19655127D01*
X7020182Y-19655127D02*
X7010658Y-19626555D01*
X7010658Y-19626555D02*
X7001134Y-19607508D01*
X7001134Y-19607508D02*
X6982087Y-19578936D01*
X6982087Y-19578936D02*
X6972563Y-19569412D01*
D12*
X2153050Y-19926050D02*
X2153050Y-20014950D01*
X2108600Y-19970500D02*
X2197500Y-19970500D01*
D11*
X2496372Y-19861984D02*
X2515420Y-19861984D01*
X2515420Y-19861984D02*
X2534467Y-19871508D01*
X2534467Y-19871508D02*
X2543991Y-19881031D01*
X2543991Y-19881031D02*
X2553515Y-19900079D01*
X2553515Y-19900079D02*
X2563039Y-19938174D01*
X2563039Y-19938174D02*
X2563039Y-19985793D01*
X2563039Y-19985793D02*
X2553515Y-20023889D01*
X2553515Y-20023889D02*
X2543991Y-20042936D01*
X2543991Y-20042936D02*
X2534467Y-20052460D01*
X2534467Y-20052460D02*
X2515420Y-20061984D01*
X2515420Y-20061984D02*
X2496372Y-20061984D01*
X2496372Y-20061984D02*
X2477324Y-20052460D01*
X2477324Y-20052460D02*
X2467801Y-20042936D01*
X2467801Y-20042936D02*
X2458277Y-20023889D01*
X2458277Y-20023889D02*
X2448753Y-19985793D01*
X2448753Y-19985793D02*
X2448753Y-19938174D01*
X2448753Y-19938174D02*
X2458277Y-19900079D01*
X2458277Y-19900079D02*
X2467801Y-19881031D01*
X2467801Y-19881031D02*
X2477324Y-19871508D01*
X2477324Y-19871508D02*
X2496372Y-19861984D01*
X2648753Y-20042936D02*
X2658277Y-20052460D01*
X2658277Y-20052460D02*
X2648753Y-20061984D01*
X2648753Y-20061984D02*
X2639229Y-20052460D01*
X2639229Y-20052460D02*
X2648753Y-20042936D01*
X2648753Y-20042936D02*
X2648753Y-20061984D01*
X2772563Y-19947698D02*
X2753515Y-19938174D01*
X2753515Y-19938174D02*
X2743991Y-19928650D01*
X2743991Y-19928650D02*
X2734467Y-19909603D01*
X2734467Y-19909603D02*
X2734467Y-19900079D01*
X2734467Y-19900079D02*
X2743991Y-19881031D01*
X2743991Y-19881031D02*
X2753515Y-19871508D01*
X2753515Y-19871508D02*
X2772563Y-19861984D01*
X2772563Y-19861984D02*
X2810658Y-19861984D01*
X2810658Y-19861984D02*
X2829705Y-19871508D01*
X2829705Y-19871508D02*
X2839229Y-19881031D01*
X2839229Y-19881031D02*
X2848753Y-19900079D01*
X2848753Y-19900079D02*
X2848753Y-19909603D01*
X2848753Y-19909603D02*
X2839229Y-19928650D01*
X2839229Y-19928650D02*
X2829705Y-19938174D01*
X2829705Y-19938174D02*
X2810658Y-19947698D01*
X2810658Y-19947698D02*
X2772563Y-19947698D01*
X2772563Y-19947698D02*
X2753515Y-19957222D01*
X2753515Y-19957222D02*
X2743991Y-19966746D01*
X2743991Y-19966746D02*
X2734467Y-19985793D01*
X2734467Y-19985793D02*
X2734467Y-20023889D01*
X2734467Y-20023889D02*
X2743991Y-20042936D01*
X2743991Y-20042936D02*
X2753515Y-20052460D01*
X2753515Y-20052460D02*
X2772563Y-20061984D01*
X2772563Y-20061984D02*
X2810658Y-20061984D01*
X2810658Y-20061984D02*
X2829705Y-20052460D01*
X2829705Y-20052460D02*
X2839229Y-20042936D01*
X2839229Y-20042936D02*
X2848753Y-20023889D01*
X2848753Y-20023889D02*
X2848753Y-19985793D01*
X2848753Y-19985793D02*
X2839229Y-19966746D01*
X2839229Y-19966746D02*
X2829705Y-19957222D01*
X2829705Y-19957222D02*
X2810658Y-19947698D01*
X2963039Y-19947698D02*
X2943991Y-19938174D01*
X2943991Y-19938174D02*
X2934467Y-19928650D01*
X2934467Y-19928650D02*
X2924943Y-19909603D01*
X2924943Y-19909603D02*
X2924943Y-19900079D01*
X2924943Y-19900079D02*
X2934467Y-19881031D01*
X2934467Y-19881031D02*
X2943991Y-19871508D01*
X2943991Y-19871508D02*
X2963039Y-19861984D01*
X2963039Y-19861984D02*
X3001134Y-19861984D01*
X3001134Y-19861984D02*
X3020182Y-19871508D01*
X3020182Y-19871508D02*
X3029705Y-19881031D01*
X3029705Y-19881031D02*
X3039229Y-19900079D01*
X3039229Y-19900079D02*
X3039229Y-19909603D01*
X3039229Y-19909603D02*
X3029705Y-19928650D01*
X3029705Y-19928650D02*
X3020182Y-19938174D01*
X3020182Y-19938174D02*
X3001134Y-19947698D01*
X3001134Y-19947698D02*
X2963039Y-19947698D01*
X2963039Y-19947698D02*
X2943991Y-19957222D01*
X2943991Y-19957222D02*
X2934467Y-19966746D01*
X2934467Y-19966746D02*
X2924943Y-19985793D01*
X2924943Y-19985793D02*
X2924943Y-20023889D01*
X2924943Y-20023889D02*
X2934467Y-20042936D01*
X2934467Y-20042936D02*
X2943991Y-20052460D01*
X2943991Y-20052460D02*
X2963039Y-20061984D01*
X2963039Y-20061984D02*
X3001134Y-20061984D01*
X3001134Y-20061984D02*
X3020182Y-20052460D01*
X3020182Y-20052460D02*
X3029705Y-20042936D01*
X3029705Y-20042936D02*
X3039229Y-20023889D01*
X3039229Y-20023889D02*
X3039229Y-19985793D01*
X3039229Y-19985793D02*
X3029705Y-19966746D01*
X3029705Y-19966746D02*
X3020182Y-19957222D01*
X3020182Y-19957222D02*
X3001134Y-19947698D01*
X3134467Y-20061984D02*
X3172562Y-20061984D01*
X3172562Y-20061984D02*
X3191610Y-20052460D01*
X3191610Y-20052460D02*
X3201134Y-20042936D01*
X3201134Y-20042936D02*
X3220182Y-20014365D01*
X3220182Y-20014365D02*
X3229705Y-19976270D01*
X3229705Y-19976270D02*
X3229705Y-19900079D01*
X3229705Y-19900079D02*
X3220182Y-19881031D01*
X3220182Y-19881031D02*
X3210658Y-19871508D01*
X3210658Y-19871508D02*
X3191610Y-19861984D01*
X3191610Y-19861984D02*
X3153515Y-19861984D01*
X3153515Y-19861984D02*
X3134467Y-19871508D01*
X3134467Y-19871508D02*
X3124943Y-19881031D01*
X3124943Y-19881031D02*
X3115420Y-19900079D01*
X3115420Y-19900079D02*
X3115420Y-19947698D01*
X3115420Y-19947698D02*
X3124943Y-19966746D01*
X3124943Y-19966746D02*
X3134467Y-19976270D01*
X3134467Y-19976270D02*
X3153515Y-19985793D01*
X3153515Y-19985793D02*
X3191610Y-19985793D01*
X3191610Y-19985793D02*
X3210658Y-19976270D01*
X3210658Y-19976270D02*
X3220182Y-19966746D01*
X3220182Y-19966746D02*
X3229705Y-19947698D01*
X3315420Y-20061984D02*
X3315420Y-19928650D01*
X3315420Y-19947698D02*
X3324943Y-19938174D01*
X3324943Y-19938174D02*
X3343991Y-19928650D01*
X3343991Y-19928650D02*
X3372563Y-19928650D01*
X3372563Y-19928650D02*
X3391610Y-19938174D01*
X3391610Y-19938174D02*
X3401134Y-19957222D01*
X3401134Y-19957222D02*
X3401134Y-20061984D01*
X3401134Y-19957222D02*
X3410658Y-19938174D01*
X3410658Y-19938174D02*
X3429705Y-19928650D01*
X3429705Y-19928650D02*
X3458277Y-19928650D01*
X3458277Y-19928650D02*
X3477324Y-19938174D01*
X3477324Y-19938174D02*
X3486848Y-19957222D01*
X3486848Y-19957222D02*
X3486848Y-20061984D01*
X3582086Y-20061984D02*
X3582086Y-19928650D01*
X3582086Y-19947698D02*
X3591610Y-19938174D01*
X3591610Y-19938174D02*
X3610658Y-19928650D01*
X3610658Y-19928650D02*
X3639229Y-19928650D01*
X3639229Y-19928650D02*
X3658277Y-19938174D01*
X3658277Y-19938174D02*
X3667801Y-19957222D01*
X3667801Y-19957222D02*
X3667801Y-20061984D01*
X3667801Y-19957222D02*
X3677324Y-19938174D01*
X3677324Y-19938174D02*
X3696372Y-19928650D01*
X3696372Y-19928650D02*
X3724943Y-19928650D01*
X3724943Y-19928650D02*
X3743991Y-19938174D01*
X3743991Y-19938174D02*
X3753515Y-19957222D01*
X3753515Y-19957222D02*
X3753515Y-20061984D01*
X4143991Y-19852460D02*
X3972563Y-20109603D01*
X4401134Y-19861984D02*
X4420182Y-19861984D01*
X4420182Y-19861984D02*
X4439229Y-19871508D01*
X4439229Y-19871508D02*
X4448753Y-19881031D01*
X4448753Y-19881031D02*
X4458277Y-19900079D01*
X4458277Y-19900079D02*
X4467801Y-19938174D01*
X4467801Y-19938174D02*
X4467801Y-19985793D01*
X4467801Y-19985793D02*
X4458277Y-20023889D01*
X4458277Y-20023889D02*
X4448753Y-20042936D01*
X4448753Y-20042936D02*
X4439229Y-20052460D01*
X4439229Y-20052460D02*
X4420182Y-20061984D01*
X4420182Y-20061984D02*
X4401134Y-20061984D01*
X4401134Y-20061984D02*
X4382087Y-20052460D01*
X4382087Y-20052460D02*
X4372563Y-20042936D01*
X4372563Y-20042936D02*
X4363039Y-20023889D01*
X4363039Y-20023889D02*
X4353515Y-19985793D01*
X4353515Y-19985793D02*
X4353515Y-19938174D01*
X4353515Y-19938174D02*
X4363039Y-19900079D01*
X4363039Y-19900079D02*
X4372563Y-19881031D01*
X4372563Y-19881031D02*
X4382087Y-19871508D01*
X4382087Y-19871508D02*
X4401134Y-19861984D01*
X4553515Y-20042936D02*
X4563039Y-20052460D01*
X4563039Y-20052460D02*
X4553515Y-20061984D01*
X4553515Y-20061984D02*
X4543991Y-20052460D01*
X4543991Y-20052460D02*
X4553515Y-20042936D01*
X4553515Y-20042936D02*
X4553515Y-20061984D01*
X4686848Y-19861984D02*
X4705896Y-19861984D01*
X4705896Y-19861984D02*
X4724944Y-19871508D01*
X4724944Y-19871508D02*
X4734468Y-19881031D01*
X4734468Y-19881031D02*
X4743991Y-19900079D01*
X4743991Y-19900079D02*
X4753515Y-19938174D01*
X4753515Y-19938174D02*
X4753515Y-19985793D01*
X4753515Y-19985793D02*
X4743991Y-20023889D01*
X4743991Y-20023889D02*
X4734468Y-20042936D01*
X4734468Y-20042936D02*
X4724944Y-20052460D01*
X4724944Y-20052460D02*
X4705896Y-20061984D01*
X4705896Y-20061984D02*
X4686848Y-20061984D01*
X4686848Y-20061984D02*
X4667801Y-20052460D01*
X4667801Y-20052460D02*
X4658277Y-20042936D01*
X4658277Y-20042936D02*
X4648753Y-20023889D01*
X4648753Y-20023889D02*
X4639229Y-19985793D01*
X4639229Y-19985793D02*
X4639229Y-19938174D01*
X4639229Y-19938174D02*
X4648753Y-19900079D01*
X4648753Y-19900079D02*
X4658277Y-19881031D01*
X4658277Y-19881031D02*
X4667801Y-19871508D01*
X4667801Y-19871508D02*
X4686848Y-19861984D01*
X4820182Y-19861984D02*
X4943991Y-19861984D01*
X4943991Y-19861984D02*
X4877325Y-19938174D01*
X4877325Y-19938174D02*
X4905896Y-19938174D01*
X4905896Y-19938174D02*
X4924944Y-19947698D01*
X4924944Y-19947698D02*
X4934468Y-19957222D01*
X4934468Y-19957222D02*
X4943991Y-19976270D01*
X4943991Y-19976270D02*
X4943991Y-20023889D01*
X4943991Y-20023889D02*
X4934468Y-20042936D01*
X4934468Y-20042936D02*
X4924944Y-20052460D01*
X4924944Y-20052460D02*
X4905896Y-20061984D01*
X4905896Y-20061984D02*
X4848753Y-20061984D01*
X4848753Y-20061984D02*
X4829706Y-20052460D01*
X4829706Y-20052460D02*
X4820182Y-20042936D01*
X5124944Y-19861984D02*
X5029706Y-19861984D01*
X5029706Y-19861984D02*
X5020182Y-19957222D01*
X5020182Y-19957222D02*
X5029706Y-19947698D01*
X5029706Y-19947698D02*
X5048753Y-19938174D01*
X5048753Y-19938174D02*
X5096372Y-19938174D01*
X5096372Y-19938174D02*
X5115420Y-19947698D01*
X5115420Y-19947698D02*
X5124944Y-19957222D01*
X5124944Y-19957222D02*
X5134468Y-19976270D01*
X5134468Y-19976270D02*
X5134468Y-20023889D01*
X5134468Y-20023889D02*
X5124944Y-20042936D01*
X5124944Y-20042936D02*
X5115420Y-20052460D01*
X5115420Y-20052460D02*
X5096372Y-20061984D01*
X5096372Y-20061984D02*
X5048753Y-20061984D01*
X5048753Y-20061984D02*
X5029706Y-20052460D01*
X5029706Y-20052460D02*
X5020182Y-20042936D01*
X5258277Y-19861984D02*
X5277325Y-19861984D01*
X5277325Y-19861984D02*
X5296372Y-19871508D01*
X5296372Y-19871508D02*
X5305896Y-19881031D01*
X5305896Y-19881031D02*
X5315420Y-19900079D01*
X5315420Y-19900079D02*
X5324944Y-19938174D01*
X5324944Y-19938174D02*
X5324944Y-19985793D01*
X5324944Y-19985793D02*
X5315420Y-20023889D01*
X5315420Y-20023889D02*
X5305896Y-20042936D01*
X5305896Y-20042936D02*
X5296372Y-20052460D01*
X5296372Y-20052460D02*
X5277325Y-20061984D01*
X5277325Y-20061984D02*
X5258277Y-20061984D01*
X5258277Y-20061984D02*
X5239229Y-20052460D01*
X5239229Y-20052460D02*
X5229706Y-20042936D01*
X5229706Y-20042936D02*
X5220182Y-20023889D01*
X5220182Y-20023889D02*
X5210658Y-19985793D01*
X5210658Y-19985793D02*
X5210658Y-19938174D01*
X5210658Y-19938174D02*
X5220182Y-19900079D01*
X5220182Y-19900079D02*
X5229706Y-19881031D01*
X5229706Y-19881031D02*
X5239229Y-19871508D01*
X5239229Y-19871508D02*
X5258277Y-19861984D01*
X5401134Y-19861984D02*
X5401134Y-19900079D01*
X5477325Y-19861984D02*
X5477325Y-19900079D01*
X5772563Y-20138174D02*
X5763039Y-20128650D01*
X5763039Y-20128650D02*
X5743991Y-20100079D01*
X5743991Y-20100079D02*
X5734468Y-20081031D01*
X5734468Y-20081031D02*
X5724944Y-20052460D01*
X5724944Y-20052460D02*
X5715420Y-20004841D01*
X5715420Y-20004841D02*
X5715420Y-19966746D01*
X5715420Y-19966746D02*
X5724944Y-19919127D01*
X5724944Y-19919127D02*
X5734468Y-19890555D01*
X5734468Y-19890555D02*
X5743991Y-19871508D01*
X5743991Y-19871508D02*
X5763039Y-19842936D01*
X5763039Y-19842936D02*
X5772563Y-19833412D01*
X5953515Y-20061984D02*
X5839229Y-20061984D01*
X5896372Y-20061984D02*
X5896372Y-19861984D01*
X5896372Y-19861984D02*
X5877325Y-19890555D01*
X5877325Y-19890555D02*
X5858277Y-19909603D01*
X5858277Y-19909603D02*
X5839229Y-19919127D01*
X6124944Y-19928650D02*
X6124944Y-20061984D01*
X6077325Y-19852460D02*
X6029706Y-19995317D01*
X6029706Y-19995317D02*
X6153515Y-19995317D01*
X6382087Y-20061984D02*
X6382087Y-19861984D01*
X6467801Y-20061984D02*
X6467801Y-19957222D01*
X6467801Y-19957222D02*
X6458277Y-19938174D01*
X6458277Y-19938174D02*
X6439230Y-19928650D01*
X6439230Y-19928650D02*
X6410658Y-19928650D01*
X6410658Y-19928650D02*
X6391610Y-19938174D01*
X6391610Y-19938174D02*
X6382087Y-19947698D01*
X6591610Y-20061984D02*
X6572563Y-20052460D01*
X6572563Y-20052460D02*
X6563039Y-20042936D01*
X6563039Y-20042936D02*
X6553515Y-20023889D01*
X6553515Y-20023889D02*
X6553515Y-19966746D01*
X6553515Y-19966746D02*
X6563039Y-19947698D01*
X6563039Y-19947698D02*
X6572563Y-19938174D01*
X6572563Y-19938174D02*
X6591610Y-19928650D01*
X6591610Y-19928650D02*
X6620182Y-19928650D01*
X6620182Y-19928650D02*
X6639230Y-19938174D01*
X6639230Y-19938174D02*
X6648753Y-19947698D01*
X6648753Y-19947698D02*
X6658277Y-19966746D01*
X6658277Y-19966746D02*
X6658277Y-20023889D01*
X6658277Y-20023889D02*
X6648753Y-20042936D01*
X6648753Y-20042936D02*
X6639230Y-20052460D01*
X6639230Y-20052460D02*
X6620182Y-20061984D01*
X6620182Y-20061984D02*
X6591610Y-20061984D01*
X6772563Y-20061984D02*
X6753515Y-20052460D01*
X6753515Y-20052460D02*
X6743991Y-20033412D01*
X6743991Y-20033412D02*
X6743991Y-19861984D01*
X6924944Y-20052460D02*
X6905896Y-20061984D01*
X6905896Y-20061984D02*
X6867801Y-20061984D01*
X6867801Y-20061984D02*
X6848753Y-20052460D01*
X6848753Y-20052460D02*
X6839230Y-20033412D01*
X6839230Y-20033412D02*
X6839230Y-19957222D01*
X6839230Y-19957222D02*
X6848753Y-19938174D01*
X6848753Y-19938174D02*
X6867801Y-19928650D01*
X6867801Y-19928650D02*
X6905896Y-19928650D01*
X6905896Y-19928650D02*
X6924944Y-19938174D01*
X6924944Y-19938174D02*
X6934468Y-19957222D01*
X6934468Y-19957222D02*
X6934468Y-19976270D01*
X6934468Y-19976270D02*
X6839230Y-19995317D01*
X7010658Y-20052460D02*
X7029706Y-20061984D01*
X7029706Y-20061984D02*
X7067801Y-20061984D01*
X7067801Y-20061984D02*
X7086849Y-20052460D01*
X7086849Y-20052460D02*
X7096372Y-20033412D01*
X7096372Y-20033412D02*
X7096372Y-20023889D01*
X7096372Y-20023889D02*
X7086849Y-20004841D01*
X7086849Y-20004841D02*
X7067801Y-19995317D01*
X7067801Y-19995317D02*
X7039230Y-19995317D01*
X7039230Y-19995317D02*
X7020182Y-19985793D01*
X7020182Y-19985793D02*
X7010658Y-19966746D01*
X7010658Y-19966746D02*
X7010658Y-19957222D01*
X7010658Y-19957222D02*
X7020182Y-19938174D01*
X7020182Y-19938174D02*
X7039230Y-19928650D01*
X7039230Y-19928650D02*
X7067801Y-19928650D01*
X7067801Y-19928650D02*
X7086849Y-19938174D01*
X7163039Y-20138174D02*
X7172563Y-20128650D01*
X7172563Y-20128650D02*
X7191611Y-20100079D01*
X7191611Y-20100079D02*
X7201134Y-20081031D01*
X7201134Y-20081031D02*
X7210658Y-20052460D01*
X7210658Y-20052460D02*
X7220182Y-20004841D01*
X7220182Y-20004841D02*
X7220182Y-19966746D01*
X7220182Y-19966746D02*
X7210658Y-19919127D01*
X7210658Y-19919127D02*
X7201134Y-19890555D01*
X7201134Y-19890555D02*
X7191611Y-19871508D01*
X7191611Y-19871508D02*
X7172563Y-19842936D01*
X7172563Y-19842936D02*
X7163039Y-19833412D01*
D12*
X2182856Y-20269856D02*
X2182856Y-20199144D01*
X2112144Y-20199144D01*
X2112144Y-20269856D01*
X2182856Y-20269856D01*
D11*
X2563039Y-20325984D02*
X2448753Y-20325984D01*
X2505896Y-20325984D02*
X2505896Y-20125984D01*
X2505896Y-20125984D02*
X2486848Y-20154555D01*
X2486848Y-20154555D02*
X2467801Y-20173603D01*
X2467801Y-20173603D02*
X2448753Y-20183127D01*
X2648753Y-20306936D02*
X2658277Y-20316460D01*
X2658277Y-20316460D02*
X2648753Y-20325984D01*
X2648753Y-20325984D02*
X2639229Y-20316460D01*
X2639229Y-20316460D02*
X2648753Y-20306936D01*
X2648753Y-20306936D02*
X2648753Y-20325984D01*
X2782086Y-20125984D02*
X2801134Y-20125984D01*
X2801134Y-20125984D02*
X2820182Y-20135508D01*
X2820182Y-20135508D02*
X2829705Y-20145031D01*
X2829705Y-20145031D02*
X2839229Y-20164079D01*
X2839229Y-20164079D02*
X2848753Y-20202174D01*
X2848753Y-20202174D02*
X2848753Y-20249793D01*
X2848753Y-20249793D02*
X2839229Y-20287889D01*
X2839229Y-20287889D02*
X2829705Y-20306936D01*
X2829705Y-20306936D02*
X2820182Y-20316460D01*
X2820182Y-20316460D02*
X2801134Y-20325984D01*
X2801134Y-20325984D02*
X2782086Y-20325984D01*
X2782086Y-20325984D02*
X2763039Y-20316460D01*
X2763039Y-20316460D02*
X2753515Y-20306936D01*
X2753515Y-20306936D02*
X2743991Y-20287889D01*
X2743991Y-20287889D02*
X2734467Y-20249793D01*
X2734467Y-20249793D02*
X2734467Y-20202174D01*
X2734467Y-20202174D02*
X2743991Y-20164079D01*
X2743991Y-20164079D02*
X2753515Y-20145031D01*
X2753515Y-20145031D02*
X2763039Y-20135508D01*
X2763039Y-20135508D02*
X2782086Y-20125984D01*
X2972562Y-20125984D02*
X2991610Y-20125984D01*
X2991610Y-20125984D02*
X3010658Y-20135508D01*
X3010658Y-20135508D02*
X3020182Y-20145031D01*
X3020182Y-20145031D02*
X3029705Y-20164079D01*
X3029705Y-20164079D02*
X3039229Y-20202174D01*
X3039229Y-20202174D02*
X3039229Y-20249793D01*
X3039229Y-20249793D02*
X3029705Y-20287889D01*
X3029705Y-20287889D02*
X3020182Y-20306936D01*
X3020182Y-20306936D02*
X3010658Y-20316460D01*
X3010658Y-20316460D02*
X2991610Y-20325984D01*
X2991610Y-20325984D02*
X2972562Y-20325984D01*
X2972562Y-20325984D02*
X2953515Y-20316460D01*
X2953515Y-20316460D02*
X2943991Y-20306936D01*
X2943991Y-20306936D02*
X2934467Y-20287889D01*
X2934467Y-20287889D02*
X2924943Y-20249793D01*
X2924943Y-20249793D02*
X2924943Y-20202174D01*
X2924943Y-20202174D02*
X2934467Y-20164079D01*
X2934467Y-20164079D02*
X2943991Y-20145031D01*
X2943991Y-20145031D02*
X2953515Y-20135508D01*
X2953515Y-20135508D02*
X2972562Y-20125984D01*
X3163039Y-20125984D02*
X3182086Y-20125984D01*
X3182086Y-20125984D02*
X3201134Y-20135508D01*
X3201134Y-20135508D02*
X3210658Y-20145031D01*
X3210658Y-20145031D02*
X3220182Y-20164079D01*
X3220182Y-20164079D02*
X3229705Y-20202174D01*
X3229705Y-20202174D02*
X3229705Y-20249793D01*
X3229705Y-20249793D02*
X3220182Y-20287889D01*
X3220182Y-20287889D02*
X3210658Y-20306936D01*
X3210658Y-20306936D02*
X3201134Y-20316460D01*
X3201134Y-20316460D02*
X3182086Y-20325984D01*
X3182086Y-20325984D02*
X3163039Y-20325984D01*
X3163039Y-20325984D02*
X3143991Y-20316460D01*
X3143991Y-20316460D02*
X3134467Y-20306936D01*
X3134467Y-20306936D02*
X3124943Y-20287889D01*
X3124943Y-20287889D02*
X3115420Y-20249793D01*
X3115420Y-20249793D02*
X3115420Y-20202174D01*
X3115420Y-20202174D02*
X3124943Y-20164079D01*
X3124943Y-20164079D02*
X3134467Y-20145031D01*
X3134467Y-20145031D02*
X3143991Y-20135508D01*
X3143991Y-20135508D02*
X3163039Y-20125984D01*
X3315420Y-20325984D02*
X3315420Y-20192650D01*
X3315420Y-20211698D02*
X3324943Y-20202174D01*
X3324943Y-20202174D02*
X3343991Y-20192650D01*
X3343991Y-20192650D02*
X3372563Y-20192650D01*
X3372563Y-20192650D02*
X3391610Y-20202174D01*
X3391610Y-20202174D02*
X3401134Y-20221222D01*
X3401134Y-20221222D02*
X3401134Y-20325984D01*
X3401134Y-20221222D02*
X3410658Y-20202174D01*
X3410658Y-20202174D02*
X3429705Y-20192650D01*
X3429705Y-20192650D02*
X3458277Y-20192650D01*
X3458277Y-20192650D02*
X3477324Y-20202174D01*
X3477324Y-20202174D02*
X3486848Y-20221222D01*
X3486848Y-20221222D02*
X3486848Y-20325984D01*
X3582086Y-20325984D02*
X3582086Y-20192650D01*
X3582086Y-20211698D02*
X3591610Y-20202174D01*
X3591610Y-20202174D02*
X3610658Y-20192650D01*
X3610658Y-20192650D02*
X3639229Y-20192650D01*
X3639229Y-20192650D02*
X3658277Y-20202174D01*
X3658277Y-20202174D02*
X3667801Y-20221222D01*
X3667801Y-20221222D02*
X3667801Y-20325984D01*
X3667801Y-20221222D02*
X3677324Y-20202174D01*
X3677324Y-20202174D02*
X3696372Y-20192650D01*
X3696372Y-20192650D02*
X3724943Y-20192650D01*
X3724943Y-20192650D02*
X3743991Y-20202174D01*
X3743991Y-20202174D02*
X3753515Y-20221222D01*
X3753515Y-20221222D02*
X3753515Y-20325984D01*
X4143991Y-20116460D02*
X3972563Y-20373603D01*
X4401134Y-20125984D02*
X4420182Y-20125984D01*
X4420182Y-20125984D02*
X4439229Y-20135508D01*
X4439229Y-20135508D02*
X4448753Y-20145031D01*
X4448753Y-20145031D02*
X4458277Y-20164079D01*
X4458277Y-20164079D02*
X4467801Y-20202174D01*
X4467801Y-20202174D02*
X4467801Y-20249793D01*
X4467801Y-20249793D02*
X4458277Y-20287889D01*
X4458277Y-20287889D02*
X4448753Y-20306936D01*
X4448753Y-20306936D02*
X4439229Y-20316460D01*
X4439229Y-20316460D02*
X4420182Y-20325984D01*
X4420182Y-20325984D02*
X4401134Y-20325984D01*
X4401134Y-20325984D02*
X4382087Y-20316460D01*
X4382087Y-20316460D02*
X4372563Y-20306936D01*
X4372563Y-20306936D02*
X4363039Y-20287889D01*
X4363039Y-20287889D02*
X4353515Y-20249793D01*
X4353515Y-20249793D02*
X4353515Y-20202174D01*
X4353515Y-20202174D02*
X4363039Y-20164079D01*
X4363039Y-20164079D02*
X4372563Y-20145031D01*
X4372563Y-20145031D02*
X4382087Y-20135508D01*
X4382087Y-20135508D02*
X4401134Y-20125984D01*
X4553515Y-20306936D02*
X4563039Y-20316460D01*
X4563039Y-20316460D02*
X4553515Y-20325984D01*
X4553515Y-20325984D02*
X4543991Y-20316460D01*
X4543991Y-20316460D02*
X4553515Y-20306936D01*
X4553515Y-20306936D02*
X4553515Y-20325984D01*
X4686848Y-20125984D02*
X4705896Y-20125984D01*
X4705896Y-20125984D02*
X4724944Y-20135508D01*
X4724944Y-20135508D02*
X4734468Y-20145031D01*
X4734468Y-20145031D02*
X4743991Y-20164079D01*
X4743991Y-20164079D02*
X4753515Y-20202174D01*
X4753515Y-20202174D02*
X4753515Y-20249793D01*
X4753515Y-20249793D02*
X4743991Y-20287889D01*
X4743991Y-20287889D02*
X4734468Y-20306936D01*
X4734468Y-20306936D02*
X4724944Y-20316460D01*
X4724944Y-20316460D02*
X4705896Y-20325984D01*
X4705896Y-20325984D02*
X4686848Y-20325984D01*
X4686848Y-20325984D02*
X4667801Y-20316460D01*
X4667801Y-20316460D02*
X4658277Y-20306936D01*
X4658277Y-20306936D02*
X4648753Y-20287889D01*
X4648753Y-20287889D02*
X4639229Y-20249793D01*
X4639229Y-20249793D02*
X4639229Y-20202174D01*
X4639229Y-20202174D02*
X4648753Y-20164079D01*
X4648753Y-20164079D02*
X4658277Y-20145031D01*
X4658277Y-20145031D02*
X4667801Y-20135508D01*
X4667801Y-20135508D02*
X4686848Y-20125984D01*
X4820182Y-20125984D02*
X4943991Y-20125984D01*
X4943991Y-20125984D02*
X4877325Y-20202174D01*
X4877325Y-20202174D02*
X4905896Y-20202174D01*
X4905896Y-20202174D02*
X4924944Y-20211698D01*
X4924944Y-20211698D02*
X4934468Y-20221222D01*
X4934468Y-20221222D02*
X4943991Y-20240270D01*
X4943991Y-20240270D02*
X4943991Y-20287889D01*
X4943991Y-20287889D02*
X4934468Y-20306936D01*
X4934468Y-20306936D02*
X4924944Y-20316460D01*
X4924944Y-20316460D02*
X4905896Y-20325984D01*
X4905896Y-20325984D02*
X4848753Y-20325984D01*
X4848753Y-20325984D02*
X4829706Y-20316460D01*
X4829706Y-20316460D02*
X4820182Y-20306936D01*
X5039229Y-20325984D02*
X5077325Y-20325984D01*
X5077325Y-20325984D02*
X5096372Y-20316460D01*
X5096372Y-20316460D02*
X5105896Y-20306936D01*
X5105896Y-20306936D02*
X5124944Y-20278365D01*
X5124944Y-20278365D02*
X5134468Y-20240270D01*
X5134468Y-20240270D02*
X5134468Y-20164079D01*
X5134468Y-20164079D02*
X5124944Y-20145031D01*
X5124944Y-20145031D02*
X5115420Y-20135508D01*
X5115420Y-20135508D02*
X5096372Y-20125984D01*
X5096372Y-20125984D02*
X5058277Y-20125984D01*
X5058277Y-20125984D02*
X5039229Y-20135508D01*
X5039229Y-20135508D02*
X5029706Y-20145031D01*
X5029706Y-20145031D02*
X5020182Y-20164079D01*
X5020182Y-20164079D02*
X5020182Y-20211698D01*
X5020182Y-20211698D02*
X5029706Y-20230746D01*
X5029706Y-20230746D02*
X5039229Y-20240270D01*
X5039229Y-20240270D02*
X5058277Y-20249793D01*
X5058277Y-20249793D02*
X5096372Y-20249793D01*
X5096372Y-20249793D02*
X5115420Y-20240270D01*
X5115420Y-20240270D02*
X5124944Y-20230746D01*
X5124944Y-20230746D02*
X5134468Y-20211698D01*
X5305896Y-20192650D02*
X5305896Y-20325984D01*
X5258277Y-20116460D02*
X5210658Y-20259317D01*
X5210658Y-20259317D02*
X5334468Y-20259317D01*
X5401134Y-20125984D02*
X5401134Y-20164079D01*
X5477325Y-20125984D02*
X5477325Y-20164079D01*
X5772563Y-20402174D02*
X5763039Y-20392650D01*
X5763039Y-20392650D02*
X5743991Y-20364079D01*
X5743991Y-20364079D02*
X5734468Y-20345031D01*
X5734468Y-20345031D02*
X5724944Y-20316460D01*
X5724944Y-20316460D02*
X5715420Y-20268841D01*
X5715420Y-20268841D02*
X5715420Y-20230746D01*
X5715420Y-20230746D02*
X5724944Y-20183127D01*
X5724944Y-20183127D02*
X5734468Y-20154555D01*
X5734468Y-20154555D02*
X5743991Y-20135508D01*
X5743991Y-20135508D02*
X5763039Y-20106936D01*
X5763039Y-20106936D02*
X5772563Y-20097412D01*
X5953515Y-20325984D02*
X5839229Y-20325984D01*
X5896372Y-20325984D02*
X5896372Y-20125984D01*
X5896372Y-20125984D02*
X5877325Y-20154555D01*
X5877325Y-20154555D02*
X5858277Y-20173603D01*
X5858277Y-20173603D02*
X5839229Y-20183127D01*
X6020182Y-20125984D02*
X6143991Y-20125984D01*
X6143991Y-20125984D02*
X6077325Y-20202174D01*
X6077325Y-20202174D02*
X6105896Y-20202174D01*
X6105896Y-20202174D02*
X6124944Y-20211698D01*
X6124944Y-20211698D02*
X6134468Y-20221222D01*
X6134468Y-20221222D02*
X6143991Y-20240270D01*
X6143991Y-20240270D02*
X6143991Y-20287889D01*
X6143991Y-20287889D02*
X6134468Y-20306936D01*
X6134468Y-20306936D02*
X6124944Y-20316460D01*
X6124944Y-20316460D02*
X6105896Y-20325984D01*
X6105896Y-20325984D02*
X6048753Y-20325984D01*
X6048753Y-20325984D02*
X6029706Y-20316460D01*
X6029706Y-20316460D02*
X6020182Y-20306936D01*
X6382087Y-20325984D02*
X6382087Y-20125984D01*
X6467801Y-20325984D02*
X6467801Y-20221222D01*
X6467801Y-20221222D02*
X6458277Y-20202174D01*
X6458277Y-20202174D02*
X6439230Y-20192650D01*
X6439230Y-20192650D02*
X6410658Y-20192650D01*
X6410658Y-20192650D02*
X6391610Y-20202174D01*
X6391610Y-20202174D02*
X6382087Y-20211698D01*
X6591610Y-20325984D02*
X6572563Y-20316460D01*
X6572563Y-20316460D02*
X6563039Y-20306936D01*
X6563039Y-20306936D02*
X6553515Y-20287889D01*
X6553515Y-20287889D02*
X6553515Y-20230746D01*
X6553515Y-20230746D02*
X6563039Y-20211698D01*
X6563039Y-20211698D02*
X6572563Y-20202174D01*
X6572563Y-20202174D02*
X6591610Y-20192650D01*
X6591610Y-20192650D02*
X6620182Y-20192650D01*
X6620182Y-20192650D02*
X6639230Y-20202174D01*
X6639230Y-20202174D02*
X6648753Y-20211698D01*
X6648753Y-20211698D02*
X6658277Y-20230746D01*
X6658277Y-20230746D02*
X6658277Y-20287889D01*
X6658277Y-20287889D02*
X6648753Y-20306936D01*
X6648753Y-20306936D02*
X6639230Y-20316460D01*
X6639230Y-20316460D02*
X6620182Y-20325984D01*
X6620182Y-20325984D02*
X6591610Y-20325984D01*
X6772563Y-20325984D02*
X6753515Y-20316460D01*
X6753515Y-20316460D02*
X6743991Y-20297412D01*
X6743991Y-20297412D02*
X6743991Y-20125984D01*
X6924944Y-20316460D02*
X6905896Y-20325984D01*
X6905896Y-20325984D02*
X6867801Y-20325984D01*
X6867801Y-20325984D02*
X6848753Y-20316460D01*
X6848753Y-20316460D02*
X6839230Y-20297412D01*
X6839230Y-20297412D02*
X6839230Y-20221222D01*
X6839230Y-20221222D02*
X6848753Y-20202174D01*
X6848753Y-20202174D02*
X6867801Y-20192650D01*
X6867801Y-20192650D02*
X6905896Y-20192650D01*
X6905896Y-20192650D02*
X6924944Y-20202174D01*
X6924944Y-20202174D02*
X6934468Y-20221222D01*
X6934468Y-20221222D02*
X6934468Y-20240270D01*
X6934468Y-20240270D02*
X6839230Y-20259317D01*
X7010658Y-20316460D02*
X7029706Y-20325984D01*
X7029706Y-20325984D02*
X7067801Y-20325984D01*
X7067801Y-20325984D02*
X7086849Y-20316460D01*
X7086849Y-20316460D02*
X7096372Y-20297412D01*
X7096372Y-20297412D02*
X7096372Y-20287889D01*
X7096372Y-20287889D02*
X7086849Y-20268841D01*
X7086849Y-20268841D02*
X7067801Y-20259317D01*
X7067801Y-20259317D02*
X7039230Y-20259317D01*
X7039230Y-20259317D02*
X7020182Y-20249793D01*
X7020182Y-20249793D02*
X7010658Y-20230746D01*
X7010658Y-20230746D02*
X7010658Y-20221222D01*
X7010658Y-20221222D02*
X7020182Y-20202174D01*
X7020182Y-20202174D02*
X7039230Y-20192650D01*
X7039230Y-20192650D02*
X7067801Y-20192650D01*
X7067801Y-20192650D02*
X7086849Y-20202174D01*
X7163039Y-20402174D02*
X7172563Y-20392650D01*
X7172563Y-20392650D02*
X7191611Y-20364079D01*
X7191611Y-20364079D02*
X7201134Y-20345031D01*
X7201134Y-20345031D02*
X7210658Y-20316460D01*
X7210658Y-20316460D02*
X7220182Y-20268841D01*
X7220182Y-20268841D02*
X7220182Y-20230746D01*
X7220182Y-20230746D02*
X7210658Y-20183127D01*
X7210658Y-20183127D02*
X7201134Y-20154555D01*
X7201134Y-20154555D02*
X7191611Y-20135508D01*
X7191611Y-20135508D02*
X7172563Y-20106936D01*
X7172563Y-20106936D02*
X7163039Y-20097412D01*
D13*
X2122500Y-20573500D02*
X2197500Y-20498500D01*
X2122500Y-20423500D01*
X2047500Y-20498500D01*
X2122500Y-20573500D01*
D11*
X2563039Y-20589984D02*
X2448753Y-20589984D01*
X2505896Y-20589984D02*
X2505896Y-20389984D01*
X2505896Y-20389984D02*
X2486848Y-20418555D01*
X2486848Y-20418555D02*
X2467801Y-20437603D01*
X2467801Y-20437603D02*
X2448753Y-20447127D01*
X2648753Y-20570936D02*
X2658277Y-20580460D01*
X2658277Y-20580460D02*
X2648753Y-20589984D01*
X2648753Y-20589984D02*
X2639229Y-20580460D01*
X2639229Y-20580460D02*
X2648753Y-20570936D01*
X2648753Y-20570936D02*
X2648753Y-20589984D01*
X2839229Y-20389984D02*
X2743991Y-20389984D01*
X2743991Y-20389984D02*
X2734467Y-20485222D01*
X2734467Y-20485222D02*
X2743991Y-20475698D01*
X2743991Y-20475698D02*
X2763039Y-20466174D01*
X2763039Y-20466174D02*
X2810658Y-20466174D01*
X2810658Y-20466174D02*
X2829705Y-20475698D01*
X2829705Y-20475698D02*
X2839229Y-20485222D01*
X2839229Y-20485222D02*
X2848753Y-20504270D01*
X2848753Y-20504270D02*
X2848753Y-20551889D01*
X2848753Y-20551889D02*
X2839229Y-20570936D01*
X2839229Y-20570936D02*
X2829705Y-20580460D01*
X2829705Y-20580460D02*
X2810658Y-20589984D01*
X2810658Y-20589984D02*
X2763039Y-20589984D01*
X2763039Y-20589984D02*
X2743991Y-20580460D01*
X2743991Y-20580460D02*
X2734467Y-20570936D01*
X2972562Y-20389984D02*
X2991610Y-20389984D01*
X2991610Y-20389984D02*
X3010658Y-20399508D01*
X3010658Y-20399508D02*
X3020182Y-20409031D01*
X3020182Y-20409031D02*
X3029705Y-20428079D01*
X3029705Y-20428079D02*
X3039229Y-20466174D01*
X3039229Y-20466174D02*
X3039229Y-20513793D01*
X3039229Y-20513793D02*
X3029705Y-20551889D01*
X3029705Y-20551889D02*
X3020182Y-20570936D01*
X3020182Y-20570936D02*
X3010658Y-20580460D01*
X3010658Y-20580460D02*
X2991610Y-20589984D01*
X2991610Y-20589984D02*
X2972562Y-20589984D01*
X2972562Y-20589984D02*
X2953515Y-20580460D01*
X2953515Y-20580460D02*
X2943991Y-20570936D01*
X2943991Y-20570936D02*
X2934467Y-20551889D01*
X2934467Y-20551889D02*
X2924943Y-20513793D01*
X2924943Y-20513793D02*
X2924943Y-20466174D01*
X2924943Y-20466174D02*
X2934467Y-20428079D01*
X2934467Y-20428079D02*
X2943991Y-20409031D01*
X2943991Y-20409031D02*
X2953515Y-20399508D01*
X2953515Y-20399508D02*
X2972562Y-20389984D01*
X3163039Y-20389984D02*
X3182086Y-20389984D01*
X3182086Y-20389984D02*
X3201134Y-20399508D01*
X3201134Y-20399508D02*
X3210658Y-20409031D01*
X3210658Y-20409031D02*
X3220182Y-20428079D01*
X3220182Y-20428079D02*
X3229705Y-20466174D01*
X3229705Y-20466174D02*
X3229705Y-20513793D01*
X3229705Y-20513793D02*
X3220182Y-20551889D01*
X3220182Y-20551889D02*
X3210658Y-20570936D01*
X3210658Y-20570936D02*
X3201134Y-20580460D01*
X3201134Y-20580460D02*
X3182086Y-20589984D01*
X3182086Y-20589984D02*
X3163039Y-20589984D01*
X3163039Y-20589984D02*
X3143991Y-20580460D01*
X3143991Y-20580460D02*
X3134467Y-20570936D01*
X3134467Y-20570936D02*
X3124943Y-20551889D01*
X3124943Y-20551889D02*
X3115420Y-20513793D01*
X3115420Y-20513793D02*
X3115420Y-20466174D01*
X3115420Y-20466174D02*
X3124943Y-20428079D01*
X3124943Y-20428079D02*
X3134467Y-20409031D01*
X3134467Y-20409031D02*
X3143991Y-20399508D01*
X3143991Y-20399508D02*
X3163039Y-20389984D01*
X3315420Y-20589984D02*
X3315420Y-20456650D01*
X3315420Y-20475698D02*
X3324943Y-20466174D01*
X3324943Y-20466174D02*
X3343991Y-20456650D01*
X3343991Y-20456650D02*
X3372563Y-20456650D01*
X3372563Y-20456650D02*
X3391610Y-20466174D01*
X3391610Y-20466174D02*
X3401134Y-20485222D01*
X3401134Y-20485222D02*
X3401134Y-20589984D01*
X3401134Y-20485222D02*
X3410658Y-20466174D01*
X3410658Y-20466174D02*
X3429705Y-20456650D01*
X3429705Y-20456650D02*
X3458277Y-20456650D01*
X3458277Y-20456650D02*
X3477324Y-20466174D01*
X3477324Y-20466174D02*
X3486848Y-20485222D01*
X3486848Y-20485222D02*
X3486848Y-20589984D01*
X3582086Y-20589984D02*
X3582086Y-20456650D01*
X3582086Y-20475698D02*
X3591610Y-20466174D01*
X3591610Y-20466174D02*
X3610658Y-20456650D01*
X3610658Y-20456650D02*
X3639229Y-20456650D01*
X3639229Y-20456650D02*
X3658277Y-20466174D01*
X3658277Y-20466174D02*
X3667801Y-20485222D01*
X3667801Y-20485222D02*
X3667801Y-20589984D01*
X3667801Y-20485222D02*
X3677324Y-20466174D01*
X3677324Y-20466174D02*
X3696372Y-20456650D01*
X3696372Y-20456650D02*
X3724943Y-20456650D01*
X3724943Y-20456650D02*
X3743991Y-20466174D01*
X3743991Y-20466174D02*
X3753515Y-20485222D01*
X3753515Y-20485222D02*
X3753515Y-20589984D01*
X4143991Y-20380460D02*
X3972563Y-20637603D01*
X4401134Y-20389984D02*
X4420182Y-20389984D01*
X4420182Y-20389984D02*
X4439229Y-20399508D01*
X4439229Y-20399508D02*
X4448753Y-20409031D01*
X4448753Y-20409031D02*
X4458277Y-20428079D01*
X4458277Y-20428079D02*
X4467801Y-20466174D01*
X4467801Y-20466174D02*
X4467801Y-20513793D01*
X4467801Y-20513793D02*
X4458277Y-20551889D01*
X4458277Y-20551889D02*
X4448753Y-20570936D01*
X4448753Y-20570936D02*
X4439229Y-20580460D01*
X4439229Y-20580460D02*
X4420182Y-20589984D01*
X4420182Y-20589984D02*
X4401134Y-20589984D01*
X4401134Y-20589984D02*
X4382087Y-20580460D01*
X4382087Y-20580460D02*
X4372563Y-20570936D01*
X4372563Y-20570936D02*
X4363039Y-20551889D01*
X4363039Y-20551889D02*
X4353515Y-20513793D01*
X4353515Y-20513793D02*
X4353515Y-20466174D01*
X4353515Y-20466174D02*
X4363039Y-20428079D01*
X4363039Y-20428079D02*
X4372563Y-20409031D01*
X4372563Y-20409031D02*
X4382087Y-20399508D01*
X4382087Y-20399508D02*
X4401134Y-20389984D01*
X4553515Y-20570936D02*
X4563039Y-20580460D01*
X4563039Y-20580460D02*
X4553515Y-20589984D01*
X4553515Y-20589984D02*
X4543991Y-20580460D01*
X4543991Y-20580460D02*
X4553515Y-20570936D01*
X4553515Y-20570936D02*
X4553515Y-20589984D01*
X4686848Y-20389984D02*
X4705896Y-20389984D01*
X4705896Y-20389984D02*
X4724944Y-20399508D01*
X4724944Y-20399508D02*
X4734468Y-20409031D01*
X4734468Y-20409031D02*
X4743991Y-20428079D01*
X4743991Y-20428079D02*
X4753515Y-20466174D01*
X4753515Y-20466174D02*
X4753515Y-20513793D01*
X4753515Y-20513793D02*
X4743991Y-20551889D01*
X4743991Y-20551889D02*
X4734468Y-20570936D01*
X4734468Y-20570936D02*
X4724944Y-20580460D01*
X4724944Y-20580460D02*
X4705896Y-20589984D01*
X4705896Y-20589984D02*
X4686848Y-20589984D01*
X4686848Y-20589984D02*
X4667801Y-20580460D01*
X4667801Y-20580460D02*
X4658277Y-20570936D01*
X4658277Y-20570936D02*
X4648753Y-20551889D01*
X4648753Y-20551889D02*
X4639229Y-20513793D01*
X4639229Y-20513793D02*
X4639229Y-20466174D01*
X4639229Y-20466174D02*
X4648753Y-20428079D01*
X4648753Y-20428079D02*
X4658277Y-20409031D01*
X4658277Y-20409031D02*
X4667801Y-20399508D01*
X4667801Y-20399508D02*
X4686848Y-20389984D01*
X4934468Y-20389984D02*
X4839229Y-20389984D01*
X4839229Y-20389984D02*
X4829706Y-20485222D01*
X4829706Y-20485222D02*
X4839229Y-20475698D01*
X4839229Y-20475698D02*
X4858277Y-20466174D01*
X4858277Y-20466174D02*
X4905896Y-20466174D01*
X4905896Y-20466174D02*
X4924944Y-20475698D01*
X4924944Y-20475698D02*
X4934468Y-20485222D01*
X4934468Y-20485222D02*
X4943991Y-20504270D01*
X4943991Y-20504270D02*
X4943991Y-20551889D01*
X4943991Y-20551889D02*
X4934468Y-20570936D01*
X4934468Y-20570936D02*
X4924944Y-20580460D01*
X4924944Y-20580460D02*
X4905896Y-20589984D01*
X4905896Y-20589984D02*
X4858277Y-20589984D01*
X4858277Y-20589984D02*
X4839229Y-20580460D01*
X4839229Y-20580460D02*
X4829706Y-20570936D01*
X5039229Y-20589984D02*
X5077325Y-20589984D01*
X5077325Y-20589984D02*
X5096372Y-20580460D01*
X5096372Y-20580460D02*
X5105896Y-20570936D01*
X5105896Y-20570936D02*
X5124944Y-20542365D01*
X5124944Y-20542365D02*
X5134468Y-20504270D01*
X5134468Y-20504270D02*
X5134468Y-20428079D01*
X5134468Y-20428079D02*
X5124944Y-20409031D01*
X5124944Y-20409031D02*
X5115420Y-20399508D01*
X5115420Y-20399508D02*
X5096372Y-20389984D01*
X5096372Y-20389984D02*
X5058277Y-20389984D01*
X5058277Y-20389984D02*
X5039229Y-20399508D01*
X5039229Y-20399508D02*
X5029706Y-20409031D01*
X5029706Y-20409031D02*
X5020182Y-20428079D01*
X5020182Y-20428079D02*
X5020182Y-20475698D01*
X5020182Y-20475698D02*
X5029706Y-20494746D01*
X5029706Y-20494746D02*
X5039229Y-20504270D01*
X5039229Y-20504270D02*
X5058277Y-20513793D01*
X5058277Y-20513793D02*
X5096372Y-20513793D01*
X5096372Y-20513793D02*
X5115420Y-20504270D01*
X5115420Y-20504270D02*
X5124944Y-20494746D01*
X5124944Y-20494746D02*
X5134468Y-20475698D01*
X5324944Y-20589984D02*
X5210658Y-20589984D01*
X5267801Y-20589984D02*
X5267801Y-20389984D01*
X5267801Y-20389984D02*
X5248753Y-20418555D01*
X5248753Y-20418555D02*
X5229706Y-20437603D01*
X5229706Y-20437603D02*
X5210658Y-20447127D01*
X5401134Y-20389984D02*
X5401134Y-20428079D01*
X5477325Y-20389984D02*
X5477325Y-20428079D01*
X5772563Y-20666174D02*
X5763039Y-20656650D01*
X5763039Y-20656650D02*
X5743991Y-20628079D01*
X5743991Y-20628079D02*
X5734468Y-20609031D01*
X5734468Y-20609031D02*
X5724944Y-20580460D01*
X5724944Y-20580460D02*
X5715420Y-20532841D01*
X5715420Y-20532841D02*
X5715420Y-20494746D01*
X5715420Y-20494746D02*
X5724944Y-20447127D01*
X5724944Y-20447127D02*
X5734468Y-20418555D01*
X5734468Y-20418555D02*
X5743991Y-20399508D01*
X5743991Y-20399508D02*
X5763039Y-20370936D01*
X5763039Y-20370936D02*
X5772563Y-20361412D01*
X5934468Y-20389984D02*
X5896372Y-20389984D01*
X5896372Y-20389984D02*
X5877325Y-20399508D01*
X5877325Y-20399508D02*
X5867801Y-20409031D01*
X5867801Y-20409031D02*
X5848753Y-20437603D01*
X5848753Y-20437603D02*
X5839229Y-20475698D01*
X5839229Y-20475698D02*
X5839229Y-20551889D01*
X5839229Y-20551889D02*
X5848753Y-20570936D01*
X5848753Y-20570936D02*
X5858277Y-20580460D01*
X5858277Y-20580460D02*
X5877325Y-20589984D01*
X5877325Y-20589984D02*
X5915420Y-20589984D01*
X5915420Y-20589984D02*
X5934468Y-20580460D01*
X5934468Y-20580460D02*
X5943991Y-20570936D01*
X5943991Y-20570936D02*
X5953515Y-20551889D01*
X5953515Y-20551889D02*
X5953515Y-20504270D01*
X5953515Y-20504270D02*
X5943991Y-20485222D01*
X5943991Y-20485222D02*
X5934468Y-20475698D01*
X5934468Y-20475698D02*
X5915420Y-20466174D01*
X5915420Y-20466174D02*
X5877325Y-20466174D01*
X5877325Y-20466174D02*
X5858277Y-20475698D01*
X5858277Y-20475698D02*
X5848753Y-20485222D01*
X5848753Y-20485222D02*
X5839229Y-20504270D01*
X6191610Y-20589984D02*
X6191610Y-20389984D01*
X6277325Y-20589984D02*
X6277325Y-20485222D01*
X6277325Y-20485222D02*
X6267801Y-20466174D01*
X6267801Y-20466174D02*
X6248753Y-20456650D01*
X6248753Y-20456650D02*
X6220182Y-20456650D01*
X6220182Y-20456650D02*
X6201134Y-20466174D01*
X6201134Y-20466174D02*
X6191610Y-20475698D01*
X6401134Y-20589984D02*
X6382087Y-20580460D01*
X6382087Y-20580460D02*
X6372563Y-20570936D01*
X6372563Y-20570936D02*
X6363039Y-20551889D01*
X6363039Y-20551889D02*
X6363039Y-20494746D01*
X6363039Y-20494746D02*
X6372563Y-20475698D01*
X6372563Y-20475698D02*
X6382087Y-20466174D01*
X6382087Y-20466174D02*
X6401134Y-20456650D01*
X6401134Y-20456650D02*
X6429706Y-20456650D01*
X6429706Y-20456650D02*
X6448753Y-20466174D01*
X6448753Y-20466174D02*
X6458277Y-20475698D01*
X6458277Y-20475698D02*
X6467801Y-20494746D01*
X6467801Y-20494746D02*
X6467801Y-20551889D01*
X6467801Y-20551889D02*
X6458277Y-20570936D01*
X6458277Y-20570936D02*
X6448753Y-20580460D01*
X6448753Y-20580460D02*
X6429706Y-20589984D01*
X6429706Y-20589984D02*
X6401134Y-20589984D01*
X6582087Y-20589984D02*
X6563039Y-20580460D01*
X6563039Y-20580460D02*
X6553515Y-20561412D01*
X6553515Y-20561412D02*
X6553515Y-20389984D01*
X6734468Y-20580460D02*
X6715420Y-20589984D01*
X6715420Y-20589984D02*
X6677325Y-20589984D01*
X6677325Y-20589984D02*
X6658277Y-20580460D01*
X6658277Y-20580460D02*
X6648753Y-20561412D01*
X6648753Y-20561412D02*
X6648753Y-20485222D01*
X6648753Y-20485222D02*
X6658277Y-20466174D01*
X6658277Y-20466174D02*
X6677325Y-20456650D01*
X6677325Y-20456650D02*
X6715420Y-20456650D01*
X6715420Y-20456650D02*
X6734468Y-20466174D01*
X6734468Y-20466174D02*
X6743991Y-20485222D01*
X6743991Y-20485222D02*
X6743991Y-20504270D01*
X6743991Y-20504270D02*
X6648753Y-20523317D01*
X6820182Y-20580460D02*
X6839230Y-20589984D01*
X6839230Y-20589984D02*
X6877325Y-20589984D01*
X6877325Y-20589984D02*
X6896372Y-20580460D01*
X6896372Y-20580460D02*
X6905896Y-20561412D01*
X6905896Y-20561412D02*
X6905896Y-20551889D01*
X6905896Y-20551889D02*
X6896372Y-20532841D01*
X6896372Y-20532841D02*
X6877325Y-20523317D01*
X6877325Y-20523317D02*
X6848753Y-20523317D01*
X6848753Y-20523317D02*
X6829706Y-20513793D01*
X6829706Y-20513793D02*
X6820182Y-20494746D01*
X6820182Y-20494746D02*
X6820182Y-20485222D01*
X6820182Y-20485222D02*
X6829706Y-20466174D01*
X6829706Y-20466174D02*
X6848753Y-20456650D01*
X6848753Y-20456650D02*
X6877325Y-20456650D01*
X6877325Y-20456650D02*
X6896372Y-20466174D01*
X6972563Y-20666174D02*
X6982087Y-20656650D01*
X6982087Y-20656650D02*
X7001134Y-20628079D01*
X7001134Y-20628079D02*
X7010658Y-20609031D01*
X7010658Y-20609031D02*
X7020182Y-20580460D01*
X7020182Y-20580460D02*
X7029706Y-20532841D01*
X7029706Y-20532841D02*
X7029706Y-20494746D01*
X7029706Y-20494746D02*
X7020182Y-20447127D01*
X7020182Y-20447127D02*
X7010658Y-20418555D01*
X7010658Y-20418555D02*
X7001134Y-20399508D01*
X7001134Y-20399508D02*
X6982087Y-20370936D01*
X6982087Y-20370936D02*
X6972563Y-20361412D01*
M02*
