M48
; DRILL file KiCad 10.0.6 date 2026-09-15T20:38:41
; FORMAT={-:-/ absolute / metric / decimal}
; #@! TF.CreationDate,2026-09-15T20:38:41+08:00
; #@! TF.GenerationSoftware,Kicad,Pcbnew,10.0.6
; #@! TF.FileFunction,Plated,1,2,PTH
FMAT,2
METRIC
; #@! TA.AperFunction,Plated,PTH,ViaDrill
T1C0.300
; #@! TA.AperFunction,Plated,PTH,ComponentDrill
T2C0.800
; #@! TA.AperFunction,Plated,PTH,ComponentDrill
T3C0.889
; #@! TA.AperFunction,Plated,PTH,ComponentDrill
T4C1.000
; #@! TA.AperFunction,Plated,PTH,ComponentDrill
T5C1.500
%
G90
G05
T1
X52.0Y-151.0
X53.0Y-152.0
X54.0Y-151.0
X54.602Y-129.398
X56.0Y-140.0
X57.0Y-137.5
X57.0Y-141.0
X58.0Y-139.0
X59.0Y-135.5
T2
X85.5Y-128.0
X85.5Y-130.0
T3
X62.38Y-125.38
X62.38Y-127.92
X62.38Y-130.46
X62.38Y-133.0
X62.38Y-135.54
X62.38Y-138.08
X62.38Y-140.62
X77.62Y-125.38
X77.62Y-127.92
X77.62Y-130.46
X77.62Y-133.0
X77.62Y-135.54
X77.62Y-138.08
X77.62Y-140.62
T4
X36.72Y-137.0
X39.26Y-137.0
X41.8Y-137.0
X44.34Y-137.0
X46.88Y-137.0
X48.92Y-148.5
X49.42Y-137.0
X51.46Y-148.5
X51.96Y-137.0
X54.0Y-148.5
X54.5Y-137.0
X85.7Y-143.5
X93.3Y-143.5
T5
X45.69Y-162.96
X52.04Y-160.42
X65.69Y-162.96
X72.04Y-160.42
X85.69Y-162.96
X92.04Y-160.42
M30
