%TF.GenerationSoftware,KiCad,Pcbnew,10.0.6*%
%TF.CreationDate,2026-09-15T20:38:36+08:00*%
%TF.ProjectId,blare,626c6172-652e-46b6-9963-61645f706362,rev?*%
%TF.SameCoordinates,Original*%
%TF.FileFunction,Copper,L1,Top*%
%TF.FilePolarity,Positive*%
%FSLAX46Y46*%
G04 Gerber Fmt 4.6, Leading zero omitted, Abs format (unit mm)*
G04 Created by KiCad (PCBNEW 10.0.6) date 2026-09-15 20:38:36*
%MOMM*%
%LPD*%
G01*
G04 APERTURE LIST*
G04 Aperture macros list*
%AMRoundRect*
0 Rectangle with rounded corners*
0 $1 Rounding radius*
0 $2 $3 $4 $5 $6 $7 $8 $9 X,Y pos of 4 corners*
0 Add a 4 corners polygon primitive as box body*
4,1,4,$2,$3,$4,$5,$6,$7,$8,$9,$2,$3,0*
0 Add four circle primitives for the rounded corners*
1,1,$1+$1,$2,$3*
1,1,$1+$1,$4,$5*
1,1,$1+$1,$6,$7*
1,1,$1+$1,$8,$9*
0 Add four rect primitives between the rounded corners*
20,1,$1+$1,$2,$3,$4,$5,0*
20,1,$1+$1,$4,$5,$6,$7,0*
20,1,$1+$1,$6,$7,$8,$9,0*
20,1,$1+$1,$8,$9,$2,$3,0*%
G04 Aperture macros list end*
%TA.AperFunction,ComponentPad*%
%ADD10C,2.200000*%
%TD*%
%TA.AperFunction,ComponentPad*%
%ADD11RoundRect,0.250000X0.550000X-0.550000X0.550000X0.550000X-0.550000X0.550000X-0.550000X-0.550000X0*%
%TD*%
%TA.AperFunction,ComponentPad*%
%ADD12C,1.600000*%
%TD*%
%TA.AperFunction,ComponentPad*%
%ADD13R,1.700000X1.700000*%
%TD*%
%TA.AperFunction,ComponentPad*%
%ADD14C,1.700000*%
%TD*%
%TA.AperFunction,SMDPad,CuDef*%
%ADD15RoundRect,0.152400X1.063600X0.609600X-1.063600X0.609600X-1.063600X-0.609600X1.063600X-0.609600X0*%
%TD*%
%TA.AperFunction,ComponentPad*%
%ADD16C,1.524000*%
%TD*%
%TA.AperFunction,SMDPad,CuDef*%
%ADD17RoundRect,0.152400X-1.063600X-0.609600X1.063600X-0.609600X1.063600X0.609600X-1.063600X0.609600X0*%
%TD*%
%TA.AperFunction,ComponentPad*%
%ADD18R,2.000000X2.000000*%
%TD*%
%TA.AperFunction,ComponentPad*%
%ADD19C,2.000000*%
%TD*%
%TA.AperFunction,ViaPad*%
%ADD20C,0.900000*%
%TD*%
%TA.AperFunction,ViaPad*%
%ADD21C,0.600000*%
%TD*%
%TA.AperFunction,Conductor*%
%ADD22C,0.500000*%
%TD*%
%TA.AperFunction,Conductor*%
%ADD23C,0.200000*%
%TD*%
G04 APERTURE END LIST*
D10*
%TO.P,SW4,1,1_1*%
%TO.N,GND*%
X92040000Y-160420000D03*
%TO.P,SW4,2,2_2*%
%TO.N,Net-(U1-D0)*%
X85690000Y-162960000D03*
%TD*%
D11*
%TO.P,C1,1*%
%TO.N,+3.3V*%
X85500000Y-130000000D03*
D12*
%TO.P,C1,2*%
%TO.N,GND*%
X85500000Y-128000000D03*
%TD*%
D13*
%TO.P,M1,1,PWM_1*%
%TO.N,Net-(M1-PWM)*%
X48920000Y-148500000D03*
D14*
%TO.P,M1,2,+_2*%
%TO.N,+3.3V*%
X51460000Y-148500000D03*
%TO.P,M1,3,-_3*%
%TO.N,GND*%
X54000000Y-148500000D03*
%TD*%
D10*
%TO.P,SW3,1,1_1*%
%TO.N,GND*%
X72040000Y-160420000D03*
%TO.P,SW3,2,2_2*%
%TO.N,Net-(U1-D1)*%
X65690000Y-162960000D03*
%TD*%
D15*
%TO.P,U1,1,D0_1*%
%TO.N,Net-(U1-D0)*%
X61545000Y-125380000D03*
D16*
X62380000Y-125380000D03*
D15*
%TO.P,U1,2,D1_2*%
%TO.N,Net-(U1-D1)*%
X61545000Y-127920000D03*
D16*
X62380000Y-127920000D03*
D15*
%TO.P,U1,3,D2_3*%
%TO.N,Net-(U1-D2)*%
X61545000Y-130460000D03*
D16*
X62380000Y-130460000D03*
D15*
%TO.P,U1,4,D3_4*%
%TO.N,Net-(M1-PWM)*%
X61545000Y-133000000D03*
D16*
X62380000Y-133000000D03*
D15*
%TO.P,U1,5,D4_5*%
%TO.N,/DC*%
X61545000Y-135540000D03*
D16*
X62380000Y-135540000D03*
D15*
%TO.P,U1,6,D5_6*%
%TO.N,/CS*%
X61545000Y-138080000D03*
D16*
X62380000Y-138080000D03*
D15*
%TO.P,U1,7,D6_7*%
%TO.N,/BL*%
X61545000Y-140620000D03*
D16*
X62380000Y-140620000D03*
%TO.P,U1,8,D7_8*%
%TO.N,Net-(BZ1-+)*%
X77620000Y-140620000D03*
D17*
X78455000Y-140620000D03*
D16*
%TO.P,U1,9,D8_9*%
%TO.N,/RST*%
X77620000Y-138080000D03*
D17*
X78455000Y-138080000D03*
D16*
%TO.P,U1,10,D9/BOOT_10*%
%TO.N,/SCL*%
X77620000Y-135540000D03*
D17*
X78455000Y-135540000D03*
D16*
%TO.P,U1,11,D10_11*%
%TO.N,/SDA*%
X77620000Y-133000000D03*
D17*
X78455000Y-133000000D03*
D16*
%TO.P,U1,12,3V3_OUT_12*%
%TO.N,+3.3V*%
X77620000Y-130460000D03*
D17*
X78455000Y-130460000D03*
D16*
%TO.P,U1,13,GND_13*%
%TO.N,GND*%
X77620000Y-127920000D03*
D17*
X78455000Y-127920000D03*
D16*
%TO.P,U1,14,VBUS_14*%
%TO.N,unconnected-(U1-VBUS-Pad14)*%
X77620000Y-125380000D03*
D17*
%TO.N,unconnected-(U1-VBUS-Pad14)_1*%
X78455000Y-125380000D03*
%TD*%
D18*
%TO.P,BZ1,1,+_1*%
%TO.N,Net-(BZ1-+)*%
X85700000Y-143500000D03*
D19*
%TO.P,BZ1,2,-_2*%
%TO.N,GND*%
X93300000Y-143500000D03*
%TD*%
D13*
%TO.P,J1,1,Pin_1_1*%
%TO.N,GND*%
X54500000Y-137000000D03*
D14*
%TO.P,J1,2,Pin_2_2*%
%TO.N,+3.3V*%
X51960000Y-137000000D03*
%TO.P,J1,3,Pin_3_3*%
%TO.N,/SCL*%
X49420000Y-137000000D03*
%TO.P,J1,4,Pin_4_4*%
%TO.N,/SDA*%
X46880000Y-137000000D03*
%TO.P,J1,5,Pin_5_5*%
%TO.N,/RST*%
X44340000Y-137000000D03*
%TO.P,J1,6,Pin_6_6*%
%TO.N,/DC*%
X41800000Y-137000000D03*
%TO.P,J1,7,Pin_7_7*%
%TO.N,/CS*%
X39260000Y-137000000D03*
%TO.P,J1,8,Pin_8_8*%
%TO.N,/BL*%
X36720000Y-137000000D03*
%TD*%
D10*
%TO.P,SW2,1,1_1*%
%TO.N,GND*%
X52040000Y-160420000D03*
%TO.P,SW2,2,2_2*%
%TO.N,Net-(U1-D2)*%
X45690000Y-162960000D03*
%TD*%
D20*
%TO.N,GND*%
X53000000Y-152000000D03*
D21*
%TO.N,/DC*%
X57000000Y-137500000D03*
X56000000Y-140000000D03*
%TO.N,/CS*%
X57000000Y-141000000D03*
X58000000Y-139000000D03*
D20*
%TO.N,+3.3V*%
X54602000Y-129398000D03*
D21*
%TO.N,Net-(M1-PWM)*%
X54000000Y-151000000D03*
X52000000Y-151000000D03*
X59000000Y-135500000D03*
%TD*%
%TO.N,GND*%
D22*
X54000000Y-148500000D02*
X54000000Y-147500000D01*
X54500000Y-147000000D02*
X54500000Y-137000000D01*
X54000000Y-147500000D02*
X54500000Y-147000000D01*
X53000000Y-149500000D02*
X54000000Y-148500000D01*
X53000000Y-152000000D02*
X53000000Y-149500000D01*
%TO.N,Net-(U1-D2)*%
D23*
X60029000Y-148621000D02*
X60029000Y-131733370D01*
X61302370Y-130460000D02*
X62380000Y-130460000D01*
X60029000Y-131733370D02*
X61302370Y-130460000D01*
X45690000Y-162960000D02*
X60029000Y-148621000D01*
%TO.N,Net-(U1-D0)*%
X85690000Y-162960000D02*
X67500000Y-144770000D01*
X67500000Y-125500000D02*
X66500000Y-125500000D01*
X67500000Y-144770000D02*
X67500000Y-125500000D01*
X66500000Y-125500000D02*
X66380000Y-125380000D01*
X66380000Y-125380000D02*
X62380000Y-125380000D01*
%TO.N,Net-(U1-D1)*%
X65690000Y-131230000D02*
X62380000Y-127920000D01*
X65690000Y-162960000D02*
X65690000Y-131230000D01*
%TO.N,/DC*%
X57000000Y-139000000D02*
X57000000Y-137500000D01*
X56000000Y-140000000D02*
X57000000Y-139000000D01*
%TO.N,/CS*%
X57000000Y-141000000D02*
X58000000Y-140000000D01*
X58000000Y-140000000D02*
X58000000Y-139000000D01*
%TO.N,Net-(BZ1-+)*%
X85700000Y-143500000D02*
X80500000Y-143500000D01*
X80500000Y-143500000D02*
X77620000Y-140620000D01*
%TO.N,+3.3V*%
D22*
X51960000Y-137960000D02*
X51460000Y-138460000D01*
X54602000Y-134358000D02*
X51960000Y-137000000D01*
X51460000Y-138460000D02*
X51460000Y-148500000D01*
X51960000Y-137000000D02*
X51960000Y-137960000D01*
X54602000Y-129398000D02*
X54602000Y-134358000D01*
%TO.N,Net-(M1-PWM)*%
D23*
X50000000Y-151000000D02*
X52000000Y-151000000D01*
X48920000Y-148500000D02*
X50000000Y-149580000D01*
X59000000Y-146000000D02*
X59000000Y-135500000D01*
X50000000Y-149580000D02*
X50000000Y-151000000D01*
X54000000Y-151000000D02*
X59000000Y-146000000D01*
%TD*%
M02*
