%TF.GenerationSoftware,KiCad,Pcbnew,10.0.6*%
%TF.CreationDate,2026-09-15T20:38:41+08:00*%
%TF.ProjectId,blare,626c6172-652e-46b6-9963-61645f706362,rev?*%
%TF.SameCoordinates,Original*%
%TF.FileFunction,Drillmap*%
%TF.FilePolarity,Positive*%
%FSLAX45Y45*%
G04 Gerber Fmt 4.5, Leading zero omitted, Abs format (unit mm)*
G04 Created by KiCad (PCBNEW 10.0.6) date 2026-09-15 20:38:41*
%MOMM*%
%LPD*%
G01*
G04 APERTURE LIST*
%ADD10C,0.050000*%
%ADD11C,0.200000*%
%ADD12C,0.170000*%
%ADD13C,0.320000*%
%ADD14C,0.400000*%
G04 APERTURE END LIST*
D10*
X2200000Y-12000000D02*
G75*
G02*
X2500000Y-11700000I300000J0D01*
G01*
X2200000Y-18500000D02*
X2200000Y-12000000D01*
X2500000Y-11700000D02*
X11000000Y-11700000D01*
X2500000Y-18800000D02*
G75*
G02*
X2200000Y-18500000I0J300000D01*
G01*
X11000000Y-11700000D02*
G75*
G02*
X11300000Y-12000000I0J-300000D01*
G01*
X11000000Y-18800000D02*
X2500000Y-18800000D01*
X11300000Y-12000000D02*
X11300000Y-18500000D01*
X11300000Y-18500000D02*
G75*
G02*
X11000000Y-18800000I-300000J0D01*
G01*
D11*
D12*
X4357000Y-16465000D02*
X4527000Y-16635000D01*
X4527000Y-16465000D02*
X4357000Y-16635000D01*
X5373000Y-16465000D02*
X5543000Y-16635000D01*
X5543000Y-16465000D02*
X5373000Y-16635000D01*
X6357000Y-16465000D02*
X6527000Y-16635000D01*
X6527000Y-16465000D02*
X6357000Y-16635000D01*
X7373000Y-16465000D02*
X7543000Y-16635000D01*
X7543000Y-16465000D02*
X7373000Y-16635000D01*
X8357000Y-16465000D02*
X8527000Y-16635000D01*
X8527000Y-16465000D02*
X8357000Y-16635000D01*
X9373000Y-16465000D02*
X9543000Y-16635000D01*
X9543000Y-16465000D02*
X9373000Y-16635000D01*
D13*
X3160000Y-12500000D02*
G75*
G02*
X2840000Y-12500000I-160000J0D01*
G01*
X2840000Y-12500000D02*
G75*
G02*
X3160000Y-12500000I160000J0D01*
G01*
X3160000Y-18000000D02*
G75*
G02*
X2840000Y-18000000I-160000J0D01*
G01*
X2840000Y-18000000D02*
G75*
G02*
X3160000Y-18000000I160000J0D01*
G01*
X10660000Y-18000000D02*
G75*
G02*
X10340000Y-18000000I-160000J0D01*
G01*
X10340000Y-18000000D02*
G75*
G02*
X10660000Y-18000000I160000J0D01*
G01*
X10710000Y-12500000D02*
G75*
G02*
X10390000Y-12500000I-160000J0D01*
G01*
X10390000Y-12500000D02*
G75*
G02*
X10710000Y-12500000I160000J0D01*
G01*
D14*
X4950000Y-16350000D02*
X4950000Y-16750000D01*
X4750000Y-16550000D02*
X5150000Y-16550000D01*
X6950000Y-16350000D02*
X6950000Y-16750000D01*
X6750000Y-16550000D02*
X7150000Y-16550000D01*
X8950000Y-16350000D02*
X8950000Y-16750000D01*
X8750000Y-16550000D02*
X9150000Y-16550000D01*
D11*
X2458277Y-19113984D02*
X2458277Y-18913984D01*
X2458277Y-18913984D02*
X2505896Y-18913984D01*
X2505896Y-18913984D02*
X2534467Y-18923508D01*
X2534467Y-18923508D02*
X2553515Y-18942555D01*
X2553515Y-18942555D02*
X2563039Y-18961603D01*
X2563039Y-18961603D02*
X2572563Y-18999698D01*
X2572563Y-18999698D02*
X2572563Y-19028270D01*
X2572563Y-19028270D02*
X2563039Y-19066365D01*
X2563039Y-19066365D02*
X2553515Y-19085412D01*
X2553515Y-19085412D02*
X2534467Y-19104460D01*
X2534467Y-19104460D02*
X2505896Y-19113984D01*
X2505896Y-19113984D02*
X2458277Y-19113984D01*
X2658277Y-19113984D02*
X2658277Y-18980650D01*
X2658277Y-19018746D02*
X2667801Y-18999698D01*
X2667801Y-18999698D02*
X2677324Y-18990174D01*
X2677324Y-18990174D02*
X2696372Y-18980650D01*
X2696372Y-18980650D02*
X2715420Y-18980650D01*
X2782086Y-19113984D02*
X2782086Y-18980650D01*
X2782086Y-18913984D02*
X2772563Y-18923508D01*
X2772563Y-18923508D02*
X2782086Y-18933031D01*
X2782086Y-18933031D02*
X2791610Y-18923508D01*
X2791610Y-18923508D02*
X2782086Y-18913984D01*
X2782086Y-18913984D02*
X2782086Y-18933031D01*
X2905896Y-19113984D02*
X2886848Y-19104460D01*
X2886848Y-19104460D02*
X2877324Y-19085412D01*
X2877324Y-19085412D02*
X2877324Y-18913984D01*
X3010658Y-19113984D02*
X2991610Y-19104460D01*
X2991610Y-19104460D02*
X2982086Y-19085412D01*
X2982086Y-19085412D02*
X2982086Y-18913984D01*
X3239229Y-19113984D02*
X3239229Y-18913984D01*
X3239229Y-18913984D02*
X3305896Y-19056841D01*
X3305896Y-19056841D02*
X3372562Y-18913984D01*
X3372562Y-18913984D02*
X3372562Y-19113984D01*
X3553515Y-19113984D02*
X3553515Y-19009222D01*
X3553515Y-19009222D02*
X3543991Y-18990174D01*
X3543991Y-18990174D02*
X3524943Y-18980650D01*
X3524943Y-18980650D02*
X3486848Y-18980650D01*
X3486848Y-18980650D02*
X3467801Y-18990174D01*
X3553515Y-19104460D02*
X3534467Y-19113984D01*
X3534467Y-19113984D02*
X3486848Y-19113984D01*
X3486848Y-19113984D02*
X3467801Y-19104460D01*
X3467801Y-19104460D02*
X3458277Y-19085412D01*
X3458277Y-19085412D02*
X3458277Y-19066365D01*
X3458277Y-19066365D02*
X3467801Y-19047317D01*
X3467801Y-19047317D02*
X3486848Y-19037793D01*
X3486848Y-19037793D02*
X3534467Y-19037793D01*
X3534467Y-19037793D02*
X3553515Y-19028270D01*
X3648753Y-18980650D02*
X3648753Y-19180650D01*
X3648753Y-18990174D02*
X3667801Y-18980650D01*
X3667801Y-18980650D02*
X3705896Y-18980650D01*
X3705896Y-18980650D02*
X3724943Y-18990174D01*
X3724943Y-18990174D02*
X3734467Y-18999698D01*
X3734467Y-18999698D02*
X3743991Y-19018746D01*
X3743991Y-19018746D02*
X3743991Y-19075889D01*
X3743991Y-19075889D02*
X3734467Y-19094936D01*
X3734467Y-19094936D02*
X3724943Y-19104460D01*
X3724943Y-19104460D02*
X3705896Y-19113984D01*
X3705896Y-19113984D02*
X3667801Y-19113984D01*
X3667801Y-19113984D02*
X3648753Y-19104460D01*
X3829705Y-19094936D02*
X3839229Y-19104460D01*
X3839229Y-19104460D02*
X3829705Y-19113984D01*
X3829705Y-19113984D02*
X3820182Y-19104460D01*
X3820182Y-19104460D02*
X3829705Y-19094936D01*
X3829705Y-19094936D02*
X3829705Y-19113984D01*
X3829705Y-18990174D02*
X3839229Y-18999698D01*
X3839229Y-18999698D02*
X3829705Y-19009222D01*
X3829705Y-19009222D02*
X3820182Y-18999698D01*
X3820182Y-18999698D02*
X3829705Y-18990174D01*
X3829705Y-18990174D02*
X3829705Y-19009222D01*
D12*
X2027500Y-19357500D02*
X2197500Y-19527500D01*
X2197500Y-19357500D02*
X2027500Y-19527500D01*
D11*
X2563039Y-19533984D02*
X2448753Y-19533984D01*
X2505896Y-19533984D02*
X2505896Y-19333984D01*
X2505896Y-19333984D02*
X2486848Y-19362555D01*
X2486848Y-19362555D02*
X2467801Y-19381603D01*
X2467801Y-19381603D02*
X2448753Y-19391127D01*
X2648753Y-19514936D02*
X2658277Y-19524460D01*
X2658277Y-19524460D02*
X2648753Y-19533984D01*
X2648753Y-19533984D02*
X2639229Y-19524460D01*
X2639229Y-19524460D02*
X2648753Y-19514936D01*
X2648753Y-19514936D02*
X2648753Y-19533984D01*
X2724944Y-19333984D02*
X2858277Y-19333984D01*
X2858277Y-19333984D02*
X2772563Y-19533984D01*
X2972562Y-19333984D02*
X2991610Y-19333984D01*
X2991610Y-19333984D02*
X3010658Y-19343508D01*
X3010658Y-19343508D02*
X3020182Y-19353031D01*
X3020182Y-19353031D02*
X3029705Y-19372079D01*
X3029705Y-19372079D02*
X3039229Y-19410174D01*
X3039229Y-19410174D02*
X3039229Y-19457793D01*
X3039229Y-19457793D02*
X3029705Y-19495889D01*
X3029705Y-19495889D02*
X3020182Y-19514936D01*
X3020182Y-19514936D02*
X3010658Y-19524460D01*
X3010658Y-19524460D02*
X2991610Y-19533984D01*
X2991610Y-19533984D02*
X2972562Y-19533984D01*
X2972562Y-19533984D02*
X2953515Y-19524460D01*
X2953515Y-19524460D02*
X2943991Y-19514936D01*
X2943991Y-19514936D02*
X2934467Y-19495889D01*
X2934467Y-19495889D02*
X2924943Y-19457793D01*
X2924943Y-19457793D02*
X2924943Y-19410174D01*
X2924943Y-19410174D02*
X2934467Y-19372079D01*
X2934467Y-19372079D02*
X2943991Y-19353031D01*
X2943991Y-19353031D02*
X2953515Y-19343508D01*
X2953515Y-19343508D02*
X2972562Y-19333984D01*
X3163039Y-19333984D02*
X3182086Y-19333984D01*
X3182086Y-19333984D02*
X3201134Y-19343508D01*
X3201134Y-19343508D02*
X3210658Y-19353031D01*
X3210658Y-19353031D02*
X3220182Y-19372079D01*
X3220182Y-19372079D02*
X3229705Y-19410174D01*
X3229705Y-19410174D02*
X3229705Y-19457793D01*
X3229705Y-19457793D02*
X3220182Y-19495889D01*
X3220182Y-19495889D02*
X3210658Y-19514936D01*
X3210658Y-19514936D02*
X3201134Y-19524460D01*
X3201134Y-19524460D02*
X3182086Y-19533984D01*
X3182086Y-19533984D02*
X3163039Y-19533984D01*
X3163039Y-19533984D02*
X3143991Y-19524460D01*
X3143991Y-19524460D02*
X3134467Y-19514936D01*
X3134467Y-19514936D02*
X3124943Y-19495889D01*
X3124943Y-19495889D02*
X3115420Y-19457793D01*
X3115420Y-19457793D02*
X3115420Y-19410174D01*
X3115420Y-19410174D02*
X3124943Y-19372079D01*
X3124943Y-19372079D02*
X3134467Y-19353031D01*
X3134467Y-19353031D02*
X3143991Y-19343508D01*
X3143991Y-19343508D02*
X3163039Y-19333984D01*
X3315420Y-19533984D02*
X3315420Y-19400650D01*
X3315420Y-19419698D02*
X3324943Y-19410174D01*
X3324943Y-19410174D02*
X3343991Y-19400650D01*
X3343991Y-19400650D02*
X3372563Y-19400650D01*
X3372563Y-19400650D02*
X3391610Y-19410174D01*
X3391610Y-19410174D02*
X3401134Y-19429222D01*
X3401134Y-19429222D02*
X3401134Y-19533984D01*
X3401134Y-19429222D02*
X3410658Y-19410174D01*
X3410658Y-19410174D02*
X3429705Y-19400650D01*
X3429705Y-19400650D02*
X3458277Y-19400650D01*
X3458277Y-19400650D02*
X3477324Y-19410174D01*
X3477324Y-19410174D02*
X3486848Y-19429222D01*
X3486848Y-19429222D02*
X3486848Y-19533984D01*
X3582086Y-19533984D02*
X3582086Y-19400650D01*
X3582086Y-19419698D02*
X3591610Y-19410174D01*
X3591610Y-19410174D02*
X3610658Y-19400650D01*
X3610658Y-19400650D02*
X3639229Y-19400650D01*
X3639229Y-19400650D02*
X3658277Y-19410174D01*
X3658277Y-19410174D02*
X3667801Y-19429222D01*
X3667801Y-19429222D02*
X3667801Y-19533984D01*
X3667801Y-19429222D02*
X3677324Y-19410174D01*
X3677324Y-19410174D02*
X3696372Y-19400650D01*
X3696372Y-19400650D02*
X3724943Y-19400650D01*
X3724943Y-19400650D02*
X3743991Y-19410174D01*
X3743991Y-19410174D02*
X3753515Y-19429222D01*
X3753515Y-19429222D02*
X3753515Y-19533984D01*
X4143991Y-19324460D02*
X3972563Y-19581603D01*
X4401134Y-19333984D02*
X4420182Y-19333984D01*
X4420182Y-19333984D02*
X4439229Y-19343508D01*
X4439229Y-19343508D02*
X4448753Y-19353031D01*
X4448753Y-19353031D02*
X4458277Y-19372079D01*
X4458277Y-19372079D02*
X4467801Y-19410174D01*
X4467801Y-19410174D02*
X4467801Y-19457793D01*
X4467801Y-19457793D02*
X4458277Y-19495889D01*
X4458277Y-19495889D02*
X4448753Y-19514936D01*
X4448753Y-19514936D02*
X4439229Y-19524460D01*
X4439229Y-19524460D02*
X4420182Y-19533984D01*
X4420182Y-19533984D02*
X4401134Y-19533984D01*
X4401134Y-19533984D02*
X4382087Y-19524460D01*
X4382087Y-19524460D02*
X4372563Y-19514936D01*
X4372563Y-19514936D02*
X4363039Y-19495889D01*
X4363039Y-19495889D02*
X4353515Y-19457793D01*
X4353515Y-19457793D02*
X4353515Y-19410174D01*
X4353515Y-19410174D02*
X4363039Y-19372079D01*
X4363039Y-19372079D02*
X4372563Y-19353031D01*
X4372563Y-19353031D02*
X4382087Y-19343508D01*
X4382087Y-19343508D02*
X4401134Y-19333984D01*
X4553515Y-19514936D02*
X4563039Y-19524460D01*
X4563039Y-19524460D02*
X4553515Y-19533984D01*
X4553515Y-19533984D02*
X4543991Y-19524460D01*
X4543991Y-19524460D02*
X4553515Y-19514936D01*
X4553515Y-19514936D02*
X4553515Y-19533984D01*
X4686848Y-19333984D02*
X4705896Y-19333984D01*
X4705896Y-19333984D02*
X4724944Y-19343508D01*
X4724944Y-19343508D02*
X4734468Y-19353031D01*
X4734468Y-19353031D02*
X4743991Y-19372079D01*
X4743991Y-19372079D02*
X4753515Y-19410174D01*
X4753515Y-19410174D02*
X4753515Y-19457793D01*
X4753515Y-19457793D02*
X4743991Y-19495889D01*
X4743991Y-19495889D02*
X4734468Y-19514936D01*
X4734468Y-19514936D02*
X4724944Y-19524460D01*
X4724944Y-19524460D02*
X4705896Y-19533984D01*
X4705896Y-19533984D02*
X4686848Y-19533984D01*
X4686848Y-19533984D02*
X4667801Y-19524460D01*
X4667801Y-19524460D02*
X4658277Y-19514936D01*
X4658277Y-19514936D02*
X4648753Y-19495889D01*
X4648753Y-19495889D02*
X4639229Y-19457793D01*
X4639229Y-19457793D02*
X4639229Y-19410174D01*
X4639229Y-19410174D02*
X4648753Y-19372079D01*
X4648753Y-19372079D02*
X4658277Y-19353031D01*
X4658277Y-19353031D02*
X4667801Y-19343508D01*
X4667801Y-19343508D02*
X4686848Y-19333984D01*
X4924944Y-19333984D02*
X4886848Y-19333984D01*
X4886848Y-19333984D02*
X4867801Y-19343508D01*
X4867801Y-19343508D02*
X4858277Y-19353031D01*
X4858277Y-19353031D02*
X4839229Y-19381603D01*
X4839229Y-19381603D02*
X4829706Y-19419698D01*
X4829706Y-19419698D02*
X4829706Y-19495889D01*
X4829706Y-19495889D02*
X4839229Y-19514936D01*
X4839229Y-19514936D02*
X4848753Y-19524460D01*
X4848753Y-19524460D02*
X4867801Y-19533984D01*
X4867801Y-19533984D02*
X4905896Y-19533984D01*
X4905896Y-19533984D02*
X4924944Y-19524460D01*
X4924944Y-19524460D02*
X4934468Y-19514936D01*
X4934468Y-19514936D02*
X4943991Y-19495889D01*
X4943991Y-19495889D02*
X4943991Y-19448270D01*
X4943991Y-19448270D02*
X4934468Y-19429222D01*
X4934468Y-19429222D02*
X4924944Y-19419698D01*
X4924944Y-19419698D02*
X4905896Y-19410174D01*
X4905896Y-19410174D02*
X4867801Y-19410174D01*
X4867801Y-19410174D02*
X4848753Y-19419698D01*
X4848753Y-19419698D02*
X4839229Y-19429222D01*
X4839229Y-19429222D02*
X4829706Y-19448270D01*
X5115420Y-19333984D02*
X5077325Y-19333984D01*
X5077325Y-19333984D02*
X5058277Y-19343508D01*
X5058277Y-19343508D02*
X5048753Y-19353031D01*
X5048753Y-19353031D02*
X5029706Y-19381603D01*
X5029706Y-19381603D02*
X5020182Y-19419698D01*
X5020182Y-19419698D02*
X5020182Y-19495889D01*
X5020182Y-19495889D02*
X5029706Y-19514936D01*
X5029706Y-19514936D02*
X5039229Y-19524460D01*
X5039229Y-19524460D02*
X5058277Y-19533984D01*
X5058277Y-19533984D02*
X5096372Y-19533984D01*
X5096372Y-19533984D02*
X5115420Y-19524460D01*
X5115420Y-19524460D02*
X5124944Y-19514936D01*
X5124944Y-19514936D02*
X5134468Y-19495889D01*
X5134468Y-19495889D02*
X5134468Y-19448270D01*
X5134468Y-19448270D02*
X5124944Y-19429222D01*
X5124944Y-19429222D02*
X5115420Y-19419698D01*
X5115420Y-19419698D02*
X5096372Y-19410174D01*
X5096372Y-19410174D02*
X5058277Y-19410174D01*
X5058277Y-19410174D02*
X5039229Y-19419698D01*
X5039229Y-19419698D02*
X5029706Y-19429222D01*
X5029706Y-19429222D02*
X5020182Y-19448270D01*
X5229706Y-19533984D02*
X5267801Y-19533984D01*
X5267801Y-19533984D02*
X5286849Y-19524460D01*
X5286849Y-19524460D02*
X5296372Y-19514936D01*
X5296372Y-19514936D02*
X5315420Y-19486365D01*
X5315420Y-19486365D02*
X5324944Y-19448270D01*
X5324944Y-19448270D02*
X5324944Y-19372079D01*
X5324944Y-19372079D02*
X5315420Y-19353031D01*
X5315420Y-19353031D02*
X5305896Y-19343508D01*
X5305896Y-19343508D02*
X5286849Y-19333984D01*
X5286849Y-19333984D02*
X5248753Y-19333984D01*
X5248753Y-19333984D02*
X5229706Y-19343508D01*
X5229706Y-19343508D02*
X5220182Y-19353031D01*
X5220182Y-19353031D02*
X5210658Y-19372079D01*
X5210658Y-19372079D02*
X5210658Y-19419698D01*
X5210658Y-19419698D02*
X5220182Y-19438746D01*
X5220182Y-19438746D02*
X5229706Y-19448270D01*
X5229706Y-19448270D02*
X5248753Y-19457793D01*
X5248753Y-19457793D02*
X5286849Y-19457793D01*
X5286849Y-19457793D02*
X5305896Y-19448270D01*
X5305896Y-19448270D02*
X5315420Y-19438746D01*
X5315420Y-19438746D02*
X5324944Y-19419698D01*
X5401134Y-19333984D02*
X5401134Y-19372079D01*
X5477325Y-19333984D02*
X5477325Y-19372079D01*
X5772563Y-19610174D02*
X5763039Y-19600650D01*
X5763039Y-19600650D02*
X5743991Y-19572079D01*
X5743991Y-19572079D02*
X5734468Y-19553031D01*
X5734468Y-19553031D02*
X5724944Y-19524460D01*
X5724944Y-19524460D02*
X5715420Y-19476841D01*
X5715420Y-19476841D02*
X5715420Y-19438746D01*
X5715420Y-19438746D02*
X5724944Y-19391127D01*
X5724944Y-19391127D02*
X5734468Y-19362555D01*
X5734468Y-19362555D02*
X5743991Y-19343508D01*
X5743991Y-19343508D02*
X5763039Y-19314936D01*
X5763039Y-19314936D02*
X5772563Y-19305412D01*
X5934468Y-19333984D02*
X5896372Y-19333984D01*
X5896372Y-19333984D02*
X5877325Y-19343508D01*
X5877325Y-19343508D02*
X5867801Y-19353031D01*
X5867801Y-19353031D02*
X5848753Y-19381603D01*
X5848753Y-19381603D02*
X5839229Y-19419698D01*
X5839229Y-19419698D02*
X5839229Y-19495889D01*
X5839229Y-19495889D02*
X5848753Y-19514936D01*
X5848753Y-19514936D02*
X5858277Y-19524460D01*
X5858277Y-19524460D02*
X5877325Y-19533984D01*
X5877325Y-19533984D02*
X5915420Y-19533984D01*
X5915420Y-19533984D02*
X5934468Y-19524460D01*
X5934468Y-19524460D02*
X5943991Y-19514936D01*
X5943991Y-19514936D02*
X5953515Y-19495889D01*
X5953515Y-19495889D02*
X5953515Y-19448270D01*
X5953515Y-19448270D02*
X5943991Y-19429222D01*
X5943991Y-19429222D02*
X5934468Y-19419698D01*
X5934468Y-19419698D02*
X5915420Y-19410174D01*
X5915420Y-19410174D02*
X5877325Y-19410174D01*
X5877325Y-19410174D02*
X5858277Y-19419698D01*
X5858277Y-19419698D02*
X5848753Y-19429222D01*
X5848753Y-19429222D02*
X5839229Y-19448270D01*
X6191610Y-19533984D02*
X6191610Y-19333984D01*
X6277325Y-19533984D02*
X6277325Y-19429222D01*
X6277325Y-19429222D02*
X6267801Y-19410174D01*
X6267801Y-19410174D02*
X6248753Y-19400650D01*
X6248753Y-19400650D02*
X6220182Y-19400650D01*
X6220182Y-19400650D02*
X6201134Y-19410174D01*
X6201134Y-19410174D02*
X6191610Y-19419698D01*
X6401134Y-19533984D02*
X6382087Y-19524460D01*
X6382087Y-19524460D02*
X6372563Y-19514936D01*
X6372563Y-19514936D02*
X6363039Y-19495889D01*
X6363039Y-19495889D02*
X6363039Y-19438746D01*
X6363039Y-19438746D02*
X6372563Y-19419698D01*
X6372563Y-19419698D02*
X6382087Y-19410174D01*
X6382087Y-19410174D02*
X6401134Y-19400650D01*
X6401134Y-19400650D02*
X6429706Y-19400650D01*
X6429706Y-19400650D02*
X6448753Y-19410174D01*
X6448753Y-19410174D02*
X6458277Y-19419698D01*
X6458277Y-19419698D02*
X6467801Y-19438746D01*
X6467801Y-19438746D02*
X6467801Y-19495889D01*
X6467801Y-19495889D02*
X6458277Y-19514936D01*
X6458277Y-19514936D02*
X6448753Y-19524460D01*
X6448753Y-19524460D02*
X6429706Y-19533984D01*
X6429706Y-19533984D02*
X6401134Y-19533984D01*
X6582087Y-19533984D02*
X6563039Y-19524460D01*
X6563039Y-19524460D02*
X6553515Y-19505412D01*
X6553515Y-19505412D02*
X6553515Y-19333984D01*
X6734468Y-19524460D02*
X6715420Y-19533984D01*
X6715420Y-19533984D02*
X6677325Y-19533984D01*
X6677325Y-19533984D02*
X6658277Y-19524460D01*
X6658277Y-19524460D02*
X6648753Y-19505412D01*
X6648753Y-19505412D02*
X6648753Y-19429222D01*
X6648753Y-19429222D02*
X6658277Y-19410174D01*
X6658277Y-19410174D02*
X6677325Y-19400650D01*
X6677325Y-19400650D02*
X6715420Y-19400650D01*
X6715420Y-19400650D02*
X6734468Y-19410174D01*
X6734468Y-19410174D02*
X6743991Y-19429222D01*
X6743991Y-19429222D02*
X6743991Y-19448270D01*
X6743991Y-19448270D02*
X6648753Y-19467317D01*
X6820182Y-19524460D02*
X6839230Y-19533984D01*
X6839230Y-19533984D02*
X6877325Y-19533984D01*
X6877325Y-19533984D02*
X6896372Y-19524460D01*
X6896372Y-19524460D02*
X6905896Y-19505412D01*
X6905896Y-19505412D02*
X6905896Y-19495889D01*
X6905896Y-19495889D02*
X6896372Y-19476841D01*
X6896372Y-19476841D02*
X6877325Y-19467317D01*
X6877325Y-19467317D02*
X6848753Y-19467317D01*
X6848753Y-19467317D02*
X6829706Y-19457793D01*
X6829706Y-19457793D02*
X6820182Y-19438746D01*
X6820182Y-19438746D02*
X6820182Y-19429222D01*
X6820182Y-19429222D02*
X6829706Y-19410174D01*
X6829706Y-19410174D02*
X6848753Y-19400650D01*
X6848753Y-19400650D02*
X6877325Y-19400650D01*
X6877325Y-19400650D02*
X6896372Y-19410174D01*
X6972563Y-19610174D02*
X6982087Y-19600650D01*
X6982087Y-19600650D02*
X7001134Y-19572079D01*
X7001134Y-19572079D02*
X7010658Y-19553031D01*
X7010658Y-19553031D02*
X7020182Y-19524460D01*
X7020182Y-19524460D02*
X7029706Y-19476841D01*
X7029706Y-19476841D02*
X7029706Y-19438746D01*
X7029706Y-19438746D02*
X7020182Y-19391127D01*
X7020182Y-19391127D02*
X7010658Y-19362555D01*
X7010658Y-19362555D02*
X7001134Y-19343508D01*
X7001134Y-19343508D02*
X6982087Y-19314936D01*
X6982087Y-19314936D02*
X6972563Y-19305412D01*
X7334468Y-19610174D02*
X7324944Y-19600650D01*
X7324944Y-19600650D02*
X7305896Y-19572079D01*
X7305896Y-19572079D02*
X7296372Y-19553031D01*
X7296372Y-19553031D02*
X7286849Y-19524460D01*
X7286849Y-19524460D02*
X7277325Y-19476841D01*
X7277325Y-19476841D02*
X7277325Y-19438746D01*
X7277325Y-19438746D02*
X7286849Y-19391127D01*
X7286849Y-19391127D02*
X7296372Y-19362555D01*
X7296372Y-19362555D02*
X7305896Y-19343508D01*
X7305896Y-19343508D02*
X7324944Y-19314936D01*
X7324944Y-19314936D02*
X7334468Y-19305412D01*
X7410658Y-19400650D02*
X7410658Y-19533984D01*
X7410658Y-19419698D02*
X7420182Y-19410174D01*
X7420182Y-19410174D02*
X7439230Y-19400650D01*
X7439230Y-19400650D02*
X7467801Y-19400650D01*
X7467801Y-19400650D02*
X7486849Y-19410174D01*
X7486849Y-19410174D02*
X7496372Y-19429222D01*
X7496372Y-19429222D02*
X7496372Y-19533984D01*
X7620182Y-19533984D02*
X7601134Y-19524460D01*
X7601134Y-19524460D02*
X7591611Y-19514936D01*
X7591611Y-19514936D02*
X7582087Y-19495889D01*
X7582087Y-19495889D02*
X7582087Y-19438746D01*
X7582087Y-19438746D02*
X7591611Y-19419698D01*
X7591611Y-19419698D02*
X7601134Y-19410174D01*
X7601134Y-19410174D02*
X7620182Y-19400650D01*
X7620182Y-19400650D02*
X7648753Y-19400650D01*
X7648753Y-19400650D02*
X7667801Y-19410174D01*
X7667801Y-19410174D02*
X7677325Y-19419698D01*
X7677325Y-19419698D02*
X7686849Y-19438746D01*
X7686849Y-19438746D02*
X7686849Y-19495889D01*
X7686849Y-19495889D02*
X7677325Y-19514936D01*
X7677325Y-19514936D02*
X7667801Y-19524460D01*
X7667801Y-19524460D02*
X7648753Y-19533984D01*
X7648753Y-19533984D02*
X7620182Y-19533984D01*
X7743992Y-19400650D02*
X7820182Y-19400650D01*
X7772563Y-19333984D02*
X7772563Y-19505412D01*
X7772563Y-19505412D02*
X7782087Y-19524460D01*
X7782087Y-19524460D02*
X7801134Y-19533984D01*
X7801134Y-19533984D02*
X7820182Y-19533984D01*
X8039230Y-19400650D02*
X8039230Y-19600650D01*
X8039230Y-19410174D02*
X8058277Y-19400650D01*
X8058277Y-19400650D02*
X8096373Y-19400650D01*
X8096373Y-19400650D02*
X8115420Y-19410174D01*
X8115420Y-19410174D02*
X8124944Y-19419698D01*
X8124944Y-19419698D02*
X8134468Y-19438746D01*
X8134468Y-19438746D02*
X8134468Y-19495889D01*
X8134468Y-19495889D02*
X8124944Y-19514936D01*
X8124944Y-19514936D02*
X8115420Y-19524460D01*
X8115420Y-19524460D02*
X8096373Y-19533984D01*
X8096373Y-19533984D02*
X8058277Y-19533984D01*
X8058277Y-19533984D02*
X8039230Y-19524460D01*
X8248753Y-19533984D02*
X8229706Y-19524460D01*
X8229706Y-19524460D02*
X8220182Y-19505412D01*
X8220182Y-19505412D02*
X8220182Y-19333984D01*
X8410658Y-19533984D02*
X8410658Y-19429222D01*
X8410658Y-19429222D02*
X8401135Y-19410174D01*
X8401135Y-19410174D02*
X8382087Y-19400650D01*
X8382087Y-19400650D02*
X8343992Y-19400650D01*
X8343992Y-19400650D02*
X8324944Y-19410174D01*
X8410658Y-19524460D02*
X8391611Y-19533984D01*
X8391611Y-19533984D02*
X8343992Y-19533984D01*
X8343992Y-19533984D02*
X8324944Y-19524460D01*
X8324944Y-19524460D02*
X8315420Y-19505412D01*
X8315420Y-19505412D02*
X8315420Y-19486365D01*
X8315420Y-19486365D02*
X8324944Y-19467317D01*
X8324944Y-19467317D02*
X8343992Y-19457793D01*
X8343992Y-19457793D02*
X8391611Y-19457793D01*
X8391611Y-19457793D02*
X8410658Y-19448270D01*
X8477325Y-19400650D02*
X8553515Y-19400650D01*
X8505896Y-19333984D02*
X8505896Y-19505412D01*
X8505896Y-19505412D02*
X8515420Y-19524460D01*
X8515420Y-19524460D02*
X8534468Y-19533984D01*
X8534468Y-19533984D02*
X8553515Y-19533984D01*
X8696373Y-19524460D02*
X8677325Y-19533984D01*
X8677325Y-19533984D02*
X8639230Y-19533984D01*
X8639230Y-19533984D02*
X8620182Y-19524460D01*
X8620182Y-19524460D02*
X8610658Y-19505412D01*
X8610658Y-19505412D02*
X8610658Y-19429222D01*
X8610658Y-19429222D02*
X8620182Y-19410174D01*
X8620182Y-19410174D02*
X8639230Y-19400650D01*
X8639230Y-19400650D02*
X8677325Y-19400650D01*
X8677325Y-19400650D02*
X8696373Y-19410174D01*
X8696373Y-19410174D02*
X8705896Y-19429222D01*
X8705896Y-19429222D02*
X8705896Y-19448270D01*
X8705896Y-19448270D02*
X8610658Y-19467317D01*
X8877325Y-19533984D02*
X8877325Y-19333984D01*
X8877325Y-19524460D02*
X8858277Y-19533984D01*
X8858277Y-19533984D02*
X8820182Y-19533984D01*
X8820182Y-19533984D02*
X8801135Y-19524460D01*
X8801135Y-19524460D02*
X8791611Y-19514936D01*
X8791611Y-19514936D02*
X8782087Y-19495889D01*
X8782087Y-19495889D02*
X8782087Y-19438746D01*
X8782087Y-19438746D02*
X8791611Y-19419698D01*
X8791611Y-19419698D02*
X8801135Y-19410174D01*
X8801135Y-19410174D02*
X8820182Y-19400650D01*
X8820182Y-19400650D02*
X8858277Y-19400650D01*
X8858277Y-19400650D02*
X8877325Y-19410174D01*
X8953516Y-19610174D02*
X8963039Y-19600650D01*
X8963039Y-19600650D02*
X8982087Y-19572079D01*
X8982087Y-19572079D02*
X8991611Y-19553031D01*
X8991611Y-19553031D02*
X9001135Y-19524460D01*
X9001135Y-19524460D02*
X9010658Y-19476841D01*
X9010658Y-19476841D02*
X9010658Y-19438746D01*
X9010658Y-19438746D02*
X9001135Y-19391127D01*
X9001135Y-19391127D02*
X8991611Y-19362555D01*
X8991611Y-19362555D02*
X8982087Y-19343508D01*
X8982087Y-19343508D02*
X8963039Y-19314936D01*
X8963039Y-19314936D02*
X8953516Y-19305412D01*
X2197500Y-19732500D02*
G75*
G02*
X1997500Y-19732500I-100000J0D01*
G01*
X1997500Y-19732500D02*
G75*
G02*
X2197500Y-19732500I100000J0D01*
G01*
X2439229Y-19623984D02*
X2563039Y-19623984D01*
X2563039Y-19623984D02*
X2496372Y-19700174D01*
X2496372Y-19700174D02*
X2524944Y-19700174D01*
X2524944Y-19700174D02*
X2543991Y-19709698D01*
X2543991Y-19709698D02*
X2553515Y-19719222D01*
X2553515Y-19719222D02*
X2563039Y-19738270D01*
X2563039Y-19738270D02*
X2563039Y-19785889D01*
X2563039Y-19785889D02*
X2553515Y-19804936D01*
X2553515Y-19804936D02*
X2543991Y-19814460D01*
X2543991Y-19814460D02*
X2524944Y-19823984D01*
X2524944Y-19823984D02*
X2467801Y-19823984D01*
X2467801Y-19823984D02*
X2448753Y-19814460D01*
X2448753Y-19814460D02*
X2439229Y-19804936D01*
X2648753Y-19804936D02*
X2658277Y-19814460D01*
X2658277Y-19814460D02*
X2648753Y-19823984D01*
X2648753Y-19823984D02*
X2639229Y-19814460D01*
X2639229Y-19814460D02*
X2648753Y-19804936D01*
X2648753Y-19804936D02*
X2648753Y-19823984D01*
X2734467Y-19643031D02*
X2743991Y-19633508D01*
X2743991Y-19633508D02*
X2763039Y-19623984D01*
X2763039Y-19623984D02*
X2810658Y-19623984D01*
X2810658Y-19623984D02*
X2829705Y-19633508D01*
X2829705Y-19633508D02*
X2839229Y-19643031D01*
X2839229Y-19643031D02*
X2848753Y-19662079D01*
X2848753Y-19662079D02*
X2848753Y-19681127D01*
X2848753Y-19681127D02*
X2839229Y-19709698D01*
X2839229Y-19709698D02*
X2724944Y-19823984D01*
X2724944Y-19823984D02*
X2848753Y-19823984D01*
X2972562Y-19623984D02*
X2991610Y-19623984D01*
X2991610Y-19623984D02*
X3010658Y-19633508D01*
X3010658Y-19633508D02*
X3020182Y-19643031D01*
X3020182Y-19643031D02*
X3029705Y-19662079D01*
X3029705Y-19662079D02*
X3039229Y-19700174D01*
X3039229Y-19700174D02*
X3039229Y-19747793D01*
X3039229Y-19747793D02*
X3029705Y-19785889D01*
X3029705Y-19785889D02*
X3020182Y-19804936D01*
X3020182Y-19804936D02*
X3010658Y-19814460D01*
X3010658Y-19814460D02*
X2991610Y-19823984D01*
X2991610Y-19823984D02*
X2972562Y-19823984D01*
X2972562Y-19823984D02*
X2953515Y-19814460D01*
X2953515Y-19814460D02*
X2943991Y-19804936D01*
X2943991Y-19804936D02*
X2934467Y-19785889D01*
X2934467Y-19785889D02*
X2924943Y-19747793D01*
X2924943Y-19747793D02*
X2924943Y-19700174D01*
X2924943Y-19700174D02*
X2934467Y-19662079D01*
X2934467Y-19662079D02*
X2943991Y-19643031D01*
X2943991Y-19643031D02*
X2953515Y-19633508D01*
X2953515Y-19633508D02*
X2972562Y-19623984D01*
X3163039Y-19623984D02*
X3182086Y-19623984D01*
X3182086Y-19623984D02*
X3201134Y-19633508D01*
X3201134Y-19633508D02*
X3210658Y-19643031D01*
X3210658Y-19643031D02*
X3220182Y-19662079D01*
X3220182Y-19662079D02*
X3229705Y-19700174D01*
X3229705Y-19700174D02*
X3229705Y-19747793D01*
X3229705Y-19747793D02*
X3220182Y-19785889D01*
X3220182Y-19785889D02*
X3210658Y-19804936D01*
X3210658Y-19804936D02*
X3201134Y-19814460D01*
X3201134Y-19814460D02*
X3182086Y-19823984D01*
X3182086Y-19823984D02*
X3163039Y-19823984D01*
X3163039Y-19823984D02*
X3143991Y-19814460D01*
X3143991Y-19814460D02*
X3134467Y-19804936D01*
X3134467Y-19804936D02*
X3124943Y-19785889D01*
X3124943Y-19785889D02*
X3115420Y-19747793D01*
X3115420Y-19747793D02*
X3115420Y-19700174D01*
X3115420Y-19700174D02*
X3124943Y-19662079D01*
X3124943Y-19662079D02*
X3134467Y-19643031D01*
X3134467Y-19643031D02*
X3143991Y-19633508D01*
X3143991Y-19633508D02*
X3163039Y-19623984D01*
X3315420Y-19823984D02*
X3315420Y-19690650D01*
X3315420Y-19709698D02*
X3324943Y-19700174D01*
X3324943Y-19700174D02*
X3343991Y-19690650D01*
X3343991Y-19690650D02*
X3372563Y-19690650D01*
X3372563Y-19690650D02*
X3391610Y-19700174D01*
X3391610Y-19700174D02*
X3401134Y-19719222D01*
X3401134Y-19719222D02*
X3401134Y-19823984D01*
X3401134Y-19719222D02*
X3410658Y-19700174D01*
X3410658Y-19700174D02*
X3429705Y-19690650D01*
X3429705Y-19690650D02*
X3458277Y-19690650D01*
X3458277Y-19690650D02*
X3477324Y-19700174D01*
X3477324Y-19700174D02*
X3486848Y-19719222D01*
X3486848Y-19719222D02*
X3486848Y-19823984D01*
X3582086Y-19823984D02*
X3582086Y-19690650D01*
X3582086Y-19709698D02*
X3591610Y-19700174D01*
X3591610Y-19700174D02*
X3610658Y-19690650D01*
X3610658Y-19690650D02*
X3639229Y-19690650D01*
X3639229Y-19690650D02*
X3658277Y-19700174D01*
X3658277Y-19700174D02*
X3667801Y-19719222D01*
X3667801Y-19719222D02*
X3667801Y-19823984D01*
X3667801Y-19719222D02*
X3677324Y-19700174D01*
X3677324Y-19700174D02*
X3696372Y-19690650D01*
X3696372Y-19690650D02*
X3724943Y-19690650D01*
X3724943Y-19690650D02*
X3743991Y-19700174D01*
X3743991Y-19700174D02*
X3753515Y-19719222D01*
X3753515Y-19719222D02*
X3753515Y-19823984D01*
X4143991Y-19614460D02*
X3972563Y-19871603D01*
X4401134Y-19623984D02*
X4420182Y-19623984D01*
X4420182Y-19623984D02*
X4439229Y-19633508D01*
X4439229Y-19633508D02*
X4448753Y-19643031D01*
X4448753Y-19643031D02*
X4458277Y-19662079D01*
X4458277Y-19662079D02*
X4467801Y-19700174D01*
X4467801Y-19700174D02*
X4467801Y-19747793D01*
X4467801Y-19747793D02*
X4458277Y-19785889D01*
X4458277Y-19785889D02*
X4448753Y-19804936D01*
X4448753Y-19804936D02*
X4439229Y-19814460D01*
X4439229Y-19814460D02*
X4420182Y-19823984D01*
X4420182Y-19823984D02*
X4401134Y-19823984D01*
X4401134Y-19823984D02*
X4382087Y-19814460D01*
X4382087Y-19814460D02*
X4372563Y-19804936D01*
X4372563Y-19804936D02*
X4363039Y-19785889D01*
X4363039Y-19785889D02*
X4353515Y-19747793D01*
X4353515Y-19747793D02*
X4353515Y-19700174D01*
X4353515Y-19700174D02*
X4363039Y-19662079D01*
X4363039Y-19662079D02*
X4372563Y-19643031D01*
X4372563Y-19643031D02*
X4382087Y-19633508D01*
X4382087Y-19633508D02*
X4401134Y-19623984D01*
X4553515Y-19804936D02*
X4563039Y-19814460D01*
X4563039Y-19814460D02*
X4553515Y-19823984D01*
X4553515Y-19823984D02*
X4543991Y-19814460D01*
X4543991Y-19814460D02*
X4553515Y-19804936D01*
X4553515Y-19804936D02*
X4553515Y-19823984D01*
X4753515Y-19823984D02*
X4639229Y-19823984D01*
X4696372Y-19823984D02*
X4696372Y-19623984D01*
X4696372Y-19623984D02*
X4677325Y-19652555D01*
X4677325Y-19652555D02*
X4658277Y-19671603D01*
X4658277Y-19671603D02*
X4639229Y-19681127D01*
X4829706Y-19643031D02*
X4839229Y-19633508D01*
X4839229Y-19633508D02*
X4858277Y-19623984D01*
X4858277Y-19623984D02*
X4905896Y-19623984D01*
X4905896Y-19623984D02*
X4924944Y-19633508D01*
X4924944Y-19633508D02*
X4934468Y-19643031D01*
X4934468Y-19643031D02*
X4943991Y-19662079D01*
X4943991Y-19662079D02*
X4943991Y-19681127D01*
X4943991Y-19681127D02*
X4934468Y-19709698D01*
X4934468Y-19709698D02*
X4820182Y-19823984D01*
X4820182Y-19823984D02*
X4943991Y-19823984D01*
X5115420Y-19623984D02*
X5077325Y-19623984D01*
X5077325Y-19623984D02*
X5058277Y-19633508D01*
X5058277Y-19633508D02*
X5048753Y-19643031D01*
X5048753Y-19643031D02*
X5029706Y-19671603D01*
X5029706Y-19671603D02*
X5020182Y-19709698D01*
X5020182Y-19709698D02*
X5020182Y-19785889D01*
X5020182Y-19785889D02*
X5029706Y-19804936D01*
X5029706Y-19804936D02*
X5039229Y-19814460D01*
X5039229Y-19814460D02*
X5058277Y-19823984D01*
X5058277Y-19823984D02*
X5096372Y-19823984D01*
X5096372Y-19823984D02*
X5115420Y-19814460D01*
X5115420Y-19814460D02*
X5124944Y-19804936D01*
X5124944Y-19804936D02*
X5134468Y-19785889D01*
X5134468Y-19785889D02*
X5134468Y-19738270D01*
X5134468Y-19738270D02*
X5124944Y-19719222D01*
X5124944Y-19719222D02*
X5115420Y-19709698D01*
X5115420Y-19709698D02*
X5096372Y-19700174D01*
X5096372Y-19700174D02*
X5058277Y-19700174D01*
X5058277Y-19700174D02*
X5039229Y-19709698D01*
X5039229Y-19709698D02*
X5029706Y-19719222D01*
X5029706Y-19719222D02*
X5020182Y-19738270D01*
X5258277Y-19623984D02*
X5277325Y-19623984D01*
X5277325Y-19623984D02*
X5296372Y-19633508D01*
X5296372Y-19633508D02*
X5305896Y-19643031D01*
X5305896Y-19643031D02*
X5315420Y-19662079D01*
X5315420Y-19662079D02*
X5324944Y-19700174D01*
X5324944Y-19700174D02*
X5324944Y-19747793D01*
X5324944Y-19747793D02*
X5315420Y-19785889D01*
X5315420Y-19785889D02*
X5305896Y-19804936D01*
X5305896Y-19804936D02*
X5296372Y-19814460D01*
X5296372Y-19814460D02*
X5277325Y-19823984D01*
X5277325Y-19823984D02*
X5258277Y-19823984D01*
X5258277Y-19823984D02*
X5239229Y-19814460D01*
X5239229Y-19814460D02*
X5229706Y-19804936D01*
X5229706Y-19804936D02*
X5220182Y-19785889D01*
X5220182Y-19785889D02*
X5210658Y-19747793D01*
X5210658Y-19747793D02*
X5210658Y-19700174D01*
X5210658Y-19700174D02*
X5220182Y-19662079D01*
X5220182Y-19662079D02*
X5229706Y-19643031D01*
X5229706Y-19643031D02*
X5239229Y-19633508D01*
X5239229Y-19633508D02*
X5258277Y-19623984D01*
X5401134Y-19623984D02*
X5401134Y-19662079D01*
X5477325Y-19623984D02*
X5477325Y-19662079D01*
X5772563Y-19900174D02*
X5763039Y-19890650D01*
X5763039Y-19890650D02*
X5743991Y-19862079D01*
X5743991Y-19862079D02*
X5734468Y-19843031D01*
X5734468Y-19843031D02*
X5724944Y-19814460D01*
X5724944Y-19814460D02*
X5715420Y-19766841D01*
X5715420Y-19766841D02*
X5715420Y-19728746D01*
X5715420Y-19728746D02*
X5724944Y-19681127D01*
X5724944Y-19681127D02*
X5734468Y-19652555D01*
X5734468Y-19652555D02*
X5743991Y-19633508D01*
X5743991Y-19633508D02*
X5763039Y-19604936D01*
X5763039Y-19604936D02*
X5772563Y-19595412D01*
X5934468Y-19690650D02*
X5934468Y-19823984D01*
X5886848Y-19614460D02*
X5839229Y-19757317D01*
X5839229Y-19757317D02*
X5963039Y-19757317D01*
X6191610Y-19823984D02*
X6191610Y-19623984D01*
X6277325Y-19823984D02*
X6277325Y-19719222D01*
X6277325Y-19719222D02*
X6267801Y-19700174D01*
X6267801Y-19700174D02*
X6248753Y-19690650D01*
X6248753Y-19690650D02*
X6220182Y-19690650D01*
X6220182Y-19690650D02*
X6201134Y-19700174D01*
X6201134Y-19700174D02*
X6191610Y-19709698D01*
X6401134Y-19823984D02*
X6382087Y-19814460D01*
X6382087Y-19814460D02*
X6372563Y-19804936D01*
X6372563Y-19804936D02*
X6363039Y-19785889D01*
X6363039Y-19785889D02*
X6363039Y-19728746D01*
X6363039Y-19728746D02*
X6372563Y-19709698D01*
X6372563Y-19709698D02*
X6382087Y-19700174D01*
X6382087Y-19700174D02*
X6401134Y-19690650D01*
X6401134Y-19690650D02*
X6429706Y-19690650D01*
X6429706Y-19690650D02*
X6448753Y-19700174D01*
X6448753Y-19700174D02*
X6458277Y-19709698D01*
X6458277Y-19709698D02*
X6467801Y-19728746D01*
X6467801Y-19728746D02*
X6467801Y-19785889D01*
X6467801Y-19785889D02*
X6458277Y-19804936D01*
X6458277Y-19804936D02*
X6448753Y-19814460D01*
X6448753Y-19814460D02*
X6429706Y-19823984D01*
X6429706Y-19823984D02*
X6401134Y-19823984D01*
X6582087Y-19823984D02*
X6563039Y-19814460D01*
X6563039Y-19814460D02*
X6553515Y-19795412D01*
X6553515Y-19795412D02*
X6553515Y-19623984D01*
X6734468Y-19814460D02*
X6715420Y-19823984D01*
X6715420Y-19823984D02*
X6677325Y-19823984D01*
X6677325Y-19823984D02*
X6658277Y-19814460D01*
X6658277Y-19814460D02*
X6648753Y-19795412D01*
X6648753Y-19795412D02*
X6648753Y-19719222D01*
X6648753Y-19719222D02*
X6658277Y-19700174D01*
X6658277Y-19700174D02*
X6677325Y-19690650D01*
X6677325Y-19690650D02*
X6715420Y-19690650D01*
X6715420Y-19690650D02*
X6734468Y-19700174D01*
X6734468Y-19700174D02*
X6743991Y-19719222D01*
X6743991Y-19719222D02*
X6743991Y-19738270D01*
X6743991Y-19738270D02*
X6648753Y-19757317D01*
X6820182Y-19814460D02*
X6839230Y-19823984D01*
X6839230Y-19823984D02*
X6877325Y-19823984D01*
X6877325Y-19823984D02*
X6896372Y-19814460D01*
X6896372Y-19814460D02*
X6905896Y-19795412D01*
X6905896Y-19795412D02*
X6905896Y-19785889D01*
X6905896Y-19785889D02*
X6896372Y-19766841D01*
X6896372Y-19766841D02*
X6877325Y-19757317D01*
X6877325Y-19757317D02*
X6848753Y-19757317D01*
X6848753Y-19757317D02*
X6829706Y-19747793D01*
X6829706Y-19747793D02*
X6820182Y-19728746D01*
X6820182Y-19728746D02*
X6820182Y-19719222D01*
X6820182Y-19719222D02*
X6829706Y-19700174D01*
X6829706Y-19700174D02*
X6848753Y-19690650D01*
X6848753Y-19690650D02*
X6877325Y-19690650D01*
X6877325Y-19690650D02*
X6896372Y-19700174D01*
X6972563Y-19900174D02*
X6982087Y-19890650D01*
X6982087Y-19890650D02*
X7001134Y-19862079D01*
X7001134Y-19862079D02*
X7010658Y-19843031D01*
X7010658Y-19843031D02*
X7020182Y-19814460D01*
X7020182Y-19814460D02*
X7029706Y-19766841D01*
X7029706Y-19766841D02*
X7029706Y-19728746D01*
X7029706Y-19728746D02*
X7020182Y-19681127D01*
X7020182Y-19681127D02*
X7010658Y-19652555D01*
X7010658Y-19652555D02*
X7001134Y-19633508D01*
X7001134Y-19633508D02*
X6982087Y-19604936D01*
X6982087Y-19604936D02*
X6972563Y-19595412D01*
X7334468Y-19900174D02*
X7324944Y-19890650D01*
X7324944Y-19890650D02*
X7305896Y-19862079D01*
X7305896Y-19862079D02*
X7296372Y-19843031D01*
X7296372Y-19843031D02*
X7286849Y-19814460D01*
X7286849Y-19814460D02*
X7277325Y-19766841D01*
X7277325Y-19766841D02*
X7277325Y-19728746D01*
X7277325Y-19728746D02*
X7286849Y-19681127D01*
X7286849Y-19681127D02*
X7296372Y-19652555D01*
X7296372Y-19652555D02*
X7305896Y-19633508D01*
X7305896Y-19633508D02*
X7324944Y-19604936D01*
X7324944Y-19604936D02*
X7334468Y-19595412D01*
X7410658Y-19690650D02*
X7410658Y-19823984D01*
X7410658Y-19709698D02*
X7420182Y-19700174D01*
X7420182Y-19700174D02*
X7439230Y-19690650D01*
X7439230Y-19690650D02*
X7467801Y-19690650D01*
X7467801Y-19690650D02*
X7486849Y-19700174D01*
X7486849Y-19700174D02*
X7496372Y-19719222D01*
X7496372Y-19719222D02*
X7496372Y-19823984D01*
X7620182Y-19823984D02*
X7601134Y-19814460D01*
X7601134Y-19814460D02*
X7591611Y-19804936D01*
X7591611Y-19804936D02*
X7582087Y-19785889D01*
X7582087Y-19785889D02*
X7582087Y-19728746D01*
X7582087Y-19728746D02*
X7591611Y-19709698D01*
X7591611Y-19709698D02*
X7601134Y-19700174D01*
X7601134Y-19700174D02*
X7620182Y-19690650D01*
X7620182Y-19690650D02*
X7648753Y-19690650D01*
X7648753Y-19690650D02*
X7667801Y-19700174D01*
X7667801Y-19700174D02*
X7677325Y-19709698D01*
X7677325Y-19709698D02*
X7686849Y-19728746D01*
X7686849Y-19728746D02*
X7686849Y-19785889D01*
X7686849Y-19785889D02*
X7677325Y-19804936D01*
X7677325Y-19804936D02*
X7667801Y-19814460D01*
X7667801Y-19814460D02*
X7648753Y-19823984D01*
X7648753Y-19823984D02*
X7620182Y-19823984D01*
X7743992Y-19690650D02*
X7820182Y-19690650D01*
X7772563Y-19623984D02*
X7772563Y-19795412D01*
X7772563Y-19795412D02*
X7782087Y-19814460D01*
X7782087Y-19814460D02*
X7801134Y-19823984D01*
X7801134Y-19823984D02*
X7820182Y-19823984D01*
X8039230Y-19690650D02*
X8039230Y-19890650D01*
X8039230Y-19700174D02*
X8058277Y-19690650D01*
X8058277Y-19690650D02*
X8096373Y-19690650D01*
X8096373Y-19690650D02*
X8115420Y-19700174D01*
X8115420Y-19700174D02*
X8124944Y-19709698D01*
X8124944Y-19709698D02*
X8134468Y-19728746D01*
X8134468Y-19728746D02*
X8134468Y-19785889D01*
X8134468Y-19785889D02*
X8124944Y-19804936D01*
X8124944Y-19804936D02*
X8115420Y-19814460D01*
X8115420Y-19814460D02*
X8096373Y-19823984D01*
X8096373Y-19823984D02*
X8058277Y-19823984D01*
X8058277Y-19823984D02*
X8039230Y-19814460D01*
X8248753Y-19823984D02*
X8229706Y-19814460D01*
X8229706Y-19814460D02*
X8220182Y-19795412D01*
X8220182Y-19795412D02*
X8220182Y-19623984D01*
X8410658Y-19823984D02*
X8410658Y-19719222D01*
X8410658Y-19719222D02*
X8401135Y-19700174D01*
X8401135Y-19700174D02*
X8382087Y-19690650D01*
X8382087Y-19690650D02*
X8343992Y-19690650D01*
X8343992Y-19690650D02*
X8324944Y-19700174D01*
X8410658Y-19814460D02*
X8391611Y-19823984D01*
X8391611Y-19823984D02*
X8343992Y-19823984D01*
X8343992Y-19823984D02*
X8324944Y-19814460D01*
X8324944Y-19814460D02*
X8315420Y-19795412D01*
X8315420Y-19795412D02*
X8315420Y-19776365D01*
X8315420Y-19776365D02*
X8324944Y-19757317D01*
X8324944Y-19757317D02*
X8343992Y-19747793D01*
X8343992Y-19747793D02*
X8391611Y-19747793D01*
X8391611Y-19747793D02*
X8410658Y-19738270D01*
X8477325Y-19690650D02*
X8553515Y-19690650D01*
X8505896Y-19623984D02*
X8505896Y-19795412D01*
X8505896Y-19795412D02*
X8515420Y-19814460D01*
X8515420Y-19814460D02*
X8534468Y-19823984D01*
X8534468Y-19823984D02*
X8553515Y-19823984D01*
X8696373Y-19814460D02*
X8677325Y-19823984D01*
X8677325Y-19823984D02*
X8639230Y-19823984D01*
X8639230Y-19823984D02*
X8620182Y-19814460D01*
X8620182Y-19814460D02*
X8610658Y-19795412D01*
X8610658Y-19795412D02*
X8610658Y-19719222D01*
X8610658Y-19719222D02*
X8620182Y-19700174D01*
X8620182Y-19700174D02*
X8639230Y-19690650D01*
X8639230Y-19690650D02*
X8677325Y-19690650D01*
X8677325Y-19690650D02*
X8696373Y-19700174D01*
X8696373Y-19700174D02*
X8705896Y-19719222D01*
X8705896Y-19719222D02*
X8705896Y-19738270D01*
X8705896Y-19738270D02*
X8610658Y-19757317D01*
X8877325Y-19823984D02*
X8877325Y-19623984D01*
X8877325Y-19814460D02*
X8858277Y-19823984D01*
X8858277Y-19823984D02*
X8820182Y-19823984D01*
X8820182Y-19823984D02*
X8801135Y-19814460D01*
X8801135Y-19814460D02*
X8791611Y-19804936D01*
X8791611Y-19804936D02*
X8782087Y-19785889D01*
X8782087Y-19785889D02*
X8782087Y-19728746D01*
X8782087Y-19728746D02*
X8791611Y-19709698D01*
X8791611Y-19709698D02*
X8801135Y-19700174D01*
X8801135Y-19700174D02*
X8820182Y-19690650D01*
X8820182Y-19690650D02*
X8858277Y-19690650D01*
X8858277Y-19690650D02*
X8877325Y-19700174D01*
X8953516Y-19900174D02*
X8963039Y-19890650D01*
X8963039Y-19890650D02*
X8982087Y-19862079D01*
X8982087Y-19862079D02*
X8991611Y-19843031D01*
X8991611Y-19843031D02*
X9001135Y-19814460D01*
X9001135Y-19814460D02*
X9010658Y-19766841D01*
X9010658Y-19766841D02*
X9010658Y-19728746D01*
X9010658Y-19728746D02*
X9001135Y-19681127D01*
X9001135Y-19681127D02*
X8991611Y-19652555D01*
X8991611Y-19652555D02*
X8982087Y-19633508D01*
X8982087Y-19633508D02*
X8963039Y-19604936D01*
X8963039Y-19604936D02*
X8953516Y-19595412D01*
X2097500Y-19952500D02*
X2097500Y-20152500D01*
X1997500Y-20052500D02*
X2197500Y-20052500D01*
X2543991Y-20010650D02*
X2543991Y-20143984D01*
X2496372Y-19934460D02*
X2448753Y-20077317D01*
X2448753Y-20077317D02*
X2572563Y-20077317D01*
X2648753Y-20124936D02*
X2658277Y-20134460D01*
X2658277Y-20134460D02*
X2648753Y-20143984D01*
X2648753Y-20143984D02*
X2639229Y-20134460D01*
X2639229Y-20134460D02*
X2648753Y-20124936D01*
X2648753Y-20124936D02*
X2648753Y-20143984D01*
X2782086Y-19943984D02*
X2801134Y-19943984D01*
X2801134Y-19943984D02*
X2820182Y-19953508D01*
X2820182Y-19953508D02*
X2829705Y-19963031D01*
X2829705Y-19963031D02*
X2839229Y-19982079D01*
X2839229Y-19982079D02*
X2848753Y-20020174D01*
X2848753Y-20020174D02*
X2848753Y-20067793D01*
X2848753Y-20067793D02*
X2839229Y-20105889D01*
X2839229Y-20105889D02*
X2829705Y-20124936D01*
X2829705Y-20124936D02*
X2820182Y-20134460D01*
X2820182Y-20134460D02*
X2801134Y-20143984D01*
X2801134Y-20143984D02*
X2782086Y-20143984D01*
X2782086Y-20143984D02*
X2763039Y-20134460D01*
X2763039Y-20134460D02*
X2753515Y-20124936D01*
X2753515Y-20124936D02*
X2743991Y-20105889D01*
X2743991Y-20105889D02*
X2734467Y-20067793D01*
X2734467Y-20067793D02*
X2734467Y-20020174D01*
X2734467Y-20020174D02*
X2743991Y-19982079D01*
X2743991Y-19982079D02*
X2753515Y-19963031D01*
X2753515Y-19963031D02*
X2763039Y-19953508D01*
X2763039Y-19953508D02*
X2782086Y-19943984D01*
X2972562Y-19943984D02*
X2991610Y-19943984D01*
X2991610Y-19943984D02*
X3010658Y-19953508D01*
X3010658Y-19953508D02*
X3020182Y-19963031D01*
X3020182Y-19963031D02*
X3029705Y-19982079D01*
X3029705Y-19982079D02*
X3039229Y-20020174D01*
X3039229Y-20020174D02*
X3039229Y-20067793D01*
X3039229Y-20067793D02*
X3029705Y-20105889D01*
X3029705Y-20105889D02*
X3020182Y-20124936D01*
X3020182Y-20124936D02*
X3010658Y-20134460D01*
X3010658Y-20134460D02*
X2991610Y-20143984D01*
X2991610Y-20143984D02*
X2972562Y-20143984D01*
X2972562Y-20143984D02*
X2953515Y-20134460D01*
X2953515Y-20134460D02*
X2943991Y-20124936D01*
X2943991Y-20124936D02*
X2934467Y-20105889D01*
X2934467Y-20105889D02*
X2924943Y-20067793D01*
X2924943Y-20067793D02*
X2924943Y-20020174D01*
X2924943Y-20020174D02*
X2934467Y-19982079D01*
X2934467Y-19982079D02*
X2943991Y-19963031D01*
X2943991Y-19963031D02*
X2953515Y-19953508D01*
X2953515Y-19953508D02*
X2972562Y-19943984D01*
X3163039Y-19943984D02*
X3182086Y-19943984D01*
X3182086Y-19943984D02*
X3201134Y-19953508D01*
X3201134Y-19953508D02*
X3210658Y-19963031D01*
X3210658Y-19963031D02*
X3220182Y-19982079D01*
X3220182Y-19982079D02*
X3229705Y-20020174D01*
X3229705Y-20020174D02*
X3229705Y-20067793D01*
X3229705Y-20067793D02*
X3220182Y-20105889D01*
X3220182Y-20105889D02*
X3210658Y-20124936D01*
X3210658Y-20124936D02*
X3201134Y-20134460D01*
X3201134Y-20134460D02*
X3182086Y-20143984D01*
X3182086Y-20143984D02*
X3163039Y-20143984D01*
X3163039Y-20143984D02*
X3143991Y-20134460D01*
X3143991Y-20134460D02*
X3134467Y-20124936D01*
X3134467Y-20124936D02*
X3124943Y-20105889D01*
X3124943Y-20105889D02*
X3115420Y-20067793D01*
X3115420Y-20067793D02*
X3115420Y-20020174D01*
X3115420Y-20020174D02*
X3124943Y-19982079D01*
X3124943Y-19982079D02*
X3134467Y-19963031D01*
X3134467Y-19963031D02*
X3143991Y-19953508D01*
X3143991Y-19953508D02*
X3163039Y-19943984D01*
X3315420Y-20143984D02*
X3315420Y-20010650D01*
X3315420Y-20029698D02*
X3324943Y-20020174D01*
X3324943Y-20020174D02*
X3343991Y-20010650D01*
X3343991Y-20010650D02*
X3372563Y-20010650D01*
X3372563Y-20010650D02*
X3391610Y-20020174D01*
X3391610Y-20020174D02*
X3401134Y-20039222D01*
X3401134Y-20039222D02*
X3401134Y-20143984D01*
X3401134Y-20039222D02*
X3410658Y-20020174D01*
X3410658Y-20020174D02*
X3429705Y-20010650D01*
X3429705Y-20010650D02*
X3458277Y-20010650D01*
X3458277Y-20010650D02*
X3477324Y-20020174D01*
X3477324Y-20020174D02*
X3486848Y-20039222D01*
X3486848Y-20039222D02*
X3486848Y-20143984D01*
X3582086Y-20143984D02*
X3582086Y-20010650D01*
X3582086Y-20029698D02*
X3591610Y-20020174D01*
X3591610Y-20020174D02*
X3610658Y-20010650D01*
X3610658Y-20010650D02*
X3639229Y-20010650D01*
X3639229Y-20010650D02*
X3658277Y-20020174D01*
X3658277Y-20020174D02*
X3667801Y-20039222D01*
X3667801Y-20039222D02*
X3667801Y-20143984D01*
X3667801Y-20039222D02*
X3677324Y-20020174D01*
X3677324Y-20020174D02*
X3696372Y-20010650D01*
X3696372Y-20010650D02*
X3724943Y-20010650D01*
X3724943Y-20010650D02*
X3743991Y-20020174D01*
X3743991Y-20020174D02*
X3753515Y-20039222D01*
X3753515Y-20039222D02*
X3753515Y-20143984D01*
X4143991Y-19934460D02*
X3972563Y-20191603D01*
X4401134Y-19943984D02*
X4420182Y-19943984D01*
X4420182Y-19943984D02*
X4439229Y-19953508D01*
X4439229Y-19953508D02*
X4448753Y-19963031D01*
X4448753Y-19963031D02*
X4458277Y-19982079D01*
X4458277Y-19982079D02*
X4467801Y-20020174D01*
X4467801Y-20020174D02*
X4467801Y-20067793D01*
X4467801Y-20067793D02*
X4458277Y-20105889D01*
X4458277Y-20105889D02*
X4448753Y-20124936D01*
X4448753Y-20124936D02*
X4439229Y-20134460D01*
X4439229Y-20134460D02*
X4420182Y-20143984D01*
X4420182Y-20143984D02*
X4401134Y-20143984D01*
X4401134Y-20143984D02*
X4382087Y-20134460D01*
X4382087Y-20134460D02*
X4372563Y-20124936D01*
X4372563Y-20124936D02*
X4363039Y-20105889D01*
X4363039Y-20105889D02*
X4353515Y-20067793D01*
X4353515Y-20067793D02*
X4353515Y-20020174D01*
X4353515Y-20020174D02*
X4363039Y-19982079D01*
X4363039Y-19982079D02*
X4372563Y-19963031D01*
X4372563Y-19963031D02*
X4382087Y-19953508D01*
X4382087Y-19953508D02*
X4401134Y-19943984D01*
X4553515Y-20124936D02*
X4563039Y-20134460D01*
X4563039Y-20134460D02*
X4553515Y-20143984D01*
X4553515Y-20143984D02*
X4543991Y-20134460D01*
X4543991Y-20134460D02*
X4553515Y-20124936D01*
X4553515Y-20124936D02*
X4553515Y-20143984D01*
X4753515Y-20143984D02*
X4639229Y-20143984D01*
X4696372Y-20143984D02*
X4696372Y-19943984D01*
X4696372Y-19943984D02*
X4677325Y-19972555D01*
X4677325Y-19972555D02*
X4658277Y-19991603D01*
X4658277Y-19991603D02*
X4639229Y-20001127D01*
X4934468Y-19943984D02*
X4839229Y-19943984D01*
X4839229Y-19943984D02*
X4829706Y-20039222D01*
X4829706Y-20039222D02*
X4839229Y-20029698D01*
X4839229Y-20029698D02*
X4858277Y-20020174D01*
X4858277Y-20020174D02*
X4905896Y-20020174D01*
X4905896Y-20020174D02*
X4924944Y-20029698D01*
X4924944Y-20029698D02*
X4934468Y-20039222D01*
X4934468Y-20039222D02*
X4943991Y-20058270D01*
X4943991Y-20058270D02*
X4943991Y-20105889D01*
X4943991Y-20105889D02*
X4934468Y-20124936D01*
X4934468Y-20124936D02*
X4924944Y-20134460D01*
X4924944Y-20134460D02*
X4905896Y-20143984D01*
X4905896Y-20143984D02*
X4858277Y-20143984D01*
X4858277Y-20143984D02*
X4839229Y-20134460D01*
X4839229Y-20134460D02*
X4829706Y-20124936D01*
X5010658Y-19943984D02*
X5143991Y-19943984D01*
X5143991Y-19943984D02*
X5058277Y-20143984D01*
X5315420Y-19943984D02*
X5220182Y-19943984D01*
X5220182Y-19943984D02*
X5210658Y-20039222D01*
X5210658Y-20039222D02*
X5220182Y-20029698D01*
X5220182Y-20029698D02*
X5239229Y-20020174D01*
X5239229Y-20020174D02*
X5286849Y-20020174D01*
X5286849Y-20020174D02*
X5305896Y-20029698D01*
X5305896Y-20029698D02*
X5315420Y-20039222D01*
X5315420Y-20039222D02*
X5324944Y-20058270D01*
X5324944Y-20058270D02*
X5324944Y-20105889D01*
X5324944Y-20105889D02*
X5315420Y-20124936D01*
X5315420Y-20124936D02*
X5305896Y-20134460D01*
X5305896Y-20134460D02*
X5286849Y-20143984D01*
X5286849Y-20143984D02*
X5239229Y-20143984D01*
X5239229Y-20143984D02*
X5220182Y-20134460D01*
X5220182Y-20134460D02*
X5210658Y-20124936D01*
X5401134Y-19943984D02*
X5401134Y-19982079D01*
X5477325Y-19943984D02*
X5477325Y-19982079D01*
X5772563Y-20220174D02*
X5763039Y-20210650D01*
X5763039Y-20210650D02*
X5743991Y-20182079D01*
X5743991Y-20182079D02*
X5734468Y-20163031D01*
X5734468Y-20163031D02*
X5724944Y-20134460D01*
X5724944Y-20134460D02*
X5715420Y-20086841D01*
X5715420Y-20086841D02*
X5715420Y-20048746D01*
X5715420Y-20048746D02*
X5724944Y-20001127D01*
X5724944Y-20001127D02*
X5734468Y-19972555D01*
X5734468Y-19972555D02*
X5743991Y-19953508D01*
X5743991Y-19953508D02*
X5763039Y-19924936D01*
X5763039Y-19924936D02*
X5772563Y-19915412D01*
X5829706Y-19943984D02*
X5953515Y-19943984D01*
X5953515Y-19943984D02*
X5886848Y-20020174D01*
X5886848Y-20020174D02*
X5915420Y-20020174D01*
X5915420Y-20020174D02*
X5934468Y-20029698D01*
X5934468Y-20029698D02*
X5943991Y-20039222D01*
X5943991Y-20039222D02*
X5953515Y-20058270D01*
X5953515Y-20058270D02*
X5953515Y-20105889D01*
X5953515Y-20105889D02*
X5943991Y-20124936D01*
X5943991Y-20124936D02*
X5934468Y-20134460D01*
X5934468Y-20134460D02*
X5915420Y-20143984D01*
X5915420Y-20143984D02*
X5858277Y-20143984D01*
X5858277Y-20143984D02*
X5839229Y-20134460D01*
X5839229Y-20134460D02*
X5829706Y-20124936D01*
X6191610Y-20143984D02*
X6191610Y-19943984D01*
X6277325Y-20143984D02*
X6277325Y-20039222D01*
X6277325Y-20039222D02*
X6267801Y-20020174D01*
X6267801Y-20020174D02*
X6248753Y-20010650D01*
X6248753Y-20010650D02*
X6220182Y-20010650D01*
X6220182Y-20010650D02*
X6201134Y-20020174D01*
X6201134Y-20020174D02*
X6191610Y-20029698D01*
X6401134Y-20143984D02*
X6382087Y-20134460D01*
X6382087Y-20134460D02*
X6372563Y-20124936D01*
X6372563Y-20124936D02*
X6363039Y-20105889D01*
X6363039Y-20105889D02*
X6363039Y-20048746D01*
X6363039Y-20048746D02*
X6372563Y-20029698D01*
X6372563Y-20029698D02*
X6382087Y-20020174D01*
X6382087Y-20020174D02*
X6401134Y-20010650D01*
X6401134Y-20010650D02*
X6429706Y-20010650D01*
X6429706Y-20010650D02*
X6448753Y-20020174D01*
X6448753Y-20020174D02*
X6458277Y-20029698D01*
X6458277Y-20029698D02*
X6467801Y-20048746D01*
X6467801Y-20048746D02*
X6467801Y-20105889D01*
X6467801Y-20105889D02*
X6458277Y-20124936D01*
X6458277Y-20124936D02*
X6448753Y-20134460D01*
X6448753Y-20134460D02*
X6429706Y-20143984D01*
X6429706Y-20143984D02*
X6401134Y-20143984D01*
X6582087Y-20143984D02*
X6563039Y-20134460D01*
X6563039Y-20134460D02*
X6553515Y-20115412D01*
X6553515Y-20115412D02*
X6553515Y-19943984D01*
X6734468Y-20134460D02*
X6715420Y-20143984D01*
X6715420Y-20143984D02*
X6677325Y-20143984D01*
X6677325Y-20143984D02*
X6658277Y-20134460D01*
X6658277Y-20134460D02*
X6648753Y-20115412D01*
X6648753Y-20115412D02*
X6648753Y-20039222D01*
X6648753Y-20039222D02*
X6658277Y-20020174D01*
X6658277Y-20020174D02*
X6677325Y-20010650D01*
X6677325Y-20010650D02*
X6715420Y-20010650D01*
X6715420Y-20010650D02*
X6734468Y-20020174D01*
X6734468Y-20020174D02*
X6743991Y-20039222D01*
X6743991Y-20039222D02*
X6743991Y-20058270D01*
X6743991Y-20058270D02*
X6648753Y-20077317D01*
X6820182Y-20134460D02*
X6839230Y-20143984D01*
X6839230Y-20143984D02*
X6877325Y-20143984D01*
X6877325Y-20143984D02*
X6896372Y-20134460D01*
X6896372Y-20134460D02*
X6905896Y-20115412D01*
X6905896Y-20115412D02*
X6905896Y-20105889D01*
X6905896Y-20105889D02*
X6896372Y-20086841D01*
X6896372Y-20086841D02*
X6877325Y-20077317D01*
X6877325Y-20077317D02*
X6848753Y-20077317D01*
X6848753Y-20077317D02*
X6829706Y-20067793D01*
X6829706Y-20067793D02*
X6820182Y-20048746D01*
X6820182Y-20048746D02*
X6820182Y-20039222D01*
X6820182Y-20039222D02*
X6829706Y-20020174D01*
X6829706Y-20020174D02*
X6848753Y-20010650D01*
X6848753Y-20010650D02*
X6877325Y-20010650D01*
X6877325Y-20010650D02*
X6896372Y-20020174D01*
X6972563Y-20220174D02*
X6982087Y-20210650D01*
X6982087Y-20210650D02*
X7001134Y-20182079D01*
X7001134Y-20182079D02*
X7010658Y-20163031D01*
X7010658Y-20163031D02*
X7020182Y-20134460D01*
X7020182Y-20134460D02*
X7029706Y-20086841D01*
X7029706Y-20086841D02*
X7029706Y-20048746D01*
X7029706Y-20048746D02*
X7020182Y-20001127D01*
X7020182Y-20001127D02*
X7010658Y-19972555D01*
X7010658Y-19972555D02*
X7001134Y-19953508D01*
X7001134Y-19953508D02*
X6982087Y-19924936D01*
X6982087Y-19924936D02*
X6972563Y-19915412D01*
X7334468Y-20220174D02*
X7324944Y-20210650D01*
X7324944Y-20210650D02*
X7305896Y-20182079D01*
X7305896Y-20182079D02*
X7296372Y-20163031D01*
X7296372Y-20163031D02*
X7286849Y-20134460D01*
X7286849Y-20134460D02*
X7277325Y-20086841D01*
X7277325Y-20086841D02*
X7277325Y-20048746D01*
X7277325Y-20048746D02*
X7286849Y-20001127D01*
X7286849Y-20001127D02*
X7296372Y-19972555D01*
X7296372Y-19972555D02*
X7305896Y-19953508D01*
X7305896Y-19953508D02*
X7324944Y-19924936D01*
X7324944Y-19924936D02*
X7334468Y-19915412D01*
X7410658Y-20010650D02*
X7410658Y-20143984D01*
X7410658Y-20029698D02*
X7420182Y-20020174D01*
X7420182Y-20020174D02*
X7439230Y-20010650D01*
X7439230Y-20010650D02*
X7467801Y-20010650D01*
X7467801Y-20010650D02*
X7486849Y-20020174D01*
X7486849Y-20020174D02*
X7496372Y-20039222D01*
X7496372Y-20039222D02*
X7496372Y-20143984D01*
X7620182Y-20143984D02*
X7601134Y-20134460D01*
X7601134Y-20134460D02*
X7591611Y-20124936D01*
X7591611Y-20124936D02*
X7582087Y-20105889D01*
X7582087Y-20105889D02*
X7582087Y-20048746D01*
X7582087Y-20048746D02*
X7591611Y-20029698D01*
X7591611Y-20029698D02*
X7601134Y-20020174D01*
X7601134Y-20020174D02*
X7620182Y-20010650D01*
X7620182Y-20010650D02*
X7648753Y-20010650D01*
X7648753Y-20010650D02*
X7667801Y-20020174D01*
X7667801Y-20020174D02*
X7677325Y-20029698D01*
X7677325Y-20029698D02*
X7686849Y-20048746D01*
X7686849Y-20048746D02*
X7686849Y-20105889D01*
X7686849Y-20105889D02*
X7677325Y-20124936D01*
X7677325Y-20124936D02*
X7667801Y-20134460D01*
X7667801Y-20134460D02*
X7648753Y-20143984D01*
X7648753Y-20143984D02*
X7620182Y-20143984D01*
X7743992Y-20010650D02*
X7820182Y-20010650D01*
X7772563Y-19943984D02*
X7772563Y-20115412D01*
X7772563Y-20115412D02*
X7782087Y-20134460D01*
X7782087Y-20134460D02*
X7801134Y-20143984D01*
X7801134Y-20143984D02*
X7820182Y-20143984D01*
X8039230Y-20010650D02*
X8039230Y-20210650D01*
X8039230Y-20020174D02*
X8058277Y-20010650D01*
X8058277Y-20010650D02*
X8096373Y-20010650D01*
X8096373Y-20010650D02*
X8115420Y-20020174D01*
X8115420Y-20020174D02*
X8124944Y-20029698D01*
X8124944Y-20029698D02*
X8134468Y-20048746D01*
X8134468Y-20048746D02*
X8134468Y-20105889D01*
X8134468Y-20105889D02*
X8124944Y-20124936D01*
X8124944Y-20124936D02*
X8115420Y-20134460D01*
X8115420Y-20134460D02*
X8096373Y-20143984D01*
X8096373Y-20143984D02*
X8058277Y-20143984D01*
X8058277Y-20143984D02*
X8039230Y-20134460D01*
X8248753Y-20143984D02*
X8229706Y-20134460D01*
X8229706Y-20134460D02*
X8220182Y-20115412D01*
X8220182Y-20115412D02*
X8220182Y-19943984D01*
X8410658Y-20143984D02*
X8410658Y-20039222D01*
X8410658Y-20039222D02*
X8401135Y-20020174D01*
X8401135Y-20020174D02*
X8382087Y-20010650D01*
X8382087Y-20010650D02*
X8343992Y-20010650D01*
X8343992Y-20010650D02*
X8324944Y-20020174D01*
X8410658Y-20134460D02*
X8391611Y-20143984D01*
X8391611Y-20143984D02*
X8343992Y-20143984D01*
X8343992Y-20143984D02*
X8324944Y-20134460D01*
X8324944Y-20134460D02*
X8315420Y-20115412D01*
X8315420Y-20115412D02*
X8315420Y-20096365D01*
X8315420Y-20096365D02*
X8324944Y-20077317D01*
X8324944Y-20077317D02*
X8343992Y-20067793D01*
X8343992Y-20067793D02*
X8391611Y-20067793D01*
X8391611Y-20067793D02*
X8410658Y-20058270D01*
X8477325Y-20010650D02*
X8553515Y-20010650D01*
X8505896Y-19943984D02*
X8505896Y-20115412D01*
X8505896Y-20115412D02*
X8515420Y-20134460D01*
X8515420Y-20134460D02*
X8534468Y-20143984D01*
X8534468Y-20143984D02*
X8553515Y-20143984D01*
X8696373Y-20134460D02*
X8677325Y-20143984D01*
X8677325Y-20143984D02*
X8639230Y-20143984D01*
X8639230Y-20143984D02*
X8620182Y-20134460D01*
X8620182Y-20134460D02*
X8610658Y-20115412D01*
X8610658Y-20115412D02*
X8610658Y-20039222D01*
X8610658Y-20039222D02*
X8620182Y-20020174D01*
X8620182Y-20020174D02*
X8639230Y-20010650D01*
X8639230Y-20010650D02*
X8677325Y-20010650D01*
X8677325Y-20010650D02*
X8696373Y-20020174D01*
X8696373Y-20020174D02*
X8705896Y-20039222D01*
X8705896Y-20039222D02*
X8705896Y-20058270D01*
X8705896Y-20058270D02*
X8610658Y-20077317D01*
X8877325Y-20143984D02*
X8877325Y-19943984D01*
X8877325Y-20134460D02*
X8858277Y-20143984D01*
X8858277Y-20143984D02*
X8820182Y-20143984D01*
X8820182Y-20143984D02*
X8801135Y-20134460D01*
X8801135Y-20134460D02*
X8791611Y-20124936D01*
X8791611Y-20124936D02*
X8782087Y-20105889D01*
X8782087Y-20105889D02*
X8782087Y-20048746D01*
X8782087Y-20048746D02*
X8791611Y-20029698D01*
X8791611Y-20029698D02*
X8801135Y-20020174D01*
X8801135Y-20020174D02*
X8820182Y-20010650D01*
X8820182Y-20010650D02*
X8858277Y-20010650D01*
X8858277Y-20010650D02*
X8877325Y-20020174D01*
X8953516Y-20220174D02*
X8963039Y-20210650D01*
X8963039Y-20210650D02*
X8982087Y-20182079D01*
X8982087Y-20182079D02*
X8991611Y-20163031D01*
X8991611Y-20163031D02*
X9001135Y-20134460D01*
X9001135Y-20134460D02*
X9010658Y-20086841D01*
X9010658Y-20086841D02*
X9010658Y-20048746D01*
X9010658Y-20048746D02*
X9001135Y-20001127D01*
X9001135Y-20001127D02*
X8991611Y-19972555D01*
X8991611Y-19972555D02*
X8982087Y-19953508D01*
X8982087Y-19953508D02*
X8963039Y-19924936D01*
X8963039Y-19924936D02*
X8953516Y-19915412D01*
M02*
